<svg xmlns="http://www.w3.org/2000/svg" xmlns:xlink="http://www.w3.org/1999/xlink" width="128" height="128" version="1.1" viewBox="0 0 128 128"><defs><linearGradient id="linear0" x1="56" x2="56" y1="-76" y2="-156" gradientTransform="matrix(0.272002,0,0,0.184299,-1.352033,52.218826)" gradientUnits="userSpaceOnUse"><stop offset="0" style="stop-color:#68676b;stop-opacity:1"/><stop offset=".762" style="stop-color:#edece9;stop-opacity:1"/><stop offset="1" style="stop-color:#c8c6c0;stop-opacity:1"/></linearGradient><linearGradient id="linear1" x1="64" x2="448" y1="60" y2="60" gradientTransform="matrix(0.270851,0,0,0.272002,-5.188466,53.830627)" gradientUnits="userSpaceOnUse"><stop offset="0" style="stop-color:#68676b;stop-opacity:1"/><stop offset=".042" style="stop-color:#c8c6c0;stop-opacity:1"/><stop offset=".083" style="stop-color:#949390;stop-opacity:1"/><stop offset=".917" style="stop-color:#9e9e9b;stop-opacity:1"/><stop offset=".958" style="stop-color:#c8c6c0;stop-opacity:1"/><stop offset="1" style="stop-color:#68676b;stop-opacity:1"/></linearGradient><linearGradient id="linear2" x1="255.75" x2="255.75" y1="400" y2="208" gradientTransform="matrix(0.272002,0,0,0.272002,-5.704064,-1.657791)" gradientUnits="userSpaceOnUse"><stop offset="0" style="stop-color:#191622;stop-opacity:1"/><stop offset="1" style="stop-color:#949390;stop-opacity:1"/></linearGradient><filter id="alpha" width="100%" height="100%" x="0%" y="0%" filterUnits="objectBoundingBox"><feColorMatrix in="SourceGraphic" type="matrix" values="0 0 0 0 1 0 0 0 0 1 0 0 0 0 1 0 0 0 1 0"/></filter><mask id="mask0"><g filter="url(#alpha)"><rect width="128" height="128" x="0" y="0" style="fill:#000;fill-opacity:.15;stroke:none"/></g></mask><clipPath id="clip1"><rect width="192" height="152" x="0" y="0"/></clipPath><g id="surface214" clip-path="url(#clip1)"><path style="stroke:none;fill-rule:nonzero;fill:#000;fill-opacity:1" d="M 36.976562 79.621094 L 41.335938 83.976562 L 56.695312 83.976562 L 56.695312 79.621094 Z M 87.160156 79.621094 L 87.160156 83.976562 L 102.382812 83.976562 L 106.746094 79.621094 Z M 87.160156 79.621094"/></g><linearGradient id="linear3" x1="197.5" x2="197.5" y1="-124.344" y2="-212" gradientTransform="matrix(0.392892,0,0,0.395639,-36.651839,97.449851)" gradientUnits="userSpaceOnUse"><stop offset="0" style="stop-color:#e01b24;stop-opacity:1"/><stop offset=".225" style="stop-color:#ac1d2e;stop-opacity:1"/><stop offset=".45" style="stop-color:#e01b24;stop-opacity:1"/><stop offset=".725" style="stop-color:#f66151;stop-opacity:1"/><stop offset="1" style="stop-color:#f66151;stop-opacity:1"/></linearGradient><linearGradient id="linear4" x1="256" x2="256" y1="-212" y2="-93.481" gradientTransform="matrix(0.333333,0,0,0.293762,-21.333342,70.277588)" gradientUnits="userSpaceOnUse"><stop offset="0" style="stop-color:#c8c6c0;stop-opacity:1"/><stop offset=".16" style="stop-color:#fff;stop-opacity:1"/><stop offset=".36" style="stop-color:#fff;stop-opacity:1"/><stop offset="1" style="stop-color:#68676b;stop-opacity:1"/></linearGradient><linearGradient id="linear5" x1="56" x2="56" y1="-76" y2="-156" gradientTransform="matrix(0.272002,0,0,0.184299,-1.352033,52.218826)" gradientUnits="userSpaceOnUse"><stop offset="0" style="stop-color:#68676b;stop-opacity:1"/><stop offset=".762" style="stop-color:#edece9;stop-opacity:1"/><stop offset="1" style="stop-color:#c8c6c0;stop-opacity:1"/></linearGradient><linearGradient id="linear6" x1="64" x2="448" y1="60" y2="60" gradientTransform="matrix(0.270851,0,0,0.272002,-5.188466,53.830627)" gradientUnits="userSpaceOnUse"><stop offset="0" style="stop-color:#68676b;stop-opacity:1"/><stop offset=".042" style="stop-color:#c8c6c0;stop-opacity:1"/><stop offset=".083" style="stop-color:#949390;stop-opacity:1"/><stop offset=".917" style="stop-color:#9e9e9b;stop-opacity:1"/><stop offset=".958" style="stop-color:#c8c6c0;stop-opacity:1"/><stop offset="1" style="stop-color:#68676b;stop-opacity:1"/></linearGradient><linearGradient id="linear7" x1="255.75" x2="255.75" y1="400" y2="208" gradientTransform="matrix(0.272002,0,0,0.272002,-5.704064,-1.657791)" gradientUnits="userSpaceOnUse"><stop offset="0" style="stop-color:#191622;stop-opacity:1"/><stop offset="1" style="stop-color:#949390;stop-opacity:1"/></linearGradient><mask id="mask2"><g filter="url(#alpha)"><rect width="128" height="128" x="0" y="0" style="fill:#000;fill-opacity:.15;stroke:none"/></g></mask><clipPath id="clip4"><rect width="192" height="152" x="0" y="0"/></clipPath><g id="surface214" clip-path="url(#clip4)"><path style="stroke:none;fill-rule:nonzero;fill:#000;fill-opacity:1" d="M 36.976562 79.621094 L 41.335938 83.976562 L 56.695312 83.976562 L 56.695312 79.621094 Z M 87.160156 79.621094 L 87.160156 83.976562 L 102.382812 83.976562 L 106.746094 79.621094 Z M 87.160156 79.621094"/></g><linearGradient id="linear8" x1="197.5" x2="197.5" y1="-124.344" y2="-212" gradientTransform="matrix(0.392892,0,0,0.395639,-36.651839,97.449851)" gradientUnits="userSpaceOnUse"><stop offset="0" style="stop-color:#e01b24;stop-opacity:1"/><stop offset=".225" style="stop-color:#ac1d2e;stop-opacity:1"/><stop offset=".45" style="stop-color:#e01b24;stop-opacity:1"/><stop offset=".725" style="stop-color:#f66151;stop-opacity:1"/><stop offset="1" style="stop-color:#f66151;stop-opacity:1"/></linearGradient><linearGradient id="linear9" x1="256" x2="256" y1="-212" y2="-93.481" gradientTransform="matrix(0.333333,0,0,0.293762,-21.333342,70.277588)" gradientUnits="userSpaceOnUse"><stop offset="0" style="stop-color:#c8c6c0;stop-opacity:1"/><stop offset=".16" style="stop-color:#fff;stop-opacity:1"/><stop offset=".36" style="stop-color:#fff;stop-opacity:1"/><stop offset="1" style="stop-color:#68676b;stop-opacity:1"/></linearGradient><clipPath id="clip3"><rect width="128" height="128" x="0" y="0"/></clipPath><g id="surface223" clip-path="url(#clip3)"><path style="stroke:none;fill-rule:nonzero;fill:url(#linear5)" d="M 7.351562 21.992188 L 20.40625 21.992188 C 22.8125 21.992188 24.761719 23.3125 24.761719 24.941406 L 24.761719 36.738281 C 24.761719 38.367188 22.8125 39.6875 20.40625 39.6875 L 7.351562 39.6875 C 4.949219 39.6875 3 38.367188 3 36.738281 L 3 24.941406 C 3 23.3125 4.949219 21.992188 7.351562 21.992188 Z M 7.351562 21.992188"/><path style="stroke:none;fill-rule:nonzero;fill:url(#linear6)" d="M 20.113281 22.277344 L 108.1875 22.277344 C 112.585938 22.277344 116.152344 25.859375 116.152344 30.277344 L 116.152344 110.023438 C 116.152344 114.441406 112.585938 118.023438 108.1875 118.023438 L 20.113281 118.023438 C 15.710938 118.023438 12.144531 114.441406 12.144531 110.023438 L 12.144531 30.277344 C 12.144531 25.859375 15.710938 22.277344 20.113281 22.277344 Z M 20.113281 22.277344"/><path style="stroke:none;fill-rule:nonzero;fill:#d5d3cf;fill-opacity:1" d="M 20.03125 13.949219 L 108.179688 13.949219 C 112.582031 13.949219 116.152344 17.53125 116.152344 21.949219 L 116.152344 106.046875 C 116.152344 110.464844 112.582031 114.046875 108.179688 114.046875 L 20.03125 114.046875 C 15.628906 114.046875 12.058594 110.464844 12.058594 106.046875 L 12.058594 21.949219 C 12.058594 17.53125 15.628906 13.949219 20.03125 13.949219 Z M 20.03125 13.949219"/><path style="stroke:none;fill-rule:nonzero;fill:#fff;fill-opacity:1" d="M 20 22.277344 L 108.128906 22.277344 L 108.128906 106 L 20 106 Z M 20 22.277344"/><path style="stroke:none;fill-rule:nonzero;fill:#000;fill-opacity:.0787401" d="M 65.742188 19.234375 C 48.601562 19.183594 31.976562 20.792969 15.71875 23.585938 C 14.382812 23.8125 13.117188 24.261719 12 24.910156 L 12 57.015625 C 13.121094 57.667969 14.386719 58.132812 15.71875 58.402344 C 45.707031 64.425781 78.109375 63.980469 112.433594 58.402344 C 113.769531 58.183594 115.035156 57.742188 116.152344 57.09375 L 116.152344 24.9375 C 115.035156 24.289062 113.765625 23.832031 112.433594 23.585938 C 96.398438 20.617188 80.867188 19.277344 65.742188 19.234375 Z M 65.742188 19.234375"/><path style="stroke:none;fill-rule:nonzero;fill:url(#linear7)" d="M 48.695312 37.511719 L 48.695312 63.871094 L 28.976562 63.871094 L 63.859375 98.4375 L 98.746094 63.871094 L 79.160156 63.871094 L 79.160156 37.511719 Z M 48.695312 37.511719"/><use mask="url(#mask2)" transform="matrix(1,0,0,1,-8,-16)" xlink:href="#surface214"/><path style="stroke:none;fill-rule:nonzero;fill:#aaa;fill-opacity:1" d="M 20.40625 30.984375 L 107.449219 30.984375 L 107.449219 33.160156 L 20.40625 33.160156 Z M 20.40625 30.984375"/><path style="stroke:none;fill-rule:nonzero;fill:url(#linear8)" d="M 15.433594 13.574219 C 46.121094 8.320312 78.113281 7.242188 112.421875 13.574219 C 116.824219 14.386719 120.503906 17.457031 120.503906 22.277344 L 120.503906 39.6875 C 120.503906 44.507812 116.84375 47.675781 112.421875 48.390625 C 78 53.96875 45.503906 54.414062 15.433594 48.390625 C 11.042969 47.511719 7.351562 44.507812 7.351562 39.6875 L 7.351562 22.277344 C 7.351562 17.457031 11.019531 14.328125 15.433594 13.574219 Z M 15.433594 13.574219"/><path style="stroke:none;fill-rule:nonzero;fill:url(#linear9)" d="M 48 8 L 80 8 L 80 66.753906 L 48 66.753906 Z M 48 8"/><path style="stroke:none;fill-rule:nonzero;fill:#c8c6c0;fill-opacity:1" d="M 28.976562 63.621094 L 31.15625 65.796875 L 47.945312 65.796875 L 47.945312 63.621094 Z M 80.035156 63.621094 L 80.035156 65.796875 L 96.5625 65.796875 L 98.746094 63.621094 Z M 80.035156 63.621094"/><path style="stroke:none;fill-rule:nonzero;fill:#5a5a5d;fill-opacity:1" d="M 37.816406 72.328125 L 90.039062 72.328125 L 87.863281 74.503906 L 39.992188 74.503906 Z M 37.816406 72.328125"/><path style="stroke:none;fill-rule:nonzero;fill:#424048;fill-opacity:1" d="M 44.34375 78.855469 L 83.511719 78.855469 L 81.335938 81.03125 L 46.519531 81.03125 Z M 44.34375 78.855469"/><path style="stroke:none;fill-rule:nonzero;fill:#191622;fill-opacity:1" d="M 50.871094 85.382812 L 76.984375 85.382812 L 74.808594 87.558594 L 53.046875 87.558594 Z M 50.871094 85.382812"/><path style="stroke:none;fill-rule:nonzero;fill:#000;fill-opacity:1" d="M 57.402344 91.910156 L 70.398438 91.910156 L 68.222656 94.085938 L 59.578125 94.085938 Z M 57.402344 91.910156"/></g><clipPath id="clip2"><rect width="128" height="128" x="0" y="0"/></clipPath><g id="surface226" clip-path="url(#clip2)" filter="url(#alpha)"><use xlink:href="#surface223"/></g><mask id="mask1"><use xlink:href="#surface226"/></mask><mask id="mask3"><g filter="url(#alpha)"><rect width="128" height="128" x="0" y="0" style="fill:#000;fill-opacity:.8;stroke:none"/></g></mask><linearGradient id="linear10" x1="300" x2="428" y1="235" y2="235" gradientTransform="matrix(0.000000000000000023,0.37,-0.98462,0.00000000000000006,295.38501,-30.360001)" gradientUnits="userSpaceOnUse"><stop offset="0" style="stop-color:#f9f06b;stop-opacity:1"/><stop offset="1" style="stop-color:#f5c211;stop-opacity:1"/></linearGradient><clipPath id="clip6"><rect width="128" height="128" x="0" y="0"/></clipPath><g id="surface220" clip-path="url(#clip6)"><path style="stroke:none;fill-rule:nonzero;fill:url(#linear10)" d="M 128 80.640625 L 128 128 L 0 128 L 0 80.640625 Z M 128 80.640625"/><path style="stroke:none;fill-rule:nonzero;fill:#000;fill-opacity:1" d="M 13.308594 80.640625 L 60.664062 128 L 81.878906 128 L 34.519531 80.640625 Z M 55.730469 80.640625 L 103.09375 128 L 124.308594 128 L 76.945312 80.640625 Z M 98.160156 80.640625 L 128 110.480469 L 128 89.269531 L 119.371094 80.640625 Z M 0 88.546875 L 0 109.761719 L 18.238281 128 L 39.453125 128 Z M 0 88.546875"/></g><clipPath id="clip5"><rect width="128" height="128" x="0" y="0"/></clipPath><g id="surface225" clip-path="url(#clip5)"><use mask="url(#mask3)" xlink:href="#surface220"/></g></defs><g id="surface200"><path style="stroke:none;fill-rule:nonzero;fill:url(#linear0)" d="M 7.351562 21.992188 L 20.40625 21.992188 C 22.8125 21.992188 24.761719 23.3125 24.761719 24.941406 L 24.761719 36.738281 C 24.761719 38.367188 22.8125 39.6875 20.40625 39.6875 L 7.351562 39.6875 C 4.949219 39.6875 3 38.367188 3 36.738281 L 3 24.941406 C 3 23.3125 4.949219 21.992188 7.351562 21.992188 Z M 7.351562 21.992188"/><path style="stroke:none;fill-rule:nonzero;fill:url(#linear1)" d="M 20.113281 22.277344 L 108.1875 22.277344 C 112.585938 22.277344 116.152344 25.859375 116.152344 30.277344 L 116.152344 110.023438 C 116.152344 114.441406 112.585938 118.023438 108.1875 118.023438 L 20.113281 118.023438 C 15.710938 118.023438 12.144531 114.441406 12.144531 110.023438 L 12.144531 30.277344 C 12.144531 25.859375 15.710938 22.277344 20.113281 22.277344 Z M 20.113281 22.277344"/><path style="stroke:none;fill-rule:nonzero;fill:#d5d3cf;fill-opacity:1" d="M 20.03125 13.949219 L 108.179688 13.949219 C 112.582031 13.949219 116.152344 17.53125 116.152344 21.949219 L 116.152344 106.046875 C 116.152344 110.464844 112.582031 114.046875 108.179688 114.046875 L 20.03125 114.046875 C 15.628906 114.046875 12.058594 110.464844 12.058594 106.046875 L 12.058594 21.949219 C 12.058594 17.53125 15.628906 13.949219 20.03125 13.949219 Z M 20.03125 13.949219"/><path style="stroke:none;fill-rule:nonzero;fill:#fff;fill-opacity:1" d="M 20 22.277344 L 108.128906 22.277344 L 108.128906 106 L 20 106 Z M 20 22.277344"/><path style="stroke:none;fill-rule:nonzero;fill:#000;fill-opacity:.0787401" d="M 65.742188 19.234375 C 48.601562 19.183594 31.976562 20.792969 15.71875 23.585938 C 14.382812 23.8125 13.117188 24.261719 12 24.910156 L 12 57.015625 C 13.121094 57.667969 14.386719 58.132812 15.71875 58.402344 C 45.707031 64.425781 78.109375 63.980469 112.433594 58.402344 C 113.769531 58.183594 115.035156 57.742188 116.152344 57.09375 L 116.152344 24.9375 C 115.035156 24.289062 113.765625 23.832031 112.433594 23.585938 C 96.398438 20.617188 80.867188 19.277344 65.742188 19.234375 Z M 65.742188 19.234375"/><path style="stroke:none;fill-rule:nonzero;fill:url(#linear2)" d="M 48.695312 37.511719 L 48.695312 63.871094 L 28.976562 63.871094 L 63.859375 98.4375 L 98.746094 63.871094 L 79.160156 63.871094 L 79.160156 37.511719 Z M 48.695312 37.511719"/><use mask="url(#mask0)" transform="matrix(1,0,0,1,-8,-16)" xlink:href="#surface214"/><path style="stroke:none;fill-rule:nonzero;fill:#aaa;fill-opacity:1" d="M 20.40625 30.984375 L 107.449219 30.984375 L 107.449219 33.160156 L 20.40625 33.160156 Z M 20.40625 30.984375"/><path style="stroke:none;fill-rule:nonzero;fill:url(#linear3)" d="M 15.433594 13.574219 C 46.121094 8.320312 78.113281 7.242188 112.421875 13.574219 C 116.824219 14.386719 120.503906 17.457031 120.503906 22.277344 L 120.503906 39.6875 C 120.503906 44.507812 116.84375 47.675781 112.421875 48.390625 C 78 53.96875 45.503906 54.414062 15.433594 48.390625 C 11.042969 47.511719 7.351562 44.507812 7.351562 39.6875 L 7.351562 22.277344 C 7.351562 17.457031 11.019531 14.328125 15.433594 13.574219 Z M 15.433594 13.574219"/><path style="stroke:none;fill-rule:nonzero;fill:url(#linear4)" d="M 48 8 L 80 8 L 80 66.753906 L 48 66.753906 Z M 48 8"/><path style="stroke:none;fill-rule:nonzero;fill:#c8c6c0;fill-opacity:1" d="M 28.976562 63.621094 L 31.15625 65.796875 L 47.945312 65.796875 L 47.945312 63.621094 Z M 80.035156 63.621094 L 80.035156 65.796875 L 96.5625 65.796875 L 98.746094 63.621094 Z M 80.035156 63.621094"/><path style="stroke:none;fill-rule:nonzero;fill:#5a5a5d;fill-opacity:1" d="M 37.816406 72.328125 L 90.039062 72.328125 L 87.863281 74.503906 L 39.992188 74.503906 Z M 37.816406 72.328125"/><path style="stroke:none;fill-rule:nonzero;fill:#424048;fill-opacity:1" d="M 44.34375 78.855469 L 83.511719 78.855469 L 81.335938 81.03125 L 46.519531 81.03125 Z M 44.34375 78.855469"/><path style="stroke:none;fill-rule:nonzero;fill:#191622;fill-opacity:1" d="M 50.871094 85.382812 L 76.984375 85.382812 L 74.808594 87.558594 L 53.046875 87.558594 Z M 50.871094 85.382812"/><path style="stroke:none;fill-rule:nonzero;fill:#000;fill-opacity:1" d="M 57.402344 91.910156 L 70.398438 91.910156 L 68.222656 94.085938 L 59.578125 94.085938 Z M 57.402344 91.910156"/><use mask="url(#mask1)" xlink:href="#surface225"/></g></svg>