<svg xmlns="http://www.w3.org/2000/svg" xmlns:svg="http://www.w3.org/2000/svg" xmlns:xlink="http://www.w3.org/1999/xlink" id="svg2408" width="96" height="96" version="1.0"><defs id="defs2410"><linearGradient id="linearGradient3637"><stop style="stop-color:#f0f0f0;stop-opacity:1" id="stop3639" offset="0"/><stop style="stop-color:#aaa;stop-opacity:1" id="stop3641" offset="1"/></linearGradient><linearGradient id="ButtonShadow" x1="45.448" x2="45.448" y1="92.54" y2="7.017" gradientTransform="scale(1.0058652,0.994169)" gradientUnits="userSpaceOnUse"><stop style="stop-color:#000;stop-opacity:1" id="stop3750" offset="0"/><stop style="stop-color:#000;stop-opacity:.58823532" id="stop3752" offset="1"/></linearGradient><linearGradient id="linearGradient3737"><stop style="stop-color:#fff;stop-opacity:1" id="stop3739" offset="0"/><stop style="stop-color:#fff;stop-opacity:0" id="stop3741" offset="1"/></linearGradient><linearGradient id="linearGradient3700"><stop style="stop-color:#2276c5;stop-opacity:1" id="stop3702" offset="0"/><stop style="stop-color:#68baf4;stop-opacity:1" id="stop3704" offset="1"/></linearGradient><filter id="filter3174"><feGaussianBlur id="feGaussianBlur3176" stdDeviation="1.71"/></filter><linearGradient id="linearGradient3188" x1="36.357" x2="36.357" y1="6" y2="63.893" gradientUnits="userSpaceOnUse" xlink:href="#linearGradient3737"/><filter id="filter3794" width="1.384" height="1.384" x="-.192" y="-.192"><feGaussianBlur id="feGaussianBlur3796" stdDeviation="5.28"/></filter><linearGradient id="linearGradient3613" x1="48" x2="48" y1="20.221" y2="138.661" gradientUnits="userSpaceOnUse" xlink:href="#linearGradient3737"/><radialGradient id="radialGradient3619" cx="48" cy="90.172" r="42" fx="48" fy="90.172" gradientTransform="matrix(1.1573129,0,0,0.99590774,-7.5510206,0.19713193)" gradientUnits="userSpaceOnUse" xlink:href="#linearGradient3737"/><clipPath id="clipPath3613" clipPathUnits="userSpaceOnUse"><rect id="rect3615" width="84" height="84" x="6" y="6" rx="6" ry="6" style="fill:#fff;fill-opacity:1;fill-rule:nonzero;stroke:none"/></clipPath><linearGradient id="linearGradient2843" x1="48" x2="48" y1="90" y2="5.988" gradientTransform="translate(0,100)" gradientUnits="userSpaceOnUse" xlink:href="#linearGradient3700"/><clipPath id="clipPath3625" clipPathUnits="userSpaceOnUse"><path style="fill:#fff;fill-opacity:1;stroke:none" id="path3627" d="M 0,0 0,96 96,96 96,0 0,0 z m 12,6 72,0 c 3.324,0 6,2.676 6,6 l 0,72 c 0,3.324 -2.676,6 -6,6 L 12,90 C 8.676,90 6,87.324 6,84 L 6,12 C 6,8.676 8.676,6 12,6 z"/></clipPath><linearGradient id="linearGradient3643" x1="44.512" x2="44.512" y1="6" y2="90.015" gradientUnits="userSpaceOnUse" xlink:href="#linearGradient3637"/><clipPath id="clipPath3649" clipPathUnits="userSpaceOnUse"><rect style="fill:#fff;fill-opacity:1;fill-rule:nonzero;stroke:none" id="rect3651" width="76" height="76" x="10" y="10" rx="4" ry="4"/></clipPath><filter id="filter3657"><feGaussianBlur id="feGaussianBlur3659" stdDeviation="1.14"/></filter><linearGradient id="ButtonShadow-0" x1="45.448" x2="45.448" y1="92.54" y2="7.017" gradientTransform="matrix(1.0058652,0,0,0.994169,100,0)" gradientUnits="userSpaceOnUse"><stop style="stop-color:#000;stop-opacity:1" id="stop3750-8" offset="0"/><stop style="stop-color:#000;stop-opacity:.58823532" id="stop3752-5" offset="1"/></linearGradient><linearGradient id="linearGradient3780" x1="32.251" x2="32.251" y1="6.132" y2="90.239" gradientTransform="matrix(1.0238095,0,0,-1.0119048,-1.1428571,98.071429)" gradientUnits="userSpaceOnUse" xlink:href="#ButtonShadow-0"/><linearGradient id="linearGradient3772" x1="32.251" x2="32.251" y1="6.132" y2="90.239" gradientTransform="matrix(1.0238095,0,0,-1.0119048,-1.1428571,98.071429)" gradientUnits="userSpaceOnUse" xlink:href="#ButtonShadow-0"/><linearGradient id="linearGradient3725" x1="32.251" x2="32.251" y1="6.132" y2="90.239" gradientTransform="matrix(1.0238095,0,0,-1.0119048,-1.1428571,98.071429)" gradientUnits="userSpaceOnUse" xlink:href="#ButtonShadow-0"/><linearGradient id="linearGradient3721" x1="32.251" x2="32.251" y1="6.132" y2="90.239" gradientTransform="matrix(1,0,0,-1,0,97)" gradientUnits="userSpaceOnUse" xlink:href="#ButtonShadow-0"/><linearGradient id="linearGradient3199" x1="32.251" x2="32.251" y1="6.132" y2="90.239" gradientTransform="matrix(1.0238095,0,0,-1.0119048,-1.1428571,98.071429)" gradientUnits="userSpaceOnUse" xlink:href="#ButtonShadow-0"/><linearGradient id="linearGradient3188-8" x1="36.357" x2="36.357" y1="6" y2="63.893" gradientUnits="userSpaceOnUse" xlink:href="#linearGradient3737-3"/><linearGradient id="linearGradient3737-3"><stop style="stop-color:#fff;stop-opacity:1" id="stop3739-6" offset="0"/><stop style="stop-color:#fff;stop-opacity:0" id="stop3741-1" offset="1"/></linearGradient><radialGradient id="radialGradient3619-3" cx="48" cy="90.172" r="42" fx="48" fy="90.172" gradientTransform="matrix(1.1573129,0,0,0.99590774,-7.551021,0.1971319)" gradientUnits="userSpaceOnUse" xlink:href="#linearGradient3737-3"/><linearGradient id="linearGradient3905" x1="104" x2="120" y1="8" y2="8" gradientTransform="translate(-104,104)" gradientUnits="userSpaceOnUse" xlink:href="#linearGradient3637"/><linearGradient id="linearGradient3913" x1="104" x2="120" y1="8" y2="8" gradientTransform="translate(-144,104)" gradientUnits="userSpaceOnUse" xlink:href="#linearGradient3183-0"/><linearGradient id="linearGradient2927-4" x1="11" x2="19" y1="11.016" y2="11.016" gradientTransform="matrix(0,-3.0000004,2.9652505,0,33.335916,111.00001)" gradientUnits="userSpaceOnUse" xlink:href="#linearGradient3183-0"/><linearGradient id="linearGradient3183-0"><stop style="stop-color:#c80000;stop-opacity:1" id="stop3185-9" offset="0"/><stop style="stop-color:#f3604d;stop-opacity:1" id="stop3187-6" offset="1"/></linearGradient><linearGradient id="linearGradient3879" x1="45" x2="45" y1="24" y2="76" gradientUnits="userSpaceOnUse" xlink:href="#linearGradient3637"/><linearGradient id="linearGradient3885" x1="45" x2="45" y1="24" y2="76" gradientTransform="translate(0,1)" gradientUnits="userSpaceOnUse" xlink:href="#linearGradient3637"/><linearGradient id="linearGradient3887" x1="45" x2="45" y1="24" y2="76" gradientUnits="userSpaceOnUse" xlink:href="#linearGradient3637"/><linearGradient id="linearGradient3894" x1="45" x2="45" y1="24" y2="76" gradientTransform="translate(0,-1)" gradientUnits="userSpaceOnUse" xlink:href="#linearGradient3637"/><linearGradient id="linearGradient3896" x1="45" x2="45" y1="24" y2="76" gradientUnits="userSpaceOnUse" xlink:href="#linearGradient3637"/><linearGradient id="linearGradient3901" x1="45" x2="45" y1="24" y2="76" gradientUnits="userSpaceOnUse" xlink:href="#linearGradient3637"/></defs><metadata id="metadata2413"/><g id="layer2" style="display:none"><rect style="opacity:.9;fill:url(#ButtonShadow);fill-opacity:1;fill-rule:nonzero;stroke:none;filter:url(#filter3174)" id="rect3745" width="86" height="85" x="5" y="7" clip-path="url(#clipPath3625)" rx="6" ry="6"/></g><g id="layer3"><path style="opacity:.07999998;fill:url(#linearGradient3199);fill-opacity:1;fill-rule:nonzero;stroke:none;display:inline" id="path3786" d="M 12,3.96875 C 6.4889098,3.96875 1.96875,8.4889098 1.96875,14 l 0,71 c 0,5.51109 4.5201597,10.03125 10.03125,10.03125 l 72,0 c 5.51109,0 10.03125,-4.52016 10.03125,-10.03125 l 0,-71 C 94.03125,8.4889097 89.51109,3.96875 84,3.96875 l -72,0 z M 12,6 84,6 c 3.324,0 6,2.676 6,6 l 0,72 c 0,3.324 -2.676,6 -6,6 L 12,90 C 8.676,90 6,87.324 6,84 L 6,12 C 6,8.676 8.676,6 12,6 z"/><path style="opacity:.1;fill:url(#linearGradient3780);fill-opacity:1;fill-rule:nonzero;stroke:none;display:inline" id="path3778" d="M 12,4.96875 C 7.0283671,4.96875 2.96875,9.0283671 2.96875,14 l 0,71 c 0,4.971633 4.059617,9.03125 9.03125,9.03125 l 72,0 c 4.971633,0 9.03125,-4.059617 9.03125,-9.03125 l 0,-71 C 93.03125,9.028367 88.971633,4.96875 84,4.96875 l -72,0 z M 12,6 84,6 c 3.324,0 6,2.676 6,6 l 0,72 c 0,3.324 -2.676,6 -6,6 L 12,90 C 8.676,90 6,87.324 6,84 L 6,12 C 6,8.676 8.676,6 12,6 z"/><path style="opacity:.2;fill:url(#linearGradient3772);fill-opacity:1;fill-rule:nonzero;stroke:none;display:inline" id="path3770" d="M 11.1875,6.03125 C 7.159982,6.4419011 4,9.8664375 4,14 l 0,71 c 0,4.409133 3.590867,8 8,8 l 72,0 c 4.409133,0 8,-3.590867 8,-8 L 92,14 C 92,9.8029382 88.741028,6.3539584 84.625,6.03125 87.657886,6.337417 90,8.88375 90,12 l 0,72 c 0,3.324 -2.676,6 -6,6 L 12,90 C 8.676,90 6,87.324 6,84 L 6,12 c 0,-3.11625 2.342114,-5.662583 5.375,-5.96875 -0.06227,0.00488 -0.12563,-0.00631 -0.1875,0 z"/><path style="opacity:.3;fill:url(#linearGradient3725);fill-opacity:1;fill-rule:nonzero;stroke:none;display:inline" id="rect3723" d="M 6.4375,9.75 C 5.5380109,10.927446 5,12.397277 5,14 l 0,71 c 0,3.878 3.122,7 7,7 l 72,0 c 3.878,0 7,-3.122 7,-7 L 91,14 C 91,12.397277 90.461989,10.927446 89.5625,9.75 89.841816,10.444095 90,11.203625 90,12 l 0,72 c 0,3.324 -2.676,6 -6,6 L 12,90 C 8.676,90 6,87.324 6,84 L 6,12 C 6,11.203625 6.1581836,10.444095 6.4375,9.75 z"/><path style="opacity:.45;fill:url(#linearGradient3721);fill-opacity:1;fill-rule:nonzero;stroke:none;display:inline" id="rect3716" d="m 6,84 0,1 c 0,3.324 2.676,6 6,6 l 72,0 c 3.324,0 6,-2.676 6,-6 l 0,-1 c 0,3.324 -2.676,6 -6,6 L 12,90 C 8.676,90 6,87.324 6,84 z"/></g><g id="layer1" style="display:none"><rect style="opacity:.8;fill:#000;fill-opacity:1;fill-rule:nonzero;stroke:none" id="rect2419" width="84" height="84" x="6" y="6" rx="6" ry="6"/><path style="opacity:.07999998;fill:#000;fill-opacity:1;fill-rule:nonzero;stroke:none" id="rect3726" d="m 14,10 c -2.216,0 -4,1.784 -4,4 l 0,68 c 0,2.216 1.784,4 4,4 l 68,0 c 2.216,0 4,-1.784 4,-4 l 0,-68 c 0,-2.216 -1.784,-4 -4,-4 l -68,0 z m 0,3.0625 68,0 c 0.578769,0 0.9375,0.358731 0.9375,0.9375 l 0,68 c 0,0.578769 -0.358731,0.9375 -0.9375,0.9375 l -68,0 c -0.578769,0 -0.9375,-0.358731 -0.9375,-0.9375 l 0,-68 c 0,-0.578769 0.358731,-0.9375 0.9375,-0.9375 z"/><path style="fill:url(#linearGradient3643);fill-opacity:1;fill-rule:nonzero;stroke:none" id="rect3629" d="M 12,6 C 8.676,6 6,8.676 6,12 l 0,72 c 0,3.324 2.676,6 6,6 l 72,0 c 3.324,0 6,-2.676 6,-6 L 90,12 C 90,8.676 87.324,6 84,6 L 12,6 z m 2,4 68,0 c 2.216,0 4,1.784 4,4 l 0,68 c 0,2.216 -1.784,4 -4,4 l -68,0 c -2.216,0 -4,-1.784 -4,-4 l 0,-68 c 0,-2.216 1.784,-4 4,-4 z"/><path style="fill:url(#linearGradient3188);fill-opacity:1;fill-rule:nonzero;stroke:none" id="rect3728" d="M 12,6 C 8.676,6 6,8.676 6,12 l 0,2 0,68 0,2 c 0,0.334721 0.04135,0.6507 0.09375,0.96875 0.0487,0.295596 0.09704,0.596915 0.1875,0.875 0.00988,0.03038 0.020892,0.0636 0.03125,0.09375 0.098865,0.287771 0.2348802,0.547452 0.375,0.8125 0.1445918,0.273507 0.3156161,0.535615 0.5,0.78125 0.1843839,0.245635 0.3737765,0.473472 0.59375,0.6875 0.439947,0.428056 0.94291,0.814526 1.5,1.09375 0.278545,0.139612 0.5734731,0.246947 0.875,0.34375 -0.2562018,-0.100222 -0.4867109,-0.236272 -0.71875,-0.375 -0.00741,-0.0044 -0.023866,0.0045 -0.03125,0 -0.031933,-0.0193 -0.062293,-0.04251 -0.09375,-0.0625 -0.120395,-0.0767 -0.2310226,-0.163513 -0.34375,-0.25 -0.1061728,-0.0808 -0.2132809,-0.161112 -0.3125,-0.25 C 8.4783201,88.557317 8.3087904,88.373362 8.15625,88.1875 8.0486711,88.057245 7.9378561,87.922215 7.84375,87.78125 7.818661,87.74287 7.805304,87.69538 7.78125,87.65625 7.716487,87.553218 7.6510225,87.451733 7.59375,87.34375 7.4927417,87.149044 7.3880752,86.928049 7.3125,86.71875 7.30454,86.69694 7.288911,86.6782 7.28125,86.65625 7.2494249,86.5643 7.2454455,86.469419 7.21875,86.375 7.1884177,86.268382 7.1483606,86.171969 7.125,86.0625 7.0521214,85.720988 7,85.364295 7,85 L 7,83 7,15 7,13 C 7,10.218152 9.2181517,8 12,8 l 2,0 68,0 2,0 c 2.781848,0 5,2.218152 5,5 l 0,2 0,68 0,2 c 0,0.364295 -0.05212,0.720988 -0.125,1.0625 -0.04415,0.206893 -0.08838,0.397658 -0.15625,0.59375 -0.0077,0.02195 -0.0233,0.04069 -0.03125,0.0625 -0.06274,0.173739 -0.138383,0.367449 -0.21875,0.53125 -0.04158,0.0828 -0.07904,0.169954 -0.125,0.25 -0.0546,0.09721 -0.126774,0.18835 -0.1875,0.28125 -0.09411,0.140965 -0.204921,0.275995 -0.3125,0.40625 -0.143174,0.17445 -0.303141,0.346998 -0.46875,0.5 -0.01117,0.0102 -0.01998,0.02115 -0.03125,0.03125 -0.138386,0.125556 -0.285091,0.234436 -0.4375,0.34375 -0.102571,0.07315 -0.204318,0.153364 -0.3125,0.21875 -0.0074,0.0045 -0.02384,-0.0044 -0.03125,0 -0.232039,0.138728 -0.462548,0.274778 -0.71875,0.375 0.301527,-0.0968 0.596455,-0.204138 0.875,-0.34375 0.55709,-0.279224 1.060053,-0.665694 1.5,-1.09375 0.219973,-0.214028 0.409366,-0.441865 0.59375,-0.6875 0.184384,-0.245635 0.355408,-0.507743 0.5,-0.78125 0.14012,-0.265048 0.276135,-0.524729 0.375,-0.8125 0.01041,-0.03078 0.02133,-0.06274 0.03125,-0.09375 0.09046,-0.278085 0.1388,-0.579404 0.1875,-0.875 C 89.95865,84.6507 90,84.334721 90,84 l 0,-2 0,-68 0,-2 C 90,8.676 87.324,6 84,6 L 12,6 z"/><path id="path3615" d="M 12,90 C 8.676,90 6,87.324 6,84 L 6,82 6,14 6,12 c 0,-0.334721 0.04135,-0.6507 0.09375,-0.96875 0.0487,-0.295596 0.09704,-0.596915 0.1875,-0.875 C 6.29113,10.12587 6.302142,10.09265 6.3125,10.0625 6.411365,9.774729 6.5473802,9.515048 6.6875,9.25 6.8320918,8.976493 7.0031161,8.714385 7.1875,8.46875 7.3718839,8.223115 7.5612765,7.995278 7.78125,7.78125 8.221197,7.353194 8.72416,6.966724 9.28125,6.6875 9.559795,6.547888 9.8547231,6.440553 10.15625,6.34375 9.9000482,6.443972 9.6695391,6.580022 9.4375,6.71875 c -0.00741,0.0044 -0.023866,-0.0045 -0.03125,0 -0.031933,0.0193 -0.062293,0.04251 -0.09375,0.0625 -0.120395,0.0767 -0.2310226,0.163513 -0.34375,0.25 -0.1061728,0.0808 -0.2132809,0.161112 -0.3125,0.25 C 8.4783201,7.442683 8.3087904,7.626638 8.15625,7.8125 8.0486711,7.942755 7.9378561,8.077785 7.84375,8.21875 7.818661,8.25713 7.805304,8.30462 7.78125,8.34375 7.716487,8.446782 7.6510225,8.548267 7.59375,8.65625 7.4927417,8.850956 7.3880752,9.071951 7.3125,9.28125 7.30454,9.30306 7.288911,9.3218 7.28125,9.34375 7.2494249,9.4357 7.2454455,9.530581 7.21875,9.625 7.1884177,9.731618 7.1483606,9.828031 7.125,9.9375 7.0521214,10.279012 7,10.635705 7,11 l 0,2 0,68 0,2 c 0,2.781848 2.2181517,5 5,5 l 2,0 68,0 2,0 c 2.781848,0 5,-2.218152 5,-5 l 0,-2 0,-68 0,-2 C 89,10.635705 88.94788,10.279012 88.875,9.9375 88.83085,9.730607 88.78662,9.539842 88.71875,9.34375 88.71105,9.3218 88.69545,9.30306 88.6875,9.28125 88.62476,9.107511 88.549117,8.913801 88.46875,8.75 88.42717,8.6672 88.38971,8.580046 88.34375,8.5 88.28915,8.40279 88.216976,8.31165 88.15625,8.21875 88.06214,8.077785 87.951329,7.942755 87.84375,7.8125 87.700576,7.63805 87.540609,7.465502 87.375,7.3125 87.36383,7.3023 87.35502,7.29135 87.34375,7.28125 87.205364,7.155694 87.058659,7.046814 86.90625,6.9375 86.803679,6.86435 86.701932,6.784136 86.59375,6.71875 c -0.0074,-0.0045 -0.02384,0.0044 -0.03125,0 -0.232039,-0.138728 -0.462548,-0.274778 -0.71875,-0.375 0.301527,0.0968 0.596455,0.204138 0.875,0.34375 0.55709,0.279224 1.060053,0.665694 1.5,1.09375 0.219973,0.214028 0.409366,0.441865 0.59375,0.6875 0.184384,0.245635 0.355408,0.507743 0.5,0.78125 0.14012,0.265048 0.276135,0.524729 0.375,0.8125 0.01041,0.03078 0.02133,0.06274 0.03125,0.09375 0.09046,0.278085 0.1388,0.579404 0.1875,0.875 C 89.95865,11.3493 90,11.665279 90,12 l 0,2 0,68 0,2 c 0,3.324 -2.676,6 -6,6 l -72,0 z" style="opacity:.6;fill:url(#radialGradient3619);fill-opacity:1;fill-rule:nonzero;stroke:none"/><rect id="rect2841" width="84" height="84" x="6" y="106" rx="6" ry="6" style="fill:url(#linearGradient2843);fill-opacity:1;fill-rule:nonzero;stroke:none"/><rect id="rect3634" width="76" height="76" x="10" y="110" rx="4" ry="4" style="fill:red;fill-opacity:1;fill-rule:nonzero;stroke:none"/><path style="font-size:medium;font-style:normal;font-variant:normal;font-weight:400;font-stretch:normal;text-indent:0;text-align:start;text-decoration:none;line-height:normal;letter-spacing:normal;word-spacing:normal;text-transform:none;direction:ltr;block-progression:tb;writing-mode:lr-tb;text-anchor:start;color:#000;fill:#000;fill-opacity:1;stroke:none;stroke-width:2;marker:none;visibility:visible;display:inline;overflow:visible;filter:url(#filter3657);enable-background:accumulate;font-family:Abandoned Bitplane;-inkscape-font-specification:Abandoned Bitplane" id="rect3647" d="m 14,9 c -2.752703,0 -5,2.247297 -5,5 l 0,68 c 0,2.752703 2.247297,5 5,5 l 68,0 c 2.752703,0 5,-2.247297 5,-5 L 87,14 C 87,11.247297 84.752703,9 82,9 L 14,9 z m 0,2 68,0 c 1.679297,0 3,1.320703 3,3 l 0,68 c 0,1.679297 -1.320703,3 -3,3 l -68,0 c -1.679297,0 -3,-1.320703 -3,-3 l 0,-68 c 0,-1.679297 1.320703,-3 3,-3 z" clip-path="url(#clipPath3649)" transform="translate(-110,0)"/><path style="opacity:.16000001;fill:#000;fill-opacity:1;fill-rule:nonzero;stroke:none" id="path3709" d="m 14.089286,10 c -2.216,0 -4,1.784 -4,4 l 0,68 c 0,2.216 1.784,4 4,4 l 68,0 c 2.216,0 4,-1.784 4,-4 l 0,-68 c 0,-2.216 -1.784,-4 -4,-4 l -68,0 z m 0,2 68,0 c 1.140301,0 2,0.859699 2,2 l 0,68 c 0,1.140301 -0.859699,2 -2,2 l -68,0 c -1.140301,0 -2,-0.859699 -2,-2 l 0,-68 c 0,-1.140301 0.859699,-2 2,-2 z"/><path style="opacity:.36000001;fill:#000;fill-opacity:1;fill-rule:nonzero;stroke:none" id="path3707" d="m 14,10 c -2.216,0 -4,1.784 -4,4 l 0,68 c 0,2.216 1.784,4 4,4 l 68,0 c 2.216,0 4,-1.784 4,-4 l 0,-68 c 0,-2.216 -1.784,-4 -4,-4 l -68,0 z m 0,1 68,0 c 1.673848,0 3,1.326152 3,3 l 0,68 c 0,1.673848 -1.326152,3 -3,3 l -68,0 c -1.673848,0 -3,-1.326152 -3,-3 l 0,-68 c 0,-1.673848 1.326152,-3 3,-3 z"/></g><g id="layer4" style="display:inline"><rect style="opacity:.6;fill:#000;fill-opacity:1;fill-rule:nonzero;stroke:none;display:inline" id="rect2419-9" width="84" height="84" x="6" y="6" rx="6" ry="6"/><path style="opacity:.01000001;fill:url(#linearGradient3188-8);fill-opacity:1;fill-rule:nonzero;stroke:none;display:inline" id="rect3728-4" d="M 12,6 C 8.676,6 6,8.676 6,12 l 0,2 0,68 0,2 c 0,0.334721 0.04135,0.6507 0.09375,0.96875 0.0487,0.295596 0.09704,0.596915 0.1875,0.875 0.00988,0.03038 0.020892,0.0636 0.03125,0.09375 0.098865,0.287771 0.2348802,0.547452 0.375,0.8125 0.1445918,0.273507 0.3156161,0.535615 0.5,0.78125 0.1843839,0.245635 0.3737765,0.473472 0.59375,0.6875 0.439947,0.428056 0.94291,0.814526 1.5,1.09375 0.278545,0.139612 0.5734731,0.246947 0.875,0.34375 -0.2562018,-0.100222 -0.4867109,-0.236272 -0.71875,-0.375 -0.00741,-0.0044 -0.023866,0.0045 -0.03125,0 -0.031933,-0.0193 -0.062293,-0.04251 -0.09375,-0.0625 -0.120395,-0.0767 -0.2310226,-0.163513 -0.34375,-0.25 -0.1061728,-0.0808 -0.2132809,-0.161112 -0.3125,-0.25 C 8.4783201,88.557317 8.3087904,88.373362 8.15625,88.1875 8.0486711,88.057245 7.9378561,87.922215 7.84375,87.78125 7.818661,87.74287 7.805304,87.69538 7.78125,87.65625 7.716487,87.553218 7.6510225,87.451733 7.59375,87.34375 7.4927417,87.149044 7.3880752,86.928049 7.3125,86.71875 7.30454,86.69694 7.288911,86.6782 7.28125,86.65625 7.2494249,86.5643 7.2454455,86.469419 7.21875,86.375 7.1884177,86.268382 7.1483606,86.171969 7.125,86.0625 7.0521214,85.720988 7,85.364295 7,85 L 7,83 7,15 7,13 C 7,10.218152 9.2181517,8 12,8 l 2,0 68,0 2,0 c 2.781848,0 5,2.218152 5,5 l 0,2 0,68 0,2 c 0,0.364295 -0.05212,0.720988 -0.125,1.0625 -0.04415,0.206893 -0.08838,0.397658 -0.15625,0.59375 -0.0077,0.02195 -0.0233,0.04069 -0.03125,0.0625 -0.06274,0.173739 -0.138383,0.367449 -0.21875,0.53125 -0.04158,0.0828 -0.07904,0.169954 -0.125,0.25 -0.0546,0.09721 -0.126774,0.18835 -0.1875,0.28125 -0.09411,0.140965 -0.204921,0.275995 -0.3125,0.40625 -0.143174,0.17445 -0.303141,0.346998 -0.46875,0.5 -0.01117,0.0102 -0.01998,0.02115 -0.03125,0.03125 -0.138386,0.125556 -0.285091,0.234436 -0.4375,0.34375 -0.102571,0.07315 -0.204318,0.153364 -0.3125,0.21875 -0.0074,0.0045 -0.02384,-0.0044 -0.03125,0 -0.232039,0.138728 -0.462548,0.274778 -0.71875,0.375 0.301527,-0.0968 0.596455,-0.204138 0.875,-0.34375 0.55709,-0.279224 1.060053,-0.665694 1.5,-1.09375 0.219973,-0.214028 0.409366,-0.441865 0.59375,-0.6875 0.184384,-0.245635 0.355408,-0.507743 0.5,-0.78125 0.14012,-0.265048 0.276135,-0.524729 0.375,-0.8125 0.01041,-0.03078 0.02133,-0.06274 0.03125,-0.09375 0.09046,-0.278085 0.1388,-0.579404 0.1875,-0.875 C 89.95865,84.6507 90,84.334721 90,84 l 0,-2 0,-68 0,-2 C 90,8.676 87.324,6 84,6 L 12,6 z"/><path id="path3615-6" d="M 12,90 C 8.676,90 6,87.324 6,84 L 6,82 6,14 6,12 c 0,-0.334721 0.04135,-0.6507 0.09375,-0.96875 0.0487,-0.295596 0.09704,-0.596915 0.1875,-0.875 C 6.29113,10.12587 6.302142,10.09265 6.3125,10.0625 6.411365,9.774729 6.5473802,9.515048 6.6875,9.25 6.8320918,8.976493 7.0031161,8.714385 7.1875,8.46875 7.3718839,8.223115 7.5612765,7.995278 7.78125,7.78125 8.221197,7.353194 8.72416,6.966724 9.28125,6.6875 9.559795,6.547888 9.8547231,6.440553 10.15625,6.34375 9.9000482,6.443972 9.6695391,6.580022 9.4375,6.71875 c -0.00741,0.0044 -0.023866,-0.0045 -0.03125,0 -0.031933,0.0193 -0.062293,0.04251 -0.09375,0.0625 -0.120395,0.0767 -0.2310226,0.163513 -0.34375,0.25 -0.1061728,0.0808 -0.2132809,0.161112 -0.3125,0.25 C 8.4783201,7.442683 8.3087904,7.626638 8.15625,7.8125 8.0486711,7.942755 7.9378561,8.077785 7.84375,8.21875 7.818661,8.25713 7.805304,8.30462 7.78125,8.34375 7.716487,8.446782 7.6510225,8.548267 7.59375,8.65625 7.4927417,8.850956 7.3880752,9.071951 7.3125,9.28125 7.30454,9.30306 7.288911,9.3218 7.28125,9.34375 7.2494249,9.4357 7.2454455,9.530581 7.21875,9.625 7.1884177,9.731618 7.1483606,9.828031 7.125,9.9375 7.0521214,10.279012 7,10.635705 7,11 l 0,2 0,68 0,2 c 0,2.781848 2.2181517,5 5,5 l 2,0 68,0 2,0 c 2.781848,0 5,-2.218152 5,-5 l 0,-2 0,-68 0,-2 C 89,10.635705 88.94788,10.279012 88.875,9.9375 88.83085,9.730607 88.78662,9.539842 88.71875,9.34375 88.71105,9.3218 88.69545,9.30306 88.6875,9.28125 88.62476,9.107511 88.549117,8.913801 88.46875,8.75 88.42717,8.6672 88.38971,8.580046 88.34375,8.5 88.28915,8.40279 88.216976,8.31165 88.15625,8.21875 88.06214,8.077785 87.951329,7.942755 87.84375,7.8125 87.700576,7.63805 87.540609,7.465502 87.375,7.3125 87.36383,7.3023 87.35502,7.29135 87.34375,7.28125 87.205364,7.155694 87.058659,7.046814 86.90625,6.9375 86.803679,6.86435 86.701932,6.784136 86.59375,6.71875 c -0.0074,-0.0045 -0.02384,0.0044 -0.03125,0 -0.232039,-0.138728 -0.462548,-0.274778 -0.71875,-0.375 0.301527,0.0968 0.596455,0.204138 0.875,0.34375 0.55709,0.279224 1.060053,0.665694 1.5,1.09375 0.219973,0.214028 0.409366,0.441865 0.59375,0.6875 0.184384,0.245635 0.355408,0.507743 0.5,0.78125 0.14012,0.265048 0.276135,0.524729 0.375,0.8125 0.01041,0.03078 0.02133,0.06274 0.03125,0.09375 0.09046,0.278085 0.1388,0.579404 0.1875,0.875 C 89.95865,11.3493 90,11.665279 90,12 l 0,2 0,68 0,2 c 0,3.324 -2.676,6 -6,6 l -72,0 z" style="opacity:.15;fill:url(#radialGradient3619-3);fill-opacity:1;fill-rule:nonzero;stroke:none;display:inline"/></g><g id="layer5" style="display:none"><rect style="opacity:.1;fill:url(#linearGradient3613);fill-opacity:1;fill-rule:nonzero;stroke:#fff;stroke-width:.5;stroke-linecap:round;stroke-linejoin:miter;stroke-miterlimit:4;stroke-opacity:1;stroke-dasharray:none;stroke-dashoffset:0;filter:url(#filter3794)" id="rect3171" width="66" height="66" x="15" y="15" clip-path="url(#clipPath3613)" rx="12" ry="12"/></g><g id="layer6" style="display:inline"><path style="opacity:.1;color:#000;fill:#000;fill-opacity:1;fill-rule:nonzero;stroke:none;stroke-width:2;marker:none;visibility:visible;display:inline;overflow:visible;enable-background:accumulate" id="path3914" d="m 33.5,21.9375 c -3.054908,0 -5.5625,2.507592 -5.5625,5.5625 l 0,22.5 c -5.3e-5,0.0039 -2.12e-4,0.12114 0,0.125 2.12e-4,0.0039 -4.77e-4,0.152414 0,0.15625 4.77e-4,0.0038 0.03051,0.121205 0.03125,0.125 7.39e-4,0.0038 0.03025,0.121265 0.03125,0.125 9.98e-4,0.0037 0.03,0.152592 0.03125,0.15625 0.0013,0.0037 0.061,0.121437 0.0625,0.125 0.0015,0.0036 0.06076,0.121548 0.0625,0.125 8.7e-4,0.0017 0.01473,0.03236 0.03125,0.0625 -0.01652,0.03014 -0.03038,0.06077 -0.03125,0.0625 -0.0017,0.0035 -0.061,0.121437 -0.0625,0.125 -0.0015,0.0036 -0.06125,0.121342 -0.0625,0.125 -0.0013,0.0037 -0.03025,0.152515 -0.03125,0.15625 -9.98e-4,0.0037 -0.03051,0.121205 -0.03125,0.125 -7.39e-4,0.0038 -0.03077,0.121164 -0.03125,0.125 -4.77e-4,0.0038 2.12e-4,0.15239 0,0.15625 -2.12e-4,0.0039 -5.3e-5,0.121135 0,0.125 l 0,5.9375 -5.9375,0 c -0.0028,-3e-5 -0.09095,-1.1e-4 -0.09375,0 -0.0028,1.1e-4 -0.09096,-2.49e-4 -0.09375,0 -0.0028,2.49e-4 -0.09098,-3.87e-4 -0.09375,0 -0.0028,3.87e-4 -0.12225,0.03073 -0.125,0.03125 C 21.591,57.969274 21.502721,57.99934 21.5,58 c -0.0027,6.6e-4 -0.09107,-7.95e-4 -0.09375,0 -0.0027,7.95e-4 -0.09111,0.03032 -0.09375,0.03125 -0.0026,9.27e-4 -0.09116,0.06144 -0.09375,0.0625 -0.0026,0.0011 -0.09121,0.03007 -0.09375,0.03125 -0.0025,0.0012 -0.09128,0.02994 -0.09375,0.03125 -0.0025,0.0013 -0.09134,0.06107 -0.09375,0.0625 -0.0024,0.0014 -0.09142,0.06095 -0.09375,0.0625 -0.0023,0.0015 -0.06025,0.06084 -0.0625,0.0625 -0.0023,0.0017 -0.09158,0.06073 -0.09375,0.0625 -0.0022,0.0018 -0.09167,0.06062 -0.09375,0.0625 -0.0021,0.0019 -0.06052,0.06052 -0.0625,0.0625 -0.002,0.002 -0.06062,0.06042 -0.0625,0.0625 -0.0019,0.0021 -0.06073,0.09158 -0.0625,0.09375 -0.0018,0.0022 -0.06084,0.0915 -0.0625,0.09375 -0.0017,0.0023 -0.06095,0.06017 -0.0625,0.0625 -0.0015,0.0023 -0.06107,0.09134 -0.0625,0.09375 -0.0014,0.0024 -0.06119,0.09128 -0.0625,0.09375 -0.0013,0.0025 -0.03007,0.09121 -0.03125,0.09375 -0.0012,0.0025 -0.03019,0.09116 -0.03125,0.09375 -0.0011,0.0026 -0.06157,0.09111 -0.0625,0.09375 -9.27e-4,0.0026 -0.03045,0.09107 -0.03125,0.09375 -7.95e-4,0.0027 6.6e-4,0.09103 0,0.09375 -6.6e-4,0.0027 -0.03073,0.091 -0.03125,0.09375 -5.24e-4,0.0027 -0.03086,0.122227 -0.03125,0.125 -3.87e-4,0.0028 2.49e-4,0.09096 0,0.09375 -2.49e-4,0.0028 1.1e-4,0.09095 0,0.09375 -1.1e-4,0.0028 -3e-5,0.09095 0,0.09375 l 0,8 c -3e-5,0.0028 -1.1e-4,0.09095 0,0.09375 1.1e-4,0.0028 -2.49e-4,0.09096 0,0.09375 2.49e-4,0.0028 -3.87e-4,0.09098 0,0.09375 3.87e-4,0.0028 0.03073,0.12225 0.03125,0.125 5.24e-4,0.0028 0.03059,0.09103 0.03125,0.09375 6.6e-4,0.0027 -7.95e-4,0.09107 0,0.09375 7.95e-4,0.0027 0.03032,0.09111 0.03125,0.09375 9.27e-4,0.0026 0.06144,0.09116 0.0625,0.09375 0.0011,0.0026 0.03007,0.09121 0.03125,0.09375 0.0012,0.0025 0.02994,0.09128 0.03125,0.09375 0.0013,0.0025 0.06107,0.09134 0.0625,0.09375 0.0014,0.0024 0.06095,0.09142 0.0625,0.09375 0.0015,0.0023 0.06084,0.06025 0.0625,0.0625 0.0017,0.0023 0.06073,0.09158 0.0625,0.09375 0.0018,0.0022 0.06062,0.09167 0.0625,0.09375 0.0019,0.0021 0.06052,0.06052 0.0625,0.0625 0.002,0.002 0.06042,0.06062 0.0625,0.0625 0.0021,0.0019 0.09158,0.06073 0.09375,0.0625 0.0022,0.0018 0.0915,0.06084 0.09375,0.0625 0.0023,0.0017 0.06017,0.06095 0.0625,0.0625 0.0023,0.0015 0.09134,0.06107 0.09375,0.0625 0.0024,0.0014 0.09128,0.06119 0.09375,0.0625 0.0025,0.0013 0.09121,0.03006 0.09375,0.03125 0.0025,0.0012 0.09116,0.03019 0.09375,0.03125 0.0026,0.0011 0.09111,0.06157 0.09375,0.0625 0.0026,9.27e-4 0.09107,0.03046 0.09375,0.03125 0.0027,7.95e-4 0.09103,-6.6e-4 0.09375,0 0.0027,6.6e-4 0.091,0.03073 0.09375,0.03125 0.0027,5.24e-4 0.122227,0.03086 0.125,0.03125 0.0028,3.87e-4 0.09096,-2.49e-4 0.09375,0 0.0028,2.49e-4 0.09095,-1.1e-4 0.09375,0 0.0028,1.1e-4 0.09095,3e-5 0.09375,0 l 5.9375,0 0,5.9375 c -3e-5,0.0028 -1.1e-4,0.09095 0,0.09375 1.1e-4,0.0028 -2.49e-4,0.09096 0,0.09375 2.49e-4,0.0028 -3.87e-4,0.09098 0,0.09375 3.87e-4,0.0028 0.03073,0.12225 0.03125,0.125 5.24e-4,0.0028 0.03059,0.09103 0.03125,0.09375 6.6e-4,0.0027 -7.95e-4,0.09107 0,0.09375 7.95e-4,0.0027 0.03032,0.09111 0.03125,0.09375 9.27e-4,0.0026 0.06144,0.09116 0.0625,0.09375 0.0011,0.0026 0.03007,0.09121 0.03125,0.09375 0.0012,0.0025 0.02994,0.09128 0.03125,0.09375 0.0013,0.0025 0.06107,0.09134 0.0625,0.09375 0.0014,0.0024 0.06095,0.09142 0.0625,0.09375 0.0015,0.0023 0.06084,0.06025 0.0625,0.0625 0.0017,0.0023 0.06073,0.09158 0.0625,0.09375 0.0018,0.0022 0.06062,0.09167 0.0625,0.09375 0.0019,0.0021 0.06052,0.06052 0.0625,0.0625 0.002,0.002 0.06042,0.06062 0.0625,0.0625 0.0021,0.0019 0.09158,0.06073 0.09375,0.0625 0.0022,0.0018 0.0915,0.06084 0.09375,0.0625 0.0023,0.0017 0.06017,0.06095 0.0625,0.0625 0.0023,0.0015 0.09134,0.06107 0.09375,0.0625 0.0024,0.0014 0.09128,0.06119 0.09375,0.0625 0.0025,0.0013 0.09121,0.03006 0.09375,0.03125 0.0025,0.0012 0.09116,0.03019 0.09375,0.03125 0.0026,0.0011 0.09111,0.06157 0.09375,0.0625 0.0026,9.27e-4 0.09107,0.03046 0.09375,0.03125 0.0027,7.95e-4 0.09103,-6.6e-4 0.09375,0 0.0027,6.6e-4 0.091,0.03073 0.09375,0.03125 0.0027,5.24e-4 0.122227,0.03086 0.125,0.03125 0.0028,3.87e-4 0.09096,-2.49e-4 0.09375,0 0.0028,2.49e-4 0.09095,-1.1e-4 0.09375,0 0.0028,1.1e-4 0.09095,3e-5 0.09375,0 l 8,0 c 0.0028,3e-5 0.09095,1.1e-4 0.09375,0 0.0028,-1.1e-4 0.09096,2.49e-4 0.09375,0 0.0028,-2.49e-4 0.09098,3.87e-4 0.09375,0 0.0028,-3.87e-4 0.12225,-0.03073 0.125,-0.03125 C 38.409,78.030726 38.497279,78.00066 38.5,78 c 0.0027,-6.6e-4 0.09107,7.95e-4 0.09375,0 0.0027,-7.95e-4 0.09111,-0.03032 0.09375,-0.03125 0.0026,-9.27e-4 0.09116,-0.06144 0.09375,-0.0625 0.0026,-0.0011 0.09121,-0.03006 0.09375,-0.03125 0.0025,-0.0012 0.09128,-0.02994 0.09375,-0.03125 0.0025,-0.0013 0.09134,-0.06107 0.09375,-0.0625 0.0024,-0.0014 0.09142,-0.06095 0.09375,-0.0625 0.0023,-0.0015 0.06025,-0.06084 0.0625,-0.0625 0.0023,-0.0017 0.09158,-0.06073 0.09375,-0.0625 0.0022,-0.0018 0.09167,-0.06062 0.09375,-0.0625 0.0021,-0.0019 0.06052,-0.06052 0.0625,-0.0625 0.002,-0.002 0.06062,-0.06042 0.0625,-0.0625 0.0019,-0.0021 0.06073,-0.09158 0.0625,-0.09375 0.0018,-0.0022 0.06084,-0.0915 0.0625,-0.09375 0.0017,-0.0023 0.06095,-0.06017 0.0625,-0.0625 0.0015,-0.0023 0.06107,-0.09134 0.0625,-0.09375 0.0014,-0.0024 0.06119,-0.09128 0.0625,-0.09375 0.0013,-0.0025 0.03007,-0.09121 0.03125,-0.09375 0.0012,-0.0025 0.03019,-0.09116 0.03125,-0.09375 0.0011,-0.0026 0.06157,-0.09111 0.0625,-0.09375 9.27e-4,-0.0026 0.03046,-0.09107 0.03125,-0.09375 7.95e-4,-0.0027 -6.6e-4,-0.09103 0,-0.09375 6.6e-4,-0.0027 0.03073,-0.091 0.03125,-0.09375 5.24e-4,-0.0028 0.03086,-0.122227 0.03125,-0.125 3.87e-4,-0.0028 -2.49e-4,-0.09096 0,-0.09375 2.49e-4,-0.0028 -1.1e-4,-0.09095 0,-0.09375 1.1e-4,-0.0028 3e-5,-0.09095 0,-0.09375 l 0,-5.9375 5.9375,0 c 0.0039,5.3e-5 0.12114,2.12e-4 0.125,0 0.0039,-2.12e-4 0.152414,4.77e-4 0.15625,0 0.0038,-4.77e-4 0.121205,-0.03051 0.125,-0.03125 0.0038,-7.39e-4 0.121265,-0.03025 0.125,-0.03125 0.0037,-9.98e-4 0.152592,-0.03 0.15625,-0.03125 0.0037,-0.0013 0.121437,-0.061 0.125,-0.0625 0.0036,-0.0015 0.121548,-0.06076 0.125,-0.0625 0.0017,-8.7e-4 0.03236,-0.01473 0.0625,-0.03125 0.03014,0.01652 0.06077,0.03038 0.0625,0.03125 0.0035,0.0017 0.121437,0.061 0.125,0.0625 0.0036,0.0015 0.121342,0.06125 0.125,0.0625 0.0037,0.0013 0.152515,0.03025 0.15625,0.03125 0.0037,9.98e-4 0.121205,0.03051 0.125,0.03125 0.0038,7.39e-4 0.121164,0.03077 0.125,0.03125 0.0038,4.77e-4 0.15239,-2.12e-4 0.15625,0 0.0039,2.12e-4 0.121135,5.3e-5 0.125,0 l 14.5,0 c 3.054908,0 5.5625,-2.507592 5.5625,-5.5625 l 0,-37 c 0,-3.054908 -2.507592,-5.5625 -5.5625,-5.5625 l -29,0 z m 4.5625,10.125 19.875,0 0,27.875 -9.875,0 c -2.2e-4,-0.01485 3.7e-5,-0.03032 0,-0.03125 -1.1e-4,-0.0028 2.49e-4,-0.09096 0,-0.09375 -2.49e-4,-0.0028 3.87e-4,-0.09098 0,-0.09375 -3.87e-4,-0.0028 -0.03073,-0.12225 -0.03125,-0.125 C 48.030726,59.591 48.00066,59.502721 48,59.5 c -6.6e-4,-0.0027 7.95e-4,-0.09107 0,-0.09375 -7.95e-4,-0.0027 -0.03032,-0.09111 -0.03125,-0.09375 -9.27e-4,-0.0026 -0.06144,-0.09116 -0.0625,-0.09375 -0.0011,-0.0026 -0.03007,-0.09121 -0.03125,-0.09375 -0.0012,-0.0025 -0.02994,-0.09128 -0.03125,-0.09375 -0.0013,-0.0025 -0.06107,-0.09134 -0.0625,-0.09375 -0.0014,-0.0024 -0.06095,-0.09142 -0.0625,-0.09375 -0.0015,-0.0023 -0.06084,-0.06025 -0.0625,-0.0625 -0.0017,-0.0023 -0.06073,-0.09158 -0.0625,-0.09375 -0.0018,-0.0022 -0.06062,-0.09167 -0.0625,-0.09375 -0.0019,-0.0021 -0.06052,-0.06052 -0.0625,-0.0625 -0.002,-0.002 -0.06042,-0.06062 -0.0625,-0.0625 -0.0021,-0.0019 -0.09158,-0.06073 -0.09375,-0.0625 -0.0022,-0.0018 -0.0915,-0.06084 -0.09375,-0.0625 -0.0023,-0.0017 -0.06017,-0.06095 -0.0625,-0.0625 -0.0023,-0.0015 -0.09134,-0.06107 -0.09375,-0.0625 -0.0024,-0.0014 -0.09128,-0.06119 -0.09375,-0.0625 -0.0025,-0.0013 -0.09121,-0.03007 -0.09375,-0.03125 -0.0025,-0.0012 -0.09116,-0.03019 -0.09375,-0.03125 -0.0026,-0.0011 -0.09111,-0.06157 -0.09375,-0.0625 -0.0026,-9.27e-4 -0.09107,-0.03046 -0.09375,-0.03125 -0.0027,-7.95e-4 -0.09103,6.6e-4 -0.09375,0 -0.0027,-6.6e-4 -0.091,-0.03073 -0.09375,-0.03125 -0.0027,-5.24e-4 -0.122227,-0.03086 -0.125,-0.03125 -0.0028,-3.87e-4 -0.09096,2.49e-4 -0.09375,0 -0.0028,-2.49e-4 -0.09095,1.1e-4 -0.09375,0 -0.0028,-1.1e-4 -0.09095,-3e-5 -0.09375,0 l -5.9375,0 0,-5.9375 c 3e-5,-0.0028 1.1e-4,-0.09095 0,-0.09375 -1.1e-4,-0.0028 2.49e-4,-0.09096 0,-0.09375 -2.49e-4,-0.0028 3.87e-4,-0.09098 0,-0.09375 -3.87e-4,-0.0028 -0.03073,-0.12225 -0.03125,-0.125 C 40.030726,51.591 40.00066,51.502721 40,51.5 c -6.6e-4,-0.0027 7.95e-4,-0.09107 0,-0.09375 -7.95e-4,-0.0027 -0.03032,-0.09111 -0.03125,-0.09375 -9.27e-4,-0.0026 -0.06144,-0.09116 -0.0625,-0.09375 -0.0011,-0.0026 -0.03007,-0.09121 -0.03125,-0.09375 -0.0012,-0.0025 -0.02994,-0.09128 -0.03125,-0.09375 -0.0013,-0.0025 -0.06107,-0.09134 -0.0625,-0.09375 -0.0014,-0.0024 -0.06095,-0.09142 -0.0625,-0.09375 -0.0015,-0.0023 -0.06084,-0.06025 -0.0625,-0.0625 -0.0017,-0.0023 -0.06073,-0.09158 -0.0625,-0.09375 -0.0018,-0.0022 -0.06062,-0.09167 -0.0625,-0.09375 -0.0019,-0.0021 -0.06052,-0.06052 -0.0625,-0.0625 -0.002,-0.002 -0.06042,-0.06062 -0.0625,-0.0625 -0.0021,-0.0019 -0.09158,-0.06073 -0.09375,-0.0625 -0.0022,-0.0018 -0.0915,-0.06084 -0.09375,-0.0625 -0.0023,-0.0017 -0.06017,-0.06095 -0.0625,-0.0625 -0.0023,-0.0015 -0.09134,-0.06107 -0.09375,-0.0625 -0.0024,-0.0014 -0.09128,-0.06119 -0.09375,-0.0625 -0.0025,-0.0013 -0.09121,-0.03007 -0.09375,-0.03125 -0.0025,-0.0012 -0.09116,-0.03019 -0.09375,-0.03125 -0.0026,-0.0011 -0.09111,-0.06157 -0.09375,-0.0625 -0.0026,-9.27e-4 -0.09107,-0.03046 -0.09375,-0.03125 -0.0027,-7.95e-4 -0.09103,6.6e-4 -0.09375,0 -0.0027,-6.6e-4 -0.091,-0.03073 -0.09375,-0.03125 -0.0027,-5.24e-4 -0.122227,-0.03086 -0.125,-0.03125 -0.0028,-3.87e-4 -0.09096,2.49e-4 -0.09375,0 -0.0028,-2.49e-4 -0.09095,1.1e-4 -0.09375,0 -9.32e-4,-3.7e-5 -0.0164,2.2e-4 -0.03125,0 l 0,-17.875 z" transform="translate(0,1)"/><path style="opacity:.15;color:#000;fill:#000;fill-opacity:1;fill-rule:nonzero;stroke:none;stroke-width:2;marker:none;visibility:visible;display:inline;overflow:visible;enable-background:accumulate" id="path3903" d="m 33.5,22.875 c -2.536447,0 -4.625,2.088553 -4.625,4.625 l 0,22.5 a 1.1132923,1.1132923 0 0 0 0.625,1 1.1132923,1.1132923 0 0 0 -0.625,1 l 0,6.875 -6.875,0 A 1.1132923,1.1132923 0 0 0 20.875,60 l 0,8 A 1.1132923,1.1132923 0 0 0 22,69.125 l 6.875,0 0,6.875 A 1.1132923,1.1132923 0 0 0 30,77.125 l 8,0 A 1.1132923,1.1132923 0 0 0 39.125,76 l 0,-6.875 6.875,0 a 1.1132923,1.1132923 0 0 0 1,-0.625 1.1132923,1.1132923 0 0 0 1,0.625 l 14.5,0 c 2.536447,0 4.625,-2.088553 4.625,-4.625 l 0,-37 c 0,-2.536447 -2.088553,-4.625 -4.625,-4.625 l -29,0 z m 4.5,8.25 20,0 c 0.510553,0 0.875,0.364447 0.875,0.875 l 0,28 c 0,0.510553 -0.364447,0.875 -0.875,0.875 l -10,0 a 1.1132923,1.1132923 0 0 0 -0.875,0.4375 L 47.125,60 A 1.1132923,1.1132923 0 0 0 46,58.875 l -6.875,0 0,-6.875 A 1.1132923,1.1132923 0 0 0 38,50.875 l -1.3125,0 A 1.1132923,1.1132923 0 0 0 37.125,50 l 0,-18 c 0,-0.510553 0.364447,-0.875 0.875,-0.875 z" transform="translate(0,1)"/><path id="path3908" d="M 33.5,25 C 31.561,25 30,26.561 30,28.5 l 0,22.5 6,0 0,-18 c 0,-1.108 0.892,-2 2,-2 l 20,0 c 1.108,0 2,0.892 2,2 l 0,28 c 0,1.108 -0.892,2 -2,2 l -10,0 0,6 14.5,0 c 1.939,0 3.5,-1.561 3.5,-3.5 l 0,-37 C 66,26.561 64.439,25 62.5,25 l -29,0 z m -3.5,28 0,8 -8,0 0,8 8,0 0,8 8,0 0,-8 8,0 0,-8 -8,0 0,-8 -8,0 z" style="color:#000;fill:#000;fill-opacity:1;fill-rule:nonzero;stroke:none;stroke-width:2;marker:none;visibility:visible;display:inline;overflow:visible;enable-background:accumulate;opacity:.3"/><rect style="color:#000;fill:url(#linearGradient3905);fill-opacity:1;fill-rule:nonzero;stroke:none;stroke-width:2;marker:none;visibility:visible;display:inline;overflow:visible;enable-background:accumulate" id="rect3897" width="16" height="16" x="0" y="104" transform="matrix(0,1,1,0,0,0)"/><text style="font-size:4px;font-style:normal;font-variant:normal;font-weight:400;font-stretch:normal;text-align:start;line-height:125%;letter-spacing:0;word-spacing:0;writing-mode:lr-tb;text-anchor:start;fill:#000;fill-opacity:1;stroke:none;font-family:Liberation Sans;-inkscape-font-specification:Liberation Sans" id="text3907" x="104" y="48" xml:space="preserve"><tspan id="tspan3909" x="104" y="48">Shadow opacity : 30, 15, 10, (8)</tspan></text><rect id="rect3911" width="16" height="16" x="-40" y="104" transform="matrix(0,-1,1,0,0,0)" style="color:#000;fill:url(#linearGradient3913);fill-opacity:1;fill-rule:nonzero;stroke:none;stroke-width:2;marker:none;visibility:visible;display:inline;overflow:visible;enable-background:accumulate"/><text id="text3951" x="124" y="32" xml:space="preserve" style="font-size:4px;font-style:normal;font-variant:normal;font-weight:400;font-stretch:normal;text-align:start;line-height:125%;letter-spacing:0;word-spacing:0;writing-mode:lr-tb;text-anchor:start;fill:#000;fill-opacity:1;stroke:none;font-family:Liberation Sans;-inkscape-font-specification:Liberation Sans"><tspan id="tspan3953" x="124" y="32">Bevel opacity : 30 / 10</tspan></text><text style="font-size:4px;font-style:normal;font-variant:normal;font-weight:400;font-stretch:normal;text-align:start;line-height:125%;letter-spacing:0;word-spacing:0;writing-mode:lr-tb;text-anchor:start;fill:#000;fill-opacity:1;stroke:none;font-family:Liberation Sans;-inkscape-font-specification:Liberation Sans" id="text3955" x="124" y="8" xml:space="preserve"><tspan id="tspan3957" x="124" y="8">Bevel opacity : 75 / 15</tspan></text><path style="opacity:1;color:#000;fill:url(#linearGradient3879);fill-opacity:1;fill-rule:nonzero;stroke:none;stroke-width:2;marker:none;visibility:visible;display:inline;overflow:visible;enable-background:accumulate" id="rect3083" d="M 33.5,24 C 31.561,24 30,25.561 30,27.5 l 0,22.5 6,0 0,-18 c 0,-1.108 0.892,-2 2,-2 l 20,0 c 1.108,0 2,0.892 2,2 l 0,28 c 0,1.108 -0.892,2 -2,2 l -10,0 0,6 14.5,0 c 1.939,0 3.5,-1.561 3.5,-3.5 l 0,-37 C 66,25.561 64.439,24 62.5,24 l -29,0 z m -3.5,28 0,8 -8,0 0,8 8,0 0,8 8,0 0,-8 8,0 0,-8 -8,0 0,-8 -8,0 z"/><path style="opacity:.75;color:#000;fill:#fff;fill-opacity:1;fill-rule:nonzero;stroke:none;stroke-width:2;marker:none;visibility:visible;display:inline;overflow:visible;enable-background:accumulate" id="path3881" d="M 33.5 24 C 31.561 24 30 25.561 30 27.5 L 30 28.5 C 30 26.561 31.561 25 33.5 25 L 62.5 25 C 64.439 25 66 26.561 66 28.5 L 66 27.5 C 66 25.561 64.439 24 62.5 24 L 33.5 24 z M 30 52 L 30 53 L 38 53 L 38 52 L 30 52 z M 22 60 L 22 61 L 30 61 L 30 60 L 22 60 z M 38 60 L 38 61 L 46 61 L 46 60 L 38 60 z M 60 60 C 60 61.108 59.108 62 58 62 L 48 62 L 48 63 L 58 63 C 59.108 63 60 62.108 60 61 L 60 60 z"/><path style="opacity:.15;color:#000;fill:#000;fill-opacity:1;fill-rule:nonzero;stroke:none;stroke-width:2;marker:none;visibility:visible;display:inline;overflow:visible;enable-background:accumulate" id="path3890" d="M 38 29 C 36.892 29 36 29.892 36 31 L 36 32 C 36 30.892 36.892 30 38 30 L 58 30 C 59.108 30 60 30.892 60 32 L 60 31 C 60 29.892 59.108 29 58 29 L 38 29 z M 30 49 L 30 50 L 36 50 L 36 49 L 30 49 z M 66 63.5 C 66 65.439 64.439 67 62.5 67 L 48 67 L 48 68 L 62.5 68 C 64.439 68 66 66.439 66 64.5 L 66 63.5 z M 22 67 L 22 68 L 30 68 L 30 67 L 22 67 z M 38 67 L 38 68 L 46 68 L 46 67 L 38 67 z M 30 75 L 30 76 L 38 76 L 38 75 L 30 75 z"/></g></svg>