<svg xmlns="http://www.w3.org/2000/svg" xmlns:svg="http://www.w3.org/2000/svg" xmlns:xlink="http://www.w3.org/1999/xlink" id="svg2408" width="96" height="96" version="1.0" style="display:inline"><defs id="defs2410"><linearGradient id="linearGradient3637"><stop style="stop-color:#f0f0f0;stop-opacity:1" id="stop3639" offset="0"/><stop style="stop-color:#dcdcdc;stop-opacity:1" id="stop3641" offset="1"/></linearGradient><linearGradient id="ButtonShadow" x1="45.448" x2="45.448" y1="92.54" y2="7.017" gradientTransform="scale(1.0058652,0.994169)" gradientUnits="userSpaceOnUse"><stop style="stop-color:#000;stop-opacity:1" id="stop3750" offset="0"/><stop style="stop-color:#000;stop-opacity:.58823532" id="stop3752" offset="1"/></linearGradient><linearGradient id="linearGradient3737"><stop style="stop-color:#fff;stop-opacity:1" id="stop3739" offset="0"/><stop style="stop-color:#fff;stop-opacity:0" id="stop3741" offset="1"/></linearGradient><linearGradient id="linearGradient3700"><stop style="stop-color:#2276c5;stop-opacity:1" id="stop3702" offset="0"/><stop style="stop-color:#68baf4;stop-opacity:1" id="stop3704" offset="1"/></linearGradient><linearGradient id="linearGradient3706" x1="48" x2="48" y1="90" y2="5.988" gradientUnits="userSpaceOnUse" xlink:href="#linearGradient3700"/><linearGradient id="linearGradient3743" x1="36.357" x2="36.357" y1="6" y2="63.893" gradientUnits="userSpaceOnUse" xlink:href="#linearGradient3737"/><filter id="filter3174" color-interpolation-filters="sRGB"><feGaussianBlur id="feGaussianBlur3176" stdDeviation="1.71"/></filter><linearGradient id="linearGradient3188" x1="36.357" x2="36.357" y1="6" y2="63.893" gradientUnits="userSpaceOnUse" xlink:href="#linearGradient3737"/><linearGradient id="linearGradient3613" x1="48" x2="48" y1="20.221" y2="138.661" gradientUnits="userSpaceOnUse" xlink:href="#linearGradient3737"/><radialGradient id="radialGradient3619" cx="48" cy="90.172" r="42" fx="48" fy="90.172" gradientTransform="matrix(1.1573129,0,0,0.99590774,-7.5510206,0.19713193)" gradientUnits="userSpaceOnUse" xlink:href="#linearGradient3737"/><clipPath id="clipPath3613" clipPathUnits="userSpaceOnUse"><rect id="rect3615" width="84" height="84" x="6" y="6" rx="6" ry="6" style="fill:#fff;fill-opacity:1;fill-rule:nonzero;stroke:none"/></clipPath><linearGradient id="linearGradient2843" x1="48" x2="48" y1="90" y2="5.988" gradientTransform="translate(0,100)" gradientUnits="userSpaceOnUse" xlink:href="#linearGradient3700"/><linearGradient id="linearGradient2848" x1="48" x2="48" y1="90" y2="5.988" gradientUnits="userSpaceOnUse" xlink:href="#linearGradient3700"/><clipPath id="clipPath3625" clipPathUnits="userSpaceOnUse"><path style="fill:#fff;fill-opacity:1;stroke:none" id="path3627" d="M 0,0 0,96 96,96 96,0 0,0 z m 12,6 72,0 c 3.324,0 6,2.676 6,6 l 0,72 c 0,3.324 -2.676,6 -6,6 L 12,90 C 8.676,90 6,87.324 6,84 L 6,12 C 6,8.676 8.676,6 12,6 z"/></clipPath><linearGradient id="linearGradient3643" x1="44.512" x2="44.512" y1="6" y2="90.015" gradientUnits="userSpaceOnUse" xlink:href="#linearGradient3637"/><clipPath id="clipPath3649" clipPathUnits="userSpaceOnUse"><rect style="fill:#fff;fill-opacity:1;fill-rule:nonzero;stroke:none" id="rect3651" width="76" height="76" x="10" y="10" rx="4" ry="4"/></clipPath><filter id="filter3657" color-interpolation-filters="sRGB"><feGaussianBlur id="feGaussianBlur3659" stdDeviation="1.14"/></filter><clipPath id="clipPath3697" clipPathUnits="userSpaceOnUse"><rect style="fill:red;fill-opacity:1;fill-rule:nonzero;stroke:none" id="rect3699" width="76" height="76" x="10" y="10" rx="4" ry="4"/></clipPath><linearGradient id="linearGradient3804" x1="20.759" x2="20.759" y1="1" y2="45.017" gradientTransform="matrix(1.2790652,0,0,1.2790652,17.302433,18.5815)" gradientUnits="userSpaceOnUse" xlink:href="#linearGradient3309"/><linearGradient id="linearGradient3309" x1="63.999" x2="63.999" y1="3.1" y2="122.899" gradientUnits="userSpaceOnUse"><stop style="stop-color:#f6f6f6;stop-opacity:1" id="stop3311" offset="0"/><stop style="stop-color:#d2d2d2;stop-opacity:1" id="stop3313" offset="1"/></linearGradient><linearGradient id="linearGradient3806" x1="37.201" x2="37.201" y1="1" y2="45" gradientTransform="matrix(1.2790652,0,0,1.2790652,17.302433,18.5815)" gradientUnits="userSpaceOnUse" xlink:href="#linearGradient3397"/><linearGradient id="linearGradient3397"><stop style="stop-color:#aaa;stop-opacity:1" id="stop3399" offset="0"/><stop style="stop-color:#8c8c8c;stop-opacity:1" id="stop3401" offset="1"/></linearGradient><linearGradient id="linearGradient2940" x1="20.759" x2="20.759" y1="1" y2="45.017" gradientTransform="matrix(1.2790652,0,0,1.2790652,17.302433,18.5815)" gradientUnits="userSpaceOnUse" xlink:href="#linearGradient3309"/><linearGradient id="linearGradient3665" x1="20.759" x2="20.759" y1="1" y2="45.017" gradientTransform="matrix(0.93022994,0,0,-0.93022994,23.674475,61.395341)" gradientUnits="userSpaceOnUse" xlink:href="#linearGradient4081"/><linearGradient id="linearGradient3669" x1="20.759" x2="20.759" y1="1" y2="45.017" gradientTransform="matrix(0.47268421,0.12665535,0.12665535,-0.47268421,44.47921,74.733655)" gradientUnits="userSpaceOnUse" xlink:href="#linearGradient4081"/><linearGradient id="linearGradient3180" x1="-13" x2="-13" y1="17.009" y2="-.7" gradientUnits="userSpaceOnUse" xlink:href="#linearGradient4081"/><linearGradient id="linearGradient4081"><stop style="stop-color:#aaa;stop-opacity:1" id="stop4083" offset="0"/><stop style="stop-color:#f0f0f0;stop-opacity:1" id="stop4085" offset="1"/></linearGradient><linearGradient id="linearGradient2851" x1="-13" x2="-13" y1="17.009" y2="-.7" gradientUnits="userSpaceOnUse" xlink:href="#linearGradient4081"/><linearGradient id="linearGradient3692" x1="20.759" x2="20.759" y1="1" y2="45.017" gradientTransform="matrix(0.93022994,0,0,-0.93022994,23.674475,61.395341)" gradientUnits="userSpaceOnUse" xlink:href="#linearGradient4081"/><linearGradient id="linearGradient3697" x1="20.759" x2="20.759" y1="1" y2="45.017" gradientTransform="matrix(0.93022994,0,0,-0.93022994,23.674475,61.395341)" gradientUnits="userSpaceOnUse" xlink:href="#linearGradient4081"/><linearGradient id="linearGradient3701" x1="20.759" x2="20.759" y1="1" y2="45.017" gradientTransform="matrix(0.93022994,0,0,-0.93022994,23.674475,61.395341)" gradientUnits="userSpaceOnUse" xlink:href="#linearGradient4081"/><linearGradient id="linearGradient3720" x1="20.759" x2="20.759" y1="1" y2="45.017" gradientTransform="matrix(0.93022994,0,0,-0.93022994,23.674475,61.395341)" gradientUnits="userSpaceOnUse" xlink:href="#linearGradient4081"/><linearGradient id="linearGradient3725" x1="20.759" x2="20.759" y1="1" y2="45.017" gradientTransform="matrix(0.93022994,0,0,-0.93022994,23.674475,62.395341)" gradientUnits="userSpaceOnUse" xlink:href="#linearGradient4081"/><linearGradient id="linearGradient3727" x1="20.759" x2="20.759" y1="1" y2="45.017" gradientTransform="matrix(0.93022994,0,0,-0.93022994,23.674475,61.395341)" gradientUnits="userSpaceOnUse" xlink:href="#linearGradient4081"/><linearGradient id="linearGradient3708" x1="29.827" x2="65.694" y1="51.954" y2="51.954" gradientTransform="matrix(0,1,-1,0,96,0)" gradientUnits="userSpaceOnUse" xlink:href="#StandardGradient"/><linearGradient id="StandardGradient" x1="11.347" x2="11.347" y1="6" y2="16.013" gradientTransform="translate(-3,-2.9995677)" gradientUnits="userSpaceOnUse"><stop id="stop3177" offset="0" style="stop-color:#000;stop-opacity:.86274511"/><stop id="stop3179" offset="1" style="stop-color:#000;stop-opacity:.47058824"/></linearGradient><linearGradient id="linearGradient3831" x1="29.827" x2="65.694" y1="51.954" y2="51.954" gradientTransform="matrix(0,-1,-1,0,96,97)" gradientUnits="userSpaceOnUse" xlink:href="#linearGradient4081"/><linearGradient id="linearGradient3833" x1="29.827" x2="65.694" y1="51.954" y2="51.954" gradientTransform="matrix(0,-1,-1,0,96,96)" gradientUnits="userSpaceOnUse" xlink:href="#linearGradient4081"/><linearGradient id="linearGradient3682" x1="29.827" x2="65.694" y1="51.954" y2="51.954" gradientTransform="matrix(0,-1,-1,0,96,96)" gradientUnits="userSpaceOnUse" xlink:href="#linearGradient4081"/><linearGradient id="linearGradient3699" x1="29.827" x2="65.694" y1="51.954" y2="51.954" gradientTransform="matrix(0,-1,-1,0,96,96)" gradientUnits="userSpaceOnUse" xlink:href="#linearGradient4081"/><linearGradient id="linearGradient3712" x1="29.827" x2="65.694" y1="51.954" y2="51.954" gradientTransform="matrix(0,-1,-1,0,96,97)" gradientUnits="userSpaceOnUse" xlink:href="#linearGradient4081"/><linearGradient id="linearGradient3714" x1="29.827" x2="65.694" y1="51.954" y2="51.954" gradientTransform="matrix(0,-1,-1,0,96,96)" gradientUnits="userSpaceOnUse" xlink:href="#linearGradient4081"/><linearGradient id="linearGradient3708-7" x1="29.827" x2="65.694" y1="51.954" y2="51.954" gradientTransform="matrix(0,1,-1,0,96,0)" gradientUnits="userSpaceOnUse" xlink:href="#StandardGradient-8"/><linearGradient id="StandardGradient-8" x1="11.347" x2="11.347" y1="6" y2="16.013" gradientTransform="translate(-3,-2.9995677)" gradientUnits="userSpaceOnUse"><stop id="stop3177-6" offset="0" style="stop-color:#000;stop-opacity:.86274511"/><stop id="stop3179-8" offset="1" style="stop-color:#000;stop-opacity:.47058824"/></linearGradient><linearGradient id="linearGradient2947" x1="29.827" x2="65.694" y1="51.954" y2="51.954" gradientTransform="matrix(0,1,-1,0,183,0)" gradientUnits="userSpaceOnUse" xlink:href="#StandardGradient-8"/><linearGradient id="linearGradient3728" x1="56" x2="56" y1="72" y2="24" gradientUnits="userSpaceOnUse" xlink:href="#linearGradient4081"/><linearGradient id="linearGradient3710" x1="24" x2="72" y1="48" y2="48" gradientTransform="matrix(0,-1,1,0,0,96)" gradientUnits="userSpaceOnUse" xlink:href="#linearGradient4081"/><linearGradient id="linearGradient3716" x1="24" x2="72" y1="48" y2="48" gradientTransform="matrix(0,-1,1,0,0,97)" gradientUnits="userSpaceOnUse" xlink:href="#linearGradient4081"/><linearGradient id="linearGradient3718" x1="24" x2="72" y1="48" y2="48" gradientTransform="matrix(0,-1,1,0,0,96)" gradientUnits="userSpaceOnUse" xlink:href="#linearGradient4081"/><linearGradient id="linearGradient3723" x1="24" x2="72" y1="48" y2="48" gradientTransform="matrix(0,-1,1,0,0,96)" gradientUnits="userSpaceOnUse" xlink:href="#linearGradient4081"/><linearGradient id="linearGradient3729" x1="24" x2="72" y1="48" y2="48" gradientTransform="matrix(0,-1,1,0,0,95)" gradientUnits="userSpaceOnUse" xlink:href="#linearGradient4081"/><linearGradient id="linearGradient3709" x1="27" x2="69" y1="48" y2="48" gradientTransform="matrix(0,-1,1,0,0,97)" gradientUnits="userSpaceOnUse" xlink:href="#linearGradient4081"/><linearGradient id="linearGradient3711" x1="27" x2="69" y1="48" y2="48" gradientTransform="matrix(0,-1,1,0,0,96)" gradientUnits="userSpaceOnUse" xlink:href="#linearGradient4081"/><linearGradient id="linearGradient3719" x1="27" x2="69" y1="48" y2="48" gradientTransform="matrix(0,-1,1,0,0,95)" gradientUnits="userSpaceOnUse" xlink:href="#linearGradient4081"/><linearGradient id="linearGradient3721" x1="27" x2="69" y1="48" y2="48" gradientTransform="matrix(0,-1,1,0,0,96)" gradientUnits="userSpaceOnUse" xlink:href="#linearGradient4081"/><linearGradient id="linearGradient3750" x1="49" x2="49" y1="70" y2="23.729" gradientUnits="userSpaceOnUse" xlink:href="#linearGradient4081"/><linearGradient id="linearGradient3800" x1="49" x2="49" y1="70" y2="23.729" gradientUnits="userSpaceOnUse" xlink:href="#linearGradient4081"/><linearGradient id="linearGradient3803" x1="49" x2="49" y1="70" y2="23.729" gradientUnits="userSpaceOnUse" xlink:href="#linearGradient4081"/><linearGradient id="linearGradient3808" x1="49" x2="49" y1="70" y2="23.729" gradientTransform="translate(0,-10)" gradientUnits="userSpaceOnUse" xlink:href="#linearGradient4081"/><linearGradient id="linearGradient3812" x1="49" x2="49" y1="70" y2="23.729" gradientTransform="translate(0,-30)" gradientUnits="userSpaceOnUse" xlink:href="#linearGradient4081"/><linearGradient id="linearGradient3816" x1="49" x2="49" y1="70" y2="23.729" gradientTransform="translate(0,-40)" gradientUnits="userSpaceOnUse" xlink:href="#linearGradient4081"/><linearGradient id="linearGradient3818" x1="49" x2="49" y1="70" y2="23.729" gradientUnits="userSpaceOnUse" xlink:href="#linearGradient4081"/><linearGradient id="linearGradient3825" x1="49" x2="49" y1="70" y2="23.729" gradientTransform="translate(0,1)" gradientUnits="userSpaceOnUse" xlink:href="#linearGradient4081"/><linearGradient id="linearGradient3827" x1="49" x2="49" y1="70" y2="23.729" gradientUnits="userSpaceOnUse" xlink:href="#linearGradient4081"/><linearGradient id="linearGradient3834" x1="49" x2="49" y1="70" y2="23.729" gradientTransform="translate(0,-1)" gradientUnits="userSpaceOnUse" xlink:href="#linearGradient4081"/><linearGradient id="linearGradient3836" x1="49" x2="49" y1="70" y2="23.729" gradientUnits="userSpaceOnUse" xlink:href="#linearGradient4081"/><linearGradient id="linearGradient3730" x1="49" x2="49" y1="70" y2="23.729" gradientTransform="matrix(0.63157895,0,0,1,14.526316,-4)" gradientUnits="userSpaceOnUse" xlink:href="#linearGradient4081"/><linearGradient id="linearGradient3732" x1="49" x2="49" y1="70" y2="23.729" gradientTransform="matrix(1.2631579,0,0,1,-18.947368,0)" gradientUnits="userSpaceOnUse" xlink:href="#linearGradient4081"/><linearGradient id="linearGradient3734" x1="49" x2="49" y1="70" y2="23.729" gradientTransform="matrix(1.2631579,0,0,1,-18.947368,0)" gradientUnits="userSpaceOnUse" xlink:href="#linearGradient4081"/><linearGradient id="linearGradient3736" x1="49" x2="49" y1="70" y2="23.729" gradientTransform="matrix(1.2631579,0,0,1,-18.947368,0)" gradientUnits="userSpaceOnUse" xlink:href="#linearGradient4081"/><linearGradient id="linearGradient3738" x1="49" x2="49" y1="70" y2="23.729" gradientTransform="matrix(1.2631579,0,0,1,-18.947368,0)" gradientUnits="userSpaceOnUse" xlink:href="#linearGradient4081"/><linearGradient id="linearGradient3746" x1="49" x2="49" y1="72.09" y2="23.729" gradientTransform="matrix(1.2631579,0,0,1,81.052632,0)" gradientUnits="userSpaceOnUse" xlink:href="#linearGradient4081"/><linearGradient id="linearGradient3752" x1="49" x2="49" y1="72.09" y2="23.729" gradientTransform="matrix(1.2631579,0,0,1,-18.947368,1)" gradientUnits="userSpaceOnUse" xlink:href="#linearGradient4081"/><linearGradient id="linearGradient3754" x1="49" x2="49" y1="72.09" y2="23.729" gradientTransform="matrix(1.2631579,0,0,1,-18.947368,0)" gradientUnits="userSpaceOnUse" xlink:href="#linearGradient4081"/><linearGradient id="linearGradient3761" x1="49" x2="49" y1="72.09" y2="23.729" gradientTransform="matrix(1.2631579,0,0,1,-18.947368,-1)" gradientUnits="userSpaceOnUse" xlink:href="#linearGradient4081"/><linearGradient id="linearGradient3763" x1="49" x2="49" y1="72.09" y2="23.729" gradientTransform="matrix(1.2631579,0,0,1,-18.947368,0)" gradientUnits="userSpaceOnUse" xlink:href="#linearGradient4081"/><linearGradient id="linearGradient3762" x1="48" x2="48" y1="74" y2="21.914" gradientUnits="userSpaceOnUse" xlink:href="#linearGradient4081"/><linearGradient id="linearGradient3768" x1="48" x2="48" y1="74" y2="21.914" gradientTransform="translate(0,1)" gradientUnits="userSpaceOnUse" xlink:href="#linearGradient4081"/><linearGradient id="linearGradient3770" x1="48" x2="48" y1="74" y2="21.914" gradientUnits="userSpaceOnUse" xlink:href="#linearGradient4081"/><linearGradient id="linearGradient3777" x1="48" x2="48" y1="74" y2="21.914" gradientTransform="translate(0,-1)" gradientUnits="userSpaceOnUse" xlink:href="#linearGradient4081"/><linearGradient id="linearGradient3779" x1="48" x2="48" y1="74" y2="21.914" gradientUnits="userSpaceOnUse" xlink:href="#linearGradient4081"/><linearGradient id="linearGradient3188-0" x1="36.357" x2="36.357" y1="6" y2="63.893" gradientUnits="userSpaceOnUse" xlink:href="#linearGradient3737-0"/><linearGradient id="linearGradient3737-0"><stop style="stop-color:#fff;stop-opacity:1" id="stop3739-0" offset="0"/><stop style="stop-color:#fff;stop-opacity:0" id="stop3741-7" offset="1"/></linearGradient><radialGradient id="radialGradient3619-5" cx="48" cy="90.172" r="42" fx="48" fy="90.172" gradientTransform="matrix(1.1573129,0,0,0.99590774,-7.551021,0.1971319)" gradientUnits="userSpaceOnUse" xlink:href="#linearGradient3737-0"/><linearGradient id="linearGradient3016" x1="32.251" x2="32.251" y1="6.132" y2="90.239" gradientTransform="matrix(1.0238095,0,0,-1.0119048,-1.1428571,98.071429)" gradientUnits="userSpaceOnUse" xlink:href="#ButtonShadow-0"/><linearGradient id="ButtonShadow-0" x1="45.448" x2="45.448" y1="92.54" y2="7.017" gradientTransform="matrix(1.0058652,0,0,0.994169,100,0)" gradientUnits="userSpaceOnUse"><stop style="stop-color:#000;stop-opacity:1" id="stop3750-8" offset="0"/><stop style="stop-color:#000;stop-opacity:.58823532" id="stop3752-5" offset="1"/></linearGradient><linearGradient id="linearGradient3780" x1="32.251" x2="32.251" y1="6.132" y2="90.239" gradientTransform="matrix(1.0238095,0,0,-1.0119048,-1.1428571,98.071429)" gradientUnits="userSpaceOnUse" xlink:href="#ButtonShadow-0"/><linearGradient id="linearGradient3257" x1="45.448" x2="45.448" y1="92.54" y2="7.017" gradientTransform="matrix(1.0058652,0,0,0.994169,100,0)" gradientUnits="userSpaceOnUse"><stop style="stop-color:#000;stop-opacity:1" id="stop3259" offset="0"/><stop style="stop-color:#000;stop-opacity:.58823532" id="stop3261" offset="1"/></linearGradient><linearGradient id="linearGradient3772" x1="32.251" x2="32.251" y1="6.132" y2="90.239" gradientTransform="matrix(1.0238095,0,0,-1.0119048,-1.1428571,98.071429)" gradientUnits="userSpaceOnUse" xlink:href="#ButtonShadow-0"/><linearGradient id="linearGradient3264" x1="45.448" x2="45.448" y1="92.54" y2="7.017" gradientTransform="matrix(1.0058652,0,0,0.994169,100,0)" gradientUnits="userSpaceOnUse"><stop style="stop-color:#000;stop-opacity:1" id="stop3266" offset="0"/><stop style="stop-color:#000;stop-opacity:.58823532" id="stop3268" offset="1"/></linearGradient><linearGradient id="linearGradient3725-5" x1="32.251" x2="32.251" y1="6.132" y2="90.239" gradientTransform="matrix(1.0238095,0,0,-1.0119048,-1.1428571,98.071429)" gradientUnits="userSpaceOnUse" xlink:href="#ButtonShadow-0"/><linearGradient id="linearGradient3271" x1="45.448" x2="45.448" y1="92.54" y2="7.017" gradientTransform="matrix(1.0058652,0,0,0.994169,100,0)" gradientUnits="userSpaceOnUse"><stop style="stop-color:#000;stop-opacity:1" id="stop3273" offset="0"/><stop style="stop-color:#000;stop-opacity:.58823532" id="stop3275" offset="1"/></linearGradient><linearGradient id="linearGradient3721-5" x1="32.251" x2="32.251" y1="6.132" y2="90.239" gradientTransform="matrix(1,0,0,-1,0,97)" gradientUnits="userSpaceOnUse" xlink:href="#ButtonShadow-0"/><linearGradient id="linearGradient3278" x1="45.448" x2="45.448" y1="92.54" y2="7.017" gradientTransform="matrix(1.0058652,0,0,0.994169,100,0)" gradientUnits="userSpaceOnUse"><stop style="stop-color:#000;stop-opacity:1" id="stop3280" offset="0"/><stop style="stop-color:#000;stop-opacity:.58823532" id="stop3282" offset="1"/></linearGradient><linearGradient id="linearGradient3289" x1="32.251" x2="32.251" y1="6.132" y2="90.239" gradientTransform="matrix(1.0238095,0,0,-1.0119048,-1.1428571,98.071429)" gradientUnits="userSpaceOnUse" xlink:href="#ButtonShadow-0"/></defs><metadata id="metadata2413"/><g id="layer2" style="display:none"><rect style="opacity:.9;fill:url(#ButtonShadow);fill-opacity:1;fill-rule:nonzero;stroke:none;filter:url(#filter3174)" id="rect3745" width="86" height="85" x="5" y="7" clip-path="url(#clipPath3625)" rx="6" ry="6"/></g><g id="layer9" style="display:inline"><path style="opacity:.07999998;fill:url(#linearGradient3289);fill-opacity:1;fill-rule:nonzero;stroke:none;display:inline" id="path3786" d="M 12,3.96875 C 6.4889098,3.96875 1.96875,8.4889098 1.96875,14 l 0,71 c 0,5.51109 4.5201597,10.03125 10.03125,10.03125 l 72,0 c 5.51109,0 10.03125,-4.52016 10.03125,-10.03125 l 0,-71 C 94.03125,8.4889097 89.51109,3.96875 84,3.96875 l -72,0 z M 12,6 84,6 c 3.324,0 6,2.676 6,6 l 0,72 c 0,3.324 -2.676,6 -6,6 L 12,90 C 8.676,90 6,87.324 6,84 L 6,12 C 6,8.676 8.676,6 12,6 z"/><path style="opacity:.1;fill:url(#linearGradient3780);fill-opacity:1;fill-rule:nonzero;stroke:none;display:inline" id="path3778-1" d="M 12,4.96875 C 7.0283671,4.96875 2.96875,9.0283671 2.96875,14 l 0,71 c 0,4.971633 4.059617,9.03125 9.03125,9.03125 l 72,0 c 4.971633,0 9.03125,-4.059617 9.03125,-9.03125 l 0,-71 C 93.03125,9.028367 88.971633,4.96875 84,4.96875 l -72,0 z M 12,6 84,6 c 3.324,0 6,2.676 6,6 l 0,72 c 0,3.324 -2.676,6 -6,6 L 12,90 C 8.676,90 6,87.324 6,84 L 6,12 C 6,8.676 8.676,6 12,6 z"/><path style="opacity:.2;fill:url(#linearGradient3772);fill-opacity:1;fill-rule:nonzero;stroke:none;display:inline" id="path3770-9" d="M 11.1875,6.03125 C 7.159982,6.4419011 4,9.8664375 4,14 l 0,71 c 0,4.409133 3.590867,8 8,8 l 72,0 c 4.409133,0 8,-3.590867 8,-8 L 92,14 C 92,9.8029382 88.741028,6.3539584 84.625,6.03125 87.657886,6.337417 90,8.88375 90,12 l 0,72 c 0,3.324 -2.676,6 -6,6 L 12,90 C 8.676,90 6,87.324 6,84 L 6,12 c 0,-3.11625 2.342114,-5.662583 5.375,-5.96875 -0.06227,0.00488 -0.12563,-0.00631 -0.1875,0 z"/><path style="opacity:.3;fill:url(#linearGradient3725-5);fill-opacity:1;fill-rule:nonzero;stroke:none;display:inline" id="rect3723" d="M 6.4375,9.75 C 5.5380109,10.927446 5,12.397277 5,14 l 0,71 c 0,3.878 3.122,7 7,7 l 72,0 c 3.878,0 7,-3.122 7,-7 L 91,14 C 91,12.397277 90.461989,10.927446 89.5625,9.75 89.841816,10.444095 90,11.203625 90,12 l 0,72 c 0,3.324 -2.676,6 -6,6 L 12,90 C 8.676,90 6,87.324 6,84 L 6,12 C 6,11.203625 6.1581836,10.444095 6.4375,9.75 z"/><path style="opacity:.45;fill:url(#linearGradient3721-5);fill-opacity:1;fill-rule:nonzero;stroke:none;display:inline" id="rect3716" d="m 6,84 0,1 c 0,3.324 2.676,6 6,6 l 72,0 c 3.324,0 6,-2.676 6,-6 l 0,-1 c 0,3.324 -2.676,6 -6,6 L 12,90 C 8.676,90 6,87.324 6,84 z"/></g><g id="layer1" style="display:none"><rect style="opacity:.7;fill:#000;fill-opacity:1;fill-rule:nonzero;stroke:none" id="rect2419" width="84" height="84" x="6" y="6" rx="6" ry="6"/><path style="opacity:.07999998;fill:#000;fill-opacity:1;fill-rule:nonzero;stroke:none" id="rect3726" d="m 14,10 c -2.216,0 -4,1.784 -4,4 l 0,68 c 0,2.216 1.784,4 4,4 l 68,0 c 2.216,0 4,-1.784 4,-4 l 0,-68 c 0,-2.216 -1.784,-4 -4,-4 l -68,0 z m 0,3.0625 68,0 c 0.578769,0 0.9375,0.358731 0.9375,0.9375 l 0,68 c 0,0.578769 -0.358731,0.9375 -0.9375,0.9375 l -68,0 c -0.578769,0 -0.9375,-0.358731 -0.9375,-0.9375 l 0,-68 c 0,-0.578769 0.358731,-0.9375 0.9375,-0.9375 z"/><path style="fill:url(#linearGradient3643);fill-opacity:1;fill-rule:nonzero;stroke:none" id="rect3629" d="M 12,6 C 8.676,6 6,8.676 6,12 l 0,72 c 0,3.324 2.676,6 6,6 l 72,0 c 3.324,0 6,-2.676 6,-6 L 90,12 C 90,8.676 87.324,6 84,6 L 12,6 z m 2,4 68,0 c 2.216,0 4,1.784 4,4 l 0,68 c 0,2.216 -1.784,4 -4,4 l -68,0 c -2.216,0 -4,-1.784 -4,-4 l 0,-68 c 0,-2.216 1.784,-4 4,-4 z"/><path style="fill:url(#linearGradient3188);fill-opacity:1;fill-rule:nonzero;stroke:none" id="rect3728" d="M 12,6 C 8.676,6 6,8.676 6,12 l 0,2 0,68 0,2 c 0,0.334721 0.04135,0.6507 0.09375,0.96875 0.0487,0.295596 0.09704,0.596915 0.1875,0.875 0.00988,0.03038 0.020892,0.0636 0.03125,0.09375 0.098865,0.287771 0.2348802,0.547452 0.375,0.8125 0.1445918,0.273507 0.3156161,0.535615 0.5,0.78125 0.1843839,0.245635 0.3737765,0.473472 0.59375,0.6875 0.439947,0.428056 0.94291,0.814526 1.5,1.09375 0.278545,0.139612 0.5734731,0.246947 0.875,0.34375 -0.2562018,-0.100222 -0.4867109,-0.236272 -0.71875,-0.375 -0.00741,-0.0044 -0.023866,0.0045 -0.03125,0 -0.031933,-0.0193 -0.062293,-0.04251 -0.09375,-0.0625 -0.120395,-0.0767 -0.2310226,-0.163513 -0.34375,-0.25 -0.1061728,-0.0808 -0.2132809,-0.161112 -0.3125,-0.25 C 8.4783201,88.557317 8.3087904,88.373362 8.15625,88.1875 8.0486711,88.057245 7.9378561,87.922215 7.84375,87.78125 7.818661,87.74287 7.805304,87.69538 7.78125,87.65625 7.716487,87.553218 7.6510225,87.451733 7.59375,87.34375 7.4927417,87.149044 7.3880752,86.928049 7.3125,86.71875 7.30454,86.69694 7.288911,86.6782 7.28125,86.65625 7.2494249,86.5643 7.2454455,86.469419 7.21875,86.375 7.1884177,86.268382 7.1483606,86.171969 7.125,86.0625 7.0521214,85.720988 7,85.364295 7,85 L 7,83 7,15 7,13 C 7,10.218152 9.2181517,8 12,8 l 2,0 68,0 2,0 c 2.781848,0 5,2.218152 5,5 l 0,2 0,68 0,2 c 0,0.364295 -0.05212,0.720988 -0.125,1.0625 -0.04415,0.206893 -0.08838,0.397658 -0.15625,0.59375 -0.0077,0.02195 -0.0233,0.04069 -0.03125,0.0625 -0.06274,0.173739 -0.138383,0.367449 -0.21875,0.53125 -0.04158,0.0828 -0.07904,0.169954 -0.125,0.25 -0.0546,0.09721 -0.126774,0.18835 -0.1875,0.28125 -0.09411,0.140965 -0.204921,0.275995 -0.3125,0.40625 -0.143174,0.17445 -0.303141,0.346998 -0.46875,0.5 -0.01117,0.0102 -0.01998,0.02115 -0.03125,0.03125 -0.138386,0.125556 -0.285091,0.234436 -0.4375,0.34375 -0.102571,0.07315 -0.204318,0.153364 -0.3125,0.21875 -0.0074,0.0045 -0.02384,-0.0044 -0.03125,0 -0.232039,0.138728 -0.462548,0.274778 -0.71875,0.375 0.301527,-0.0968 0.596455,-0.204138 0.875,-0.34375 0.55709,-0.279224 1.060053,-0.665694 1.5,-1.09375 0.219973,-0.214028 0.409366,-0.441865 0.59375,-0.6875 0.184384,-0.245635 0.355408,-0.507743 0.5,-0.78125 0.14012,-0.265048 0.276135,-0.524729 0.375,-0.8125 0.01041,-0.03078 0.02133,-0.06274 0.03125,-0.09375 0.09046,-0.278085 0.1388,-0.579404 0.1875,-0.875 C 89.95865,84.6507 90,84.334721 90,84 l 0,-2 0,-68 0,-2 C 90,8.676 87.324,6 84,6 L 12,6 z"/><path id="path3615" d="M 12,90 C 8.676,90 6,87.324 6,84 L 6,82 6,14 6,12 c 0,-0.334721 0.04135,-0.6507 0.09375,-0.96875 0.0487,-0.295596 0.09704,-0.596915 0.1875,-0.875 C 6.29113,10.12587 6.302142,10.09265 6.3125,10.0625 6.411365,9.774729 6.5473802,9.515048 6.6875,9.25 6.8320918,8.976493 7.0031161,8.714385 7.1875,8.46875 7.3718839,8.223115 7.5612765,7.995278 7.78125,7.78125 8.221197,7.353194 8.72416,6.966724 9.28125,6.6875 9.559795,6.547888 9.8547231,6.440553 10.15625,6.34375 9.9000482,6.443972 9.6695391,6.580022 9.4375,6.71875 c -0.00741,0.0044 -0.023866,-0.0045 -0.03125,0 -0.031933,0.0193 -0.062293,0.04251 -0.09375,0.0625 -0.120395,0.0767 -0.2310226,0.163513 -0.34375,0.25 -0.1061728,0.0808 -0.2132809,0.161112 -0.3125,0.25 C 8.4783201,7.442683 8.3087904,7.626638 8.15625,7.8125 8.0486711,7.942755 7.9378561,8.077785 7.84375,8.21875 7.818661,8.25713 7.805304,8.30462 7.78125,8.34375 7.716487,8.446782 7.6510225,8.548267 7.59375,8.65625 7.4927417,8.850956 7.3880752,9.071951 7.3125,9.28125 7.30454,9.30306 7.288911,9.3218 7.28125,9.34375 7.2494249,9.4357 7.2454455,9.530581 7.21875,9.625 7.1884177,9.731618 7.1483606,9.828031 7.125,9.9375 7.0521214,10.279012 7,10.635705 7,11 l 0,2 0,68 0,2 c 0,2.781848 2.2181517,5 5,5 l 2,0 68,0 2,0 c 2.781848,0 5,-2.218152 5,-5 l 0,-2 0,-68 0,-2 C 89,10.635705 88.94788,10.279012 88.875,9.9375 88.83085,9.730607 88.78662,9.539842 88.71875,9.34375 88.71105,9.3218 88.69545,9.30306 88.6875,9.28125 88.62476,9.107511 88.549117,8.913801 88.46875,8.75 88.42717,8.6672 88.38971,8.580046 88.34375,8.5 88.28915,8.40279 88.216976,8.31165 88.15625,8.21875 88.06214,8.077785 87.951329,7.942755 87.84375,7.8125 87.700576,7.63805 87.540609,7.465502 87.375,7.3125 87.36383,7.3023 87.35502,7.29135 87.34375,7.28125 87.205364,7.155694 87.058659,7.046814 86.90625,6.9375 86.803679,6.86435 86.701932,6.784136 86.59375,6.71875 c -0.0074,-0.0045 -0.02384,0.0044 -0.03125,0 -0.232039,-0.138728 -0.462548,-0.274778 -0.71875,-0.375 0.301527,0.0968 0.596455,0.204138 0.875,0.34375 0.55709,0.279224 1.060053,0.665694 1.5,1.09375 0.219973,0.214028 0.409366,0.441865 0.59375,0.6875 0.184384,0.245635 0.355408,0.507743 0.5,0.78125 0.14012,0.265048 0.276135,0.524729 0.375,0.8125 0.01041,0.03078 0.02133,0.06274 0.03125,0.09375 0.09046,0.278085 0.1388,0.579404 0.1875,0.875 C 89.95865,11.3493 90,11.665279 90,12 l 0,2 0,68 0,2 c 0,3.324 -2.676,6 -6,6 l -72,0 z" style="opacity:.6;fill:url(#radialGradient3619);fill-opacity:1;fill-rule:nonzero;stroke:none"/><rect id="rect2841" width="84" height="84" x="6" y="106" rx="6" ry="6" style="fill:url(#linearGradient2843);fill-opacity:1;fill-rule:nonzero;stroke:none"/><rect id="rect3634" width="76" height="76" x="10" y="110" rx="4" ry="4" style="fill:red;fill-opacity:1;fill-rule:nonzero;stroke:none"/><path style="font-size:medium;font-style:normal;font-variant:normal;font-weight:400;font-stretch:normal;text-indent:0;text-align:start;text-decoration:none;line-height:normal;letter-spacing:normal;word-spacing:normal;text-transform:none;direction:ltr;block-progression:tb;writing-mode:lr-tb;text-anchor:start;color:#000;fill:#000;fill-opacity:1;stroke:none;stroke-width:2;marker:none;visibility:visible;display:inline;overflow:visible;filter:url(#filter3657);enable-background:accumulate;font-family:Abandoned Bitplane;-inkscape-font-specification:Abandoned Bitplane" id="rect3647" d="m 14,9 c -2.752703,0 -5,2.247297 -5,5 l 0,68 c 0,2.752703 2.247297,5 5,5 l 68,0 c 2.752703,0 5,-2.247297 5,-5 L 87,14 C 87,11.247297 84.752703,9 82,9 L 14,9 z m 0,2 68,0 c 1.679297,0 3,1.320703 3,3 l 0,68 c 0,1.679297 -1.320703,3 -3,3 l -68,0 c -1.679297,0 -3,-1.320703 -3,-3 l 0,-68 c 0,-1.679297 1.320703,-3 3,-3 z" clip-path="url(#clipPath3649)" transform="translate(-110,0)"/><path style="opacity:.16000001;fill:#000;fill-opacity:1;fill-rule:nonzero;stroke:none" id="path3709" d="m 14.089286,10 c -2.216,0 -4,1.784 -4,4 l 0,68 c 0,2.216 1.784,4 4,4 l 68,0 c 2.216,0 4,-1.784 4,-4 l 0,-68 c 0,-2.216 -1.784,-4 -4,-4 l -68,0 z m 0,2 68,0 c 1.140301,0 2,0.859699 2,2 l 0,68 c 0,1.140301 -0.859699,2 -2,2 l -68,0 c -1.140301,0 -2,-0.859699 -2,-2 l 0,-68 c 0,-1.140301 0.859699,-2 2,-2 z"/><path style="opacity:.36000001;fill:#000;fill-opacity:1;fill-rule:nonzero;stroke:none" id="path3707" d="m 14,10 c -2.216,0 -4,1.784 -4,4 l 0,68 c 0,2.216 1.784,4 4,4 l 68,0 c 2.216,0 4,-1.784 4,-4 l 0,-68 c 0,-2.216 -1.784,-4 -4,-4 l -68,0 z m 0,1 68,0 c 1.673848,0 3,1.326152 3,3 l 0,68 c 0,1.673848 -1.326152,3 -3,3 l -68,0 c -1.673848,0 -3,-1.326152 -3,-3 l 0,-68 c 0,-1.673848 1.326152,-3 3,-3 z"/></g><g id="layer6" style="display:inline"><rect style="opacity:.6;fill:#000;fill-opacity:1;fill-rule:nonzero;stroke:none;display:inline" id="rect2419-2" width="84" height="84" x="6" y="6" rx="6" ry="6"/><path style="opacity:.01000001;fill:url(#linearGradient3188-0);fill-opacity:1;fill-rule:nonzero;stroke:none;display:inline" id="rect3728-1" d="M 12,6 C 8.676,6 6,8.676 6,12 l 0,2 0,68 0,2 c 0,0.334721 0.04135,0.6507 0.09375,0.96875 0.0487,0.295596 0.09704,0.596915 0.1875,0.875 0.00988,0.03038 0.020892,0.0636 0.03125,0.09375 0.098865,0.287771 0.2348802,0.547452 0.375,0.8125 0.1445918,0.273507 0.3156161,0.535615 0.5,0.78125 0.1843839,0.245635 0.3737765,0.473472 0.59375,0.6875 0.439947,0.428056 0.94291,0.814526 1.5,1.09375 0.278545,0.139612 0.5734731,0.246947 0.875,0.34375 -0.2562018,-0.100222 -0.4867109,-0.236272 -0.71875,-0.375 -0.00741,-0.0044 -0.023866,0.0045 -0.03125,0 -0.031933,-0.0193 -0.062293,-0.04251 -0.09375,-0.0625 -0.120395,-0.0767 -0.2310226,-0.163513 -0.34375,-0.25 -0.1061728,-0.0808 -0.2132809,-0.161112 -0.3125,-0.25 C 8.4783201,88.557317 8.3087904,88.373362 8.15625,88.1875 8.0486711,88.057245 7.9378561,87.922215 7.84375,87.78125 7.818661,87.74287 7.805304,87.69538 7.78125,87.65625 7.716487,87.553218 7.6510225,87.451733 7.59375,87.34375 7.4927417,87.149044 7.3880752,86.928049 7.3125,86.71875 7.30454,86.69694 7.288911,86.6782 7.28125,86.65625 7.2494249,86.5643 7.2454455,86.469419 7.21875,86.375 7.1884177,86.268382 7.1483606,86.171969 7.125,86.0625 7.0521214,85.720988 7,85.364295 7,85 L 7,83 7,15 7,13 C 7,10.218152 9.2181517,8 12,8 l 2,0 68,0 2,0 c 2.781848,0 5,2.218152 5,5 l 0,2 0,68 0,2 c 0,0.364295 -0.05212,0.720988 -0.125,1.0625 -0.04415,0.206893 -0.08838,0.397658 -0.15625,0.59375 -0.0077,0.02195 -0.0233,0.04069 -0.03125,0.0625 -0.06274,0.173739 -0.138383,0.367449 -0.21875,0.53125 -0.04158,0.0828 -0.07904,0.169954 -0.125,0.25 -0.0546,0.09721 -0.126774,0.18835 -0.1875,0.28125 -0.09411,0.140965 -0.204921,0.275995 -0.3125,0.40625 -0.143174,0.17445 -0.303141,0.346998 -0.46875,0.5 -0.01117,0.0102 -0.01998,0.02115 -0.03125,0.03125 -0.138386,0.125556 -0.285091,0.234436 -0.4375,0.34375 -0.102571,0.07315 -0.204318,0.153364 -0.3125,0.21875 -0.0074,0.0045 -0.02384,-0.0044 -0.03125,0 -0.232039,0.138728 -0.462548,0.274778 -0.71875,0.375 0.301527,-0.0968 0.596455,-0.204138 0.875,-0.34375 0.55709,-0.279224 1.060053,-0.665694 1.5,-1.09375 0.219973,-0.214028 0.409366,-0.441865 0.59375,-0.6875 0.184384,-0.245635 0.355408,-0.507743 0.5,-0.78125 0.14012,-0.265048 0.276135,-0.524729 0.375,-0.8125 0.01041,-0.03078 0.02133,-0.06274 0.03125,-0.09375 0.09046,-0.278085 0.1388,-0.579404 0.1875,-0.875 C 89.95865,84.6507 90,84.334721 90,84 l 0,-2 0,-68 0,-2 C 90,8.676 87.324,6 84,6 L 12,6 z"/><path id="path3615-6" d="M 12,90 C 8.676,90 6,87.324 6,84 L 6,82 6,14 6,12 c 0,-0.334721 0.04135,-0.6507 0.09375,-0.96875 0.0487,-0.295596 0.09704,-0.596915 0.1875,-0.875 C 6.29113,10.12587 6.302142,10.09265 6.3125,10.0625 6.411365,9.774729 6.5473802,9.515048 6.6875,9.25 6.8320918,8.976493 7.0031161,8.714385 7.1875,8.46875 7.3718839,8.223115 7.5612765,7.995278 7.78125,7.78125 8.221197,7.353194 8.72416,6.966724 9.28125,6.6875 9.559795,6.547888 9.8547231,6.440553 10.15625,6.34375 9.9000482,6.443972 9.6695391,6.580022 9.4375,6.71875 c -0.00741,0.0044 -0.023866,-0.0045 -0.03125,0 -0.031933,0.0193 -0.062293,0.04251 -0.09375,0.0625 -0.120395,0.0767 -0.2310226,0.163513 -0.34375,0.25 -0.1061728,0.0808 -0.2132809,0.161112 -0.3125,0.25 C 8.4783201,7.442683 8.3087904,7.626638 8.15625,7.8125 8.0486711,7.942755 7.9378561,8.077785 7.84375,8.21875 7.818661,8.25713 7.805304,8.30462 7.78125,8.34375 7.716487,8.446782 7.6510225,8.548267 7.59375,8.65625 7.4927417,8.850956 7.3880752,9.071951 7.3125,9.28125 7.30454,9.30306 7.288911,9.3218 7.28125,9.34375 7.2494249,9.4357 7.2454455,9.530581 7.21875,9.625 7.1884177,9.731618 7.1483606,9.828031 7.125,9.9375 7.0521214,10.279012 7,10.635705 7,11 l 0,2 0,68 0,2 c 0,2.781848 2.2181517,5 5,5 l 2,0 68,0 2,0 c 2.781848,0 5,-2.218152 5,-5 l 0,-2 0,-68 0,-2 C 89,10.635705 88.94788,10.279012 88.875,9.9375 88.83085,9.730607 88.78662,9.539842 88.71875,9.34375 88.71105,9.3218 88.69545,9.30306 88.6875,9.28125 88.62476,9.107511 88.549117,8.913801 88.46875,8.75 88.42717,8.6672 88.38971,8.580046 88.34375,8.5 88.28915,8.40279 88.216976,8.31165 88.15625,8.21875 88.06214,8.077785 87.951329,7.942755 87.84375,7.8125 87.700576,7.63805 87.540609,7.465502 87.375,7.3125 87.36383,7.3023 87.35502,7.29135 87.34375,7.28125 87.205364,7.155694 87.058659,7.046814 86.90625,6.9375 86.803679,6.86435 86.701932,6.784136 86.59375,6.71875 c -0.0074,-0.0045 -0.02384,0.0044 -0.03125,0 -0.232039,-0.138728 -0.462548,-0.274778 -0.71875,-0.375 0.301527,0.0968 0.596455,0.204138 0.875,0.34375 0.55709,0.279224 1.060053,0.665694 1.5,1.09375 0.219973,0.214028 0.409366,0.441865 0.59375,0.6875 0.184384,0.245635 0.355408,0.507743 0.5,0.78125 0.14012,0.265048 0.276135,0.524729 0.375,0.8125 0.01041,0.03078 0.02133,0.06274 0.03125,0.09375 0.09046,0.278085 0.1388,0.579404 0.1875,0.875 C 89.95865,11.3493 90,11.665279 90,12 l 0,2 0,68 0,2 c 0,3.324 -2.676,6 -6,6 l -72,0 z" style="opacity:.15;fill:url(#radialGradient3619-5);fill-opacity:1;fill-rule:nonzero;stroke:none;display:inline"/></g><g id="layer3" style="display:inline"><path style="opacity:.1;color:#000;fill:#000;fill-opacity:1;fill-rule:nonzero;stroke:none;stroke-width:1;marker:none;visibility:visible;display:inline;overflow:visible;enable-background:accumulate" id="path3792" d="M 30.59375,21 C 26.746934,20.894021 23.567834,24.627571 24,28.393814 c 0.02259,14.208319 -0.04525,28.419486 0.03402,42.626022 0.270424,3.640008 3.86242,6.418428 7.444805,5.980164 11.533608,-0.02289 23.070165,0.04592 34.601918,-0.03466 C 69.731888,76.675963 72.427322,73.025129 72,69.458674 71.977406,55.299525 72.045246,41.137529 71.965979,26.980164 71.695555,23.340156 68.103559,20.561736 64.521174,21 53.212032,21 41.902891,21 30.59375,21 z M 34,31 c 9.333333,0 18.666667,0 28,0 0,1.270833 0,2.541667 0,3.8125 C 61.903344,33.392351 60.373041,32.759038 59.114924,33 51.284949,33 43.454975,33 35.625,33 34.757503,33.167429 34.037723,33.946382 34,34.84375 34,33.5625 34,32.28125 34,31 z m 0,8.1875 c 0.07973,0.918412 0.818837,1.663701 1.71875,1.8125 -0.910338,0.09408 -1.679371,0.923284 -1.71875,1.84375 0,-1.21875 0,-2.4375 0,-3.65625 z m 28,0 c 0,1.208333 0,2.416667 0,3.625 C 61.918056,41.868935 61.129466,41.083829 60.1875,41 61.141313,40.909522 61.907391,40.140626 62,39.1875 z m -28,8 c 0.07973,0.918412 0.818837,1.663701 1.71875,1.8125 -0.910338,0.09408 -1.679371,0.923284 -1.71875,1.84375 0,-1.21875 0,-2.4375 0,-3.65625 z m 28,0 c 0,1.208333 0,2.416667 0,3.625 C 61.918056,49.868935 61.129466,49.083829 60.1875,49 61.141313,48.909522 61.907391,48.140626 62,47.1875 z m -28,8 c 0.08194,0.943565 0.870534,1.728671 1.8125,1.8125 -0.943565,0.08194 -1.728671,0.870534 -1.8125,1.8125 0,-1.208333 0,-2.416667 0,-3.625 z m 28,0 c 0,3.9375 0,7.875 0,11.8125 -1.9375,0 -3.875,0 -5.8125,0 1.420149,-0.09666 2.053462,-1.626959 1.8125,-2.885076 0.149167,-1.161519 -0.07842,-2.687786 -1.40625,-3.021174 -0.902484,-0.129939 0.796722,-0.242775 0.927688,-0.77965 C 58.305024,59.392293 57.900986,58.100335 58,57 c 1.295567,-0.0444 3.065154,0.357524 3.78125,-1.0625 0.09209,-0.242913 0.198799,-0.488397 0.21875,-0.75 z m -28,8 c 0.09666,1.420149 1.626959,2.053462 2.885076,1.8125 3.704975,0 7.409949,0 11.114924,0 -0.03031,1.013822 0.809966,1.915013 1.8125,2 -5.270833,0 -10.541667,0 -15.8125,0 0,-1.270833 0,-2.541667 0,-3.8125 z"/><path style="opacity:.15;color:#000;fill:#000;fill-opacity:1;fill-rule:nonzero;stroke:none;stroke-width:1;marker:none;visibility:visible;display:inline;overflow:visible;enable-background:accumulate" id="path3788" d="M 30.59375,22 C 27.503638,22 25,24.54793 25,27.65625 l 0,42.6875 C 25,73.45207 27.503638,76 30.59375,76 l 34.8125,0 C 68.496362,76 71,73.45207 71,70.34375 l 0,-42.6875 C 71,24.54793 68.496362,22 65.40625,22 l -34.8125,0 z M 34,30 l 1,0 26,0 1,0 c 0.567613,0 1,0.432387 1,1 l 0,1 0,34 0,1 c 0,0.567613 -0.432387,1 -1,1 l -1,0 -26,0 -1,0 c -0.567613,0 -1,-0.432387 -1,-1 l 0,-1 0,-34 0,-1 c 0,-0.567613 0.432387,-1 1,-1 z m 1.8125,4 A 1.0069645,1.0069645 0 0 0 35,35 l 0,4 a 1.0069645,1.0069645 0 0 0 1,1 l 24,0 a 1.0069645,1.0069645 0 0 0 1,-1 l 0,-4 a 1.0069645,1.0069645 0 0 0 -1,-1 l -24,0 a 1.0069645,1.0069645 0 0 0 -0.1875,0 z m 0,8 A 1.0069645,1.0069645 0 0 0 35,43 l 0,4 a 1.0069645,1.0069645 0 0 0 1,1 l 24,0 a 1.0069645,1.0069645 0 0 0 1,-1 l 0,-4 a 1.0069645,1.0069645 0 0 0 -1,-1 l -24,0 a 1.0069645,1.0069645 0 0 0 -0.1875,0 z m 0,8 A 1.0069645,1.0069645 0 0 0 35,51 l 0,4 a 1.0069645,1.0069645 0 0 0 1,1 l 13.8125,0 A 1.0069645,1.0069645 0 0 0 49,57 l 0,1.8125 A 1.0069645,1.0069645 0 0 0 48,58 l -12,0 a 1.0069645,1.0069645 0 0 0 -1,1 l 0,4 a 1.0069645,1.0069645 0 0 0 1,1 l 12,0 a 1.0069645,1.0069645 0 0 0 1,-0.84375 L 49,65 a 1.0069645,1.0069645 0 0 0 1,1 l 6,0 a 1.0069645,1.0069645 0 0 0 1,-1 l 0,-2 a 1.0069645,1.0069645 0 0 0 -1,-1 l -1,0 0,-2 1,0 a 1.0069645,1.0069645 0 0 0 1,-1 l 0,-2 A 1.0069645,1.0069645 0 0 0 56.15625,56 L 60,56 a 1.0069645,1.0069645 0 0 0 1,-1 l 0,-4 a 1.0069645,1.0069645 0 0 0 -1,-1 l -24,0 a 1.0069645,1.0069645 0 0 0 -0.1875,0 z M 49,59.1875 A 1.0069645,1.0069645 0 0 0 50,60 l 1,0 0,2 -1,0 a 1.0069645,1.0069645 0 0 0 -1,0.84375 l 0,-3.65625 z"/><path id="path3782" d="M 30.59375,23 C 28.054583,23 26,25.084107 26,27.65625 l 0,42.6875 C 26,72.915893 28.054583,75 30.59375,75 l 34.8125,0 C 67.945417,75 70,72.915893 70,70.34375 l 0,-42.6875 C 70,25.084107 67.945417,23 65.40625,23 l -34.8125,0 z M 34,29 l 1,0 26,0 1,0 c 1.108,0 2,0.892 2,2 l 0,1 0,34 0,1 c 0,1.108 -0.892,2 -2,2 l -1,0 -26,0 -1,0 c -1.108,0 -2,-0.892 -2,-2 l 0,-1 0,-34 0,-1 c 0,-1.108 0.892,-2 2,-2 z m 2,6 0,4 24,0 0,-4 -24,0 z m 0,8 0,4 24,0 0,-4 -24,0 z m 0,8 0,4 24,0 0,-4 -24,0 z m 14,6 0,2 2,0 0,4 -2,0 0,2 6,0 0,-2 -2,0 0,-4 2,0 0,-2 -6,0 z m -14,2 0,4 12,0 0,-4 -12,0 z" style="color:#000;fill:#000;fill-opacity:1;fill-rule:nonzero;stroke:none;stroke-width:1;marker:none;visibility:visible;display:inline;overflow:visible;enable-background:accumulate;opacity:.3"/><path style="opacity:.1;fill:#000;fill-opacity:1;stroke:none" id="path3778" d="m 23.78125,22.9375 c -4.82e-4,2.5e-5 -0.09327,0.0312 -0.09375,0.03125 a 1.0139272,1.0139272 0 0 0 -0.125,0 c -7.63e-4,1.72e-4 -0.186754,0.06226 -0.1875,0.0625 -7.46e-4,2.36e-4 -0.155527,0.0622 -0.15625,0.0625 -7.23e-4,2.99e-4 -0.155555,0.06214 -0.15625,0.0625 -6.95e-4,3.59e-4 -0.155588,0.09333 -0.15625,0.09375 -6.62e-4,4.17e-4 -0.124376,0.09328 -0.125,0.09375 -6.24e-4,4.72e-4 -0.155669,0.124477 -0.15625,0.125 -5.81e-4,5.23e-4 -0.124465,0.124429 -0.125,0.125 -5.35e-4,5.71e-4 -0.09327,0.124386 -0.09375,0.125 -4.84e-4,6.14e-4 -0.12457,0.124347 -0.125,0.125 -4.3e-4,6.53e-4 -0.06213,0.155562 -0.0625,0.15625 -3.73e-4,6.88e-4 -0.09344,0.155533 -0.09375,0.15625 -3.13e-4,7.17e-4 -0.06225,0.155509 -0.0625,0.15625 -2.51e-4,7.41e-4 -0.06231,0.186741 -0.0625,0.1875 -1.87e-4,7.59e-4 -0.03113,0.155477 -0.03125,0.15625 -1.21e-4,7.73e-4 5.5e-5,0.18672 0,0.1875 -5.5e-5,7.8e-4 -1.2e-5,0.155468 0,0.15625 l 0,6 c 9e-6,8.89e-4 -9.5e-5,0.217866 0,0.21875 9.5e-5,8.84e-4 0.03107,0.186629 0.03125,0.1875 1.8e-4,8.71e-4 0.06224,0.18665 0.0625,0.1875 2.63e-4,8.5e-4 0.06216,0.18668 0.0625,0.1875 3.44e-4,8.2e-4 0.06208,0.186717 0.0625,0.1875 4.22e-4,7.83e-4 0.124504,0.155512 0.125,0.15625 4.96e-4,7.38e-4 0.124435,0.155563 0.125,0.15625 5.65e-4,6.87e-4 0.124371,0.155621 0.125,0.15625 6.29e-4,6.29e-4 0.155563,0.124435 0.15625,0.125 6.87e-4,5.65e-4 0.155512,0.124504 0.15625,0.125 7.38e-4,4.96e-4 0.155467,0.124578 0.15625,0.125 7.83e-4,4.22e-4 0.18668,0.06216 0.1875,0.0625 8.2e-4,3.44e-4 0.18665,0.06224 0.1875,0.0625 5.52e-4,1.71e-4 0.06815,0.01662 0.125,0.03125 -0.03681,0.0099 -0.155616,0.0623 -0.15625,0.0625 -7.46e-4,2.36e-4 -0.155527,0.0622 -0.15625,0.0625 -7.23e-4,2.99e-4 -0.155555,0.06214 -0.15625,0.0625 -6.95e-4,3.59e-4 -0.155588,0.09333 -0.15625,0.09375 -6.62e-4,4.17e-4 -0.124376,0.09328 -0.125,0.09375 -6.24e-4,4.72e-4 -0.155669,0.124477 -0.15625,0.125 -5.81e-4,5.23e-4 -0.124465,0.124429 -0.125,0.125 -5.35e-4,5.71e-4 -0.09327,0.124386 -0.09375,0.125 -4.84e-4,6.14e-4 -0.12457,0.124347 -0.125,0.125 -4.3e-4,6.53e-4 -0.06213,0.155562 -0.0625,0.15625 -3.73e-4,6.88e-4 -0.09344,0.155533 -0.09375,0.15625 -3.13e-4,7.17e-4 -0.06225,0.155509 -0.0625,0.15625 -2.51e-4,7.41e-4 -0.06231,0.186741 -0.0625,0.1875 -1.87e-4,7.59e-4 -0.03113,0.155477 -0.03125,0.15625 -1.21e-4,7.73e-4 5.5e-5,0.18672 0,0.1875 -5.5e-5,7.8e-4 -1.2e-5,0.155468 0,0.15625 l 0,6 c 9e-6,8.89e-4 -9.5e-5,0.217866 0,0.21875 9.5e-5,8.84e-4 0.03107,0.186629 0.03125,0.1875 1.8e-4,8.71e-4 0.06224,0.18665 0.0625,0.1875 2.63e-4,8.5e-4 0.06216,0.18668 0.0625,0.1875 3.44e-4,8.2e-4 0.06208,0.186717 0.0625,0.1875 4.22e-4,7.83e-4 0.124504,0.155512 0.125,0.15625 4.96e-4,7.38e-4 0.124435,0.155563 0.125,0.15625 5.65e-4,6.87e-4 0.124371,0.155621 0.125,0.15625 6.29e-4,6.29e-4 0.155563,0.124435 0.15625,0.125 6.87e-4,5.65e-4 0.155512,0.124504 0.15625,0.125 7.38e-4,4.96e-4 0.155467,0.124578 0.15625,0.125 7.83e-4,4.22e-4 0.18668,0.06216 0.1875,0.0625 8.2e-4,3.44e-4 0.18665,0.06224 0.1875,0.0625 5.52e-4,1.71e-4 0.06815,0.01662 0.125,0.03125 -0.03681,0.0099 -0.155616,0.0623 -0.15625,0.0625 -7.46e-4,2.36e-4 -0.155527,0.0622 -0.15625,0.0625 -7.23e-4,2.99e-4 -0.155555,0.06214 -0.15625,0.0625 -6.95e-4,3.59e-4 -0.155588,0.09333 -0.15625,0.09375 -6.62e-4,4.17e-4 -0.124376,0.09328 -0.125,0.09375 -6.24e-4,4.72e-4 -0.155669,0.124477 -0.15625,0.125 -5.81e-4,5.23e-4 -0.124465,0.124429 -0.125,0.125 -5.35e-4,5.71e-4 -0.09327,0.124386 -0.09375,0.125 -4.84e-4,6.14e-4 -0.12457,0.124347 -0.125,0.125 -4.3e-4,6.53e-4 -0.06213,0.155562 -0.0625,0.15625 -3.73e-4,6.88e-4 -0.09344,0.155533 -0.09375,0.15625 -3.13e-4,7.17e-4 -0.06225,0.155509 -0.0625,0.15625 -2.51e-4,7.41e-4 -0.06231,0.186741 -0.0625,0.1875 -1.87e-4,7.59e-4 -0.03113,0.155477 -0.03125,0.15625 -1.21e-4,7.73e-4 5.5e-5,0.18672 0,0.1875 -5.5e-5,7.8e-4 -1.2e-5,0.155468 0,0.15625 l 0,6 c 9e-6,8.89e-4 -9.5e-5,0.217866 0,0.21875 9.5e-5,8.84e-4 0.03107,0.186629 0.03125,0.1875 1.8e-4,8.71e-4 0.06224,0.18665 0.0625,0.1875 2.63e-4,8.5e-4 0.06216,0.18668 0.0625,0.1875 3.44e-4,8.2e-4 0.06208,0.186717 0.0625,0.1875 4.22e-4,7.83e-4 0.124504,0.155512 0.125,0.15625 4.96e-4,7.38e-4 0.124435,0.155563 0.125,0.15625 5.65e-4,6.87e-4 0.124371,0.155621 0.125,0.15625 6.29e-4,6.29e-4 0.155563,0.124435 0.15625,0.125 6.87e-4,5.65e-4 0.155512,0.124504 0.15625,0.125 7.38e-4,4.96e-4 0.155467,0.124578 0.15625,0.125 7.83e-4,4.22e-4 0.18668,0.06216 0.1875,0.0625 8.2e-4,3.44e-4 0.18665,0.06224 0.1875,0.0625 8.5e-4,2.63e-4 0.186629,0.06232 0.1875,0.0625 8.71e-4,1.8e-4 0.186616,0.03115 0.1875,0.03125 8.84e-4,9.5e-5 0.217861,-9e-6 0.21875,0 l 48,0 c 8.89e-4,-9e-6 0.217866,9.5e-5 0.21875,0 8.84e-4,-9.5e-5 0.186629,-0.03107 0.1875,-0.03125 8.71e-4,-1.8e-4 0.18665,-0.06224 0.1875,-0.0625 8.5e-4,-2.63e-4 0.18668,-0.06216 0.1875,-0.0625 8.2e-4,-3.44e-4 0.186717,-0.06208 0.1875,-0.0625 7.83e-4,-4.22e-4 0.155512,-0.124504 0.15625,-0.125 7.38e-4,-4.96e-4 0.155563,-0.124435 0.15625,-0.125 6.87e-4,-5.65e-4 0.155621,-0.124371 0.15625,-0.125 6.29e-4,-6.29e-4 0.124435,-0.155563 0.125,-0.15625 5.65e-4,-6.87e-4 0.124504,-0.155512 0.125,-0.15625 4.96e-4,-7.38e-4 0.124578,-0.155467 0.125,-0.15625 4.22e-4,-7.83e-4 0.06216,-0.18668 0.0625,-0.1875 3.44e-4,-8.2e-4 0.06224,-0.18665 0.0625,-0.1875 2.63e-4,-8.5e-4 0.06232,-0.186629 0.0625,-0.1875 1.8e-4,-8.71e-4 0.03115,-0.186616 0.03125,-0.1875 9.5e-5,-8.84e-4 -9e-6,-0.217861 0,-0.21875 l 0,-6 c -9e-6,-8.89e-4 9.5e-5,-0.217866 0,-0.21875 -9.5e-5,-8.84e-4 -0.03107,-0.186629 -0.03125,-0.1875 -1.8e-4,-8.71e-4 -0.06224,-0.18665 -0.0625,-0.1875 -2.63e-4,-8.5e-4 -0.06216,-0.18668 -0.0625,-0.1875 -3.44e-4,-8.2e-4 -0.06208,-0.186717 -0.0625,-0.1875 -4.22e-4,-7.83e-4 -0.124504,-0.155512 -0.125,-0.15625 -4.96e-4,-7.38e-4 -0.124435,-0.155563 -0.125,-0.15625 -5.65e-4,-6.87e-4 -0.124371,-0.155621 -0.125,-0.15625 -6.29e-4,-6.29e-4 -0.155563,-0.124435 -0.15625,-0.125 -6.87e-4,-5.65e-4 -0.155512,-0.124504 -0.15625,-0.125 -7.38e-4,-4.96e-4 -0.155467,-0.124578 -0.15625,-0.125 -7.83e-4,-4.22e-4 -0.18668,-0.06216 -0.1875,-0.0625 -8.2e-4,-3.44e-4 -0.18665,-0.06224 -0.1875,-0.0625 -8.5e-4,-2.63e-4 -0.186629,-0.06232 -0.1875,-0.0625 8.71e-4,-1.8e-4 0.18665,-0.06224 0.1875,-0.0625 8.5e-4,-2.63e-4 0.18668,-0.06216 0.1875,-0.0625 8.2e-4,-3.44e-4 0.186717,-0.06208 0.1875,-0.0625 7.83e-4,-4.22e-4 0.155512,-0.124504 0.15625,-0.125 7.38e-4,-4.96e-4 0.155563,-0.124435 0.15625,-0.125 6.87e-4,-5.65e-4 0.155621,-0.124371 0.15625,-0.125 6.29e-4,-6.29e-4 0.124435,-0.155563 0.125,-0.15625 5.65e-4,-6.87e-4 0.124504,-0.155512 0.125,-0.15625 4.96e-4,-7.38e-4 0.124578,-0.155467 0.125,-0.15625 4.22e-4,-7.83e-4 0.06216,-0.18668 0.0625,-0.1875 3.44e-4,-8.2e-4 0.06224,-0.18665 0.0625,-0.1875 2.63e-4,-8.5e-4 0.06232,-0.186629 0.0625,-0.1875 1.8e-4,-8.71e-4 0.03115,-0.186616 0.03125,-0.1875 9.5e-5,-8.84e-4 -9e-6,-0.217861 0,-0.21875 l 0,-6 c -9e-6,-8.89e-4 9.5e-5,-0.217866 0,-0.21875 -9.5e-5,-8.84e-4 -0.03107,-0.186629 -0.03125,-0.1875 -1.8e-4,-8.71e-4 -0.06224,-0.18665 -0.0625,-0.1875 -2.63e-4,-8.5e-4 -0.06216,-0.18668 -0.0625,-0.1875 -3.44e-4,-8.2e-4 -0.06208,-0.186717 -0.0625,-0.1875 -4.22e-4,-7.83e-4 -0.124504,-0.155512 -0.125,-0.15625 -4.96e-4,-7.38e-4 -0.124435,-0.155563 -0.125,-0.15625 -5.65e-4,-6.87e-4 -0.124371,-0.155621 -0.125,-0.15625 -6.29e-4,-6.29e-4 -0.155563,-0.124435 -0.15625,-0.125 -6.87e-4,-5.65e-4 -0.155512,-0.124504 -0.15625,-0.125 -7.38e-4,-4.96e-4 -0.155467,-0.124578 -0.15625,-0.125 -7.83e-4,-4.22e-4 -0.18668,-0.06216 -0.1875,-0.0625 -8.2e-4,-3.44e-4 -0.18665,-0.06224 -0.1875,-0.0625 -8.5e-4,-2.63e-4 -0.186629,-0.06232 -0.1875,-0.0625 8.71e-4,-1.8e-4 0.18665,-0.06224 0.1875,-0.0625 8.5e-4,-2.63e-4 0.18668,-0.06216 0.1875,-0.0625 8.2e-4,-3.44e-4 0.186717,-0.06208 0.1875,-0.0625 7.83e-4,-4.22e-4 0.155512,-0.124504 0.15625,-0.125 7.38e-4,-4.96e-4 0.155563,-0.124435 0.15625,-0.125 6.87e-4,-5.65e-4 0.155621,-0.124371 0.15625,-0.125 6.29e-4,-6.29e-4 0.124435,-0.155563 0.125,-0.15625 5.65e-4,-6.87e-4 0.124504,-0.155512 0.125,-0.15625 4.96e-4,-7.38e-4 0.124578,-0.155467 0.125,-0.15625 4.22e-4,-7.83e-4 0.06216,-0.18668 0.0625,-0.1875 3.44e-4,-8.2e-4 0.06224,-0.18665 0.0625,-0.1875 2.63e-4,-8.5e-4 0.06232,-0.186629 0.0625,-0.1875 1.8e-4,-8.71e-4 0.03115,-0.186616 0.03125,-0.1875 9.5e-5,-8.84e-4 -9e-6,-0.217861 0,-0.21875 l 0,-6 c -9e-6,-8.89e-4 9.5e-5,-0.217866 0,-0.21875 -9.5e-5,-8.84e-4 -0.03107,-0.186629 -0.03125,-0.1875 -1.8e-4,-8.71e-4 -0.06224,-0.18665 -0.0625,-0.1875 -2.63e-4,-8.5e-4 -0.06216,-0.18668 -0.0625,-0.1875 -3.44e-4,-8.2e-4 -0.06208,-0.186717 -0.0625,-0.1875 -4.22e-4,-7.83e-4 -0.124504,-0.155512 -0.125,-0.15625 -4.96e-4,-7.38e-4 -0.124435,-0.155563 -0.125,-0.15625 -5.65e-4,-6.87e-4 -0.124371,-0.155621 -0.125,-0.15625 -6.29e-4,-6.29e-4 -0.155563,-0.124435 -0.15625,-0.125 -6.87e-4,-5.65e-4 -0.155512,-0.124504 -0.15625,-0.125 -7.38e-4,-4.96e-4 -0.155467,-0.124578 -0.15625,-0.125 -7.83e-4,-4.22e-4 -0.18668,-0.06216 -0.1875,-0.0625 -8.2e-4,-3.44e-4 -0.18665,-0.06224 -0.1875,-0.0625 -8.5e-4,-2.63e-4 -0.186629,-0.06232 -0.1875,-0.0625 -8.71e-4,-1.8e-4 -0.186616,-0.03115 -0.1875,-0.03125 -8.84e-4,-9.5e-5 -0.217861,9e-6 -0.21875,0 l -47.90625,0 c -4.8e-4,-5.1e-5 -0.09327,-0.03122 -0.09375,-0.03125 -4.82e-4,-2.5e-5 -0.124517,0 -0.125,0 -4.83e-4,0 -0.09327,-2.5e-5 -0.09375,0 z M 59.9375,53.90625 c -5.12e-4,1.9e-5 -0.12449,0.0312 -0.125,0.03125 -8.54e-4,8.5e-5 -0.186658,0.03108 -0.1875,0.03125 -8.42e-4,1.65e-4 -0.186677,0.03101 -0.1875,0.03125 -8.23e-4,2.43e-4 -0.186703,0.06218 -0.1875,0.0625 -7.97e-4,3.18e-4 -0.186736,0.09336 -0.1875,0.09375 -7.64e-4,3.91e-4 -0.155526,0.09329 -0.15625,0.09375 -7.24e-4,4.61e-4 -0.155573,0.09322 -0.15625,0.09375 -6.77e-4,5.27e-4 -0.155625,0.124412 -0.15625,0.125 -6.25e-4,5.88e-4 -0.124432,0.155607 -0.125,0.15625 -5.68e-4,6.43e-4 -0.124495,0.124306 -0.125,0.125 -5.05e-4,6.94e-4 -0.09331,0.186762 -0.09375,0.1875 -4.38e-4,7.38e-4 -0.09338,0.155475 -0.09375,0.15625 -3.67e-4,7.75e-4 -0.06221,0.186694 -0.0625,0.1875 -2.93e-4,8.06e-4 -0.06228,0.18667 -0.0625,0.1875 -2.17e-4,8.3e-4 -0.06236,0.186653 -0.0625,0.1875 -1.38e-4,8.47e-4 5.9e-5,0.186644 0,0.1875 -4.9e-5,7.13e-4 9.36e-4,0.111661 0,0.15625 -1.87e-4,0.0089 -4e-6,0.03111 0,0.03125 l 0,2.9375 -19.9375,0 0,-2.96875 c -2e-6,-4.81e-4 2.7e-5,-0.12452 0,-0.125 -2.7e-5,-4.8e-4 5.2e-5,-0.09327 0,-0.09375 -5.2e-5,-4.78e-4 7.7e-5,-0.09327 0,-0.09375 -7.7e-5,-4.75e-4 -0.03115,-0.12453 -0.03125,-0.125 -1.02e-4,-4.7e-4 -0.03112,-0.09329 -0.03125,-0.09375 -1.26e-4,-4.64e-4 -0.0311,-0.09329 -0.03125,-0.09375 -1.5e-4,-4.57e-4 -0.03108,-0.124552 -0.03125,-0.125 -1.74e-4,-4.48e-4 -0.03105,-0.09331 -0.03125,-0.09375 -1.97e-4,-4.39e-4 -0.06228,-0.09332 -0.0625,-0.09375 -2.2e-4,-4.28e-4 -0.06226,-0.09334 -0.0625,-0.09375 -2.42e-4,-4.15e-4 -0.03099,-0.09335 -0.03125,-0.09375 -2.64e-4,-4.02e-4 -0.06222,-0.09336 -0.0625,-0.09375 -2.84e-4,-3.88e-4 -0.0622,-0.06213 -0.0625,-0.0625 -3.04e-4,-3.72e-4 -0.09343,-0.09339 -0.09375,-0.09375 -3.23e-4,-3.56e-4 -0.06216,-0.09341 -0.0625,-0.09375 -3.42e-4,-3.39e-4 -0.09339,-0.06218 -0.09375,-0.0625 -3.59e-4,-3.2e-4 -0.06213,-0.0622 -0.0625,-0.0625 -3.75e-4,-3.01e-4 -0.09336,-0.06222 -0.09375,-0.0625 -3.9e-4,-2.81e-4 -0.09334,-0.06224 -0.09375,-0.0625 -4.05e-4,-2.6e-4 -0.09333,-0.06226 -0.09375,-0.0625 -4.18e-4,-2.38e-4 -0.09332,-0.06228 -0.09375,-0.0625 -4.3e-4,-2.16e-4 -0.09331,-0.03106 -0.09375,-0.03125 -4.4e-4,-1.93e-4 -0.0933,-0.03108 -0.09375,-0.03125 -4.5e-4,-1.7e-4 -0.09329,-0.06235 -0.09375,-0.0625 -4.58e-4,-1.46e-4 -0.124535,1.22e-4 -0.125,0 -4.65e-4,-1.22e-4 -0.09328,-0.03115 -0.09375,-0.03125 -4.71e-4,-9.7e-5 -0.09327,-0.03118 -0.09375,-0.03125 -4.75e-4,-7.3e-5 -0.124521,4.8e-5 -0.125,0 -4.79e-4,-4.8e-5 -0.09327,-0.03123 -0.09375,-0.03125 -4.8e-4,-2.2e-5 -0.124519,-3e-6 -0.125,0 -4.81e-4,3e-6 -0.09327,-2.8e-5 -0.09375,0 -3.67e-4,2.1e-5 -0.06424,0.02875 -0.09375,0.03125 -0.0091,7.69e-4 -0.03114,-1.2e-5 -0.03125,0 -0.04375,0.0057 -0.124394,-1.05e-4 -0.125,0 -7.58e-4,1.31e-4 -0.186756,0.06231 -0.1875,0.0625 -7.44e-4,1.94e-4 -0.155525,0.03099 -0.15625,0.03125 -7.25e-4,2.56e-4 -0.155549,0.06218 -0.15625,0.0625 -7.01e-4,3.16e-4 -0.155578,0.09338 -0.15625,0.09375 -6.72e-4,3.73e-4 -0.155611,0.09332 -0.15625,0.09375 -6.39e-4,4.28e-4 -0.124399,0.09327 -0.125,0.09375 -6.01e-4,4.8e-4 -0.124442,0.09322 -0.125,0.09375 a 1.0139272,1.0139272 0 0 0 -0.03125,0.03125 l -8,8 c -6.17e-4,6.19e-4 -0.124445,0.155575 -0.125,0.15625 -5.55e-4,6.75e-4 -0.124512,0.155526 -0.125,0.15625 -4.88e-4,7.24e-4 -0.09333,0.155482 -0.09375,0.15625 -4.17e-4,7.68e-4 -0.09341,0.186696 -0.09375,0.1875 -3.42e-4,8.04e-4 -0.06224,0.186667 -0.0625,0.1875 -2.64e-4,8.33e-4 -0.06232,0.186646 -0.0625,0.1875 -1.84e-4,8.54e-4 -0.03115,0.186632 -0.03125,0.1875 -1.02e-4,8.68e-4 1.9e-5,0.186626 0,0.1875 -1.9e-5,8.74e-4 -6.4e-5,0.186629 0,0.1875 6.4e-5,8.71e-4 0.0311,0.217889 0.03125,0.21875 1.47e-4,8.61e-4 0.03102,0.186657 0.03125,0.1875 2.28e-4,8.43e-4 0.06219,0.186682 0.0625,0.1875 3.07e-4,8.18e-4 0.09337,0.155465 0.09375,0.15625 3.84e-4,7.85e-4 0.09329,0.186755 0.09375,0.1875 4.57e-4,7.45e-4 0.09323,0.155552 0.09375,0.15625 5.25e-4,6.98e-4 0.124411,0.155605 0.125,0.15625 l 8,9 c 4.61e-4,5.08e-4 0.09325,0.09328 0.09375,0.09375 4.98e-4,4.72e-4 0.124468,0.124566 0.125,0.125 5.32e-4,4.34e-4 0.124438,0.09336 0.125,0.09375 5.62e-4,3.93e-4 0.12441,0.06215 0.125,0.0625 5.9e-4,3.5e-4 0.124385,0.09345 0.125,0.09375 6.15e-4,3.05e-4 0.155614,0.06224 0.15625,0.0625 6.36e-4,2.58e-4 0.155597,0.03104 0.15625,0.03125 6.53e-4,2.1e-4 0.124333,0.06234 0.125,0.0625 6.67e-4,1.6e-4 0.155573,0.03114 0.15625,0.03125 6.77e-4,1.1e-4 0.155567,-5.9e-5 0.15625,0 6.83e-4,5.9e-5 0.155564,-8e-6 0.15625,0 6.86e-4,8e-6 0.155565,4.3e-5 0.15625,0 6.85e-4,-4.3e-5 0.155571,9.5e-5 0.15625,0 6.79e-4,-9.5e-5 0.15558,-0.0311 0.15625,-0.03125 6.7e-4,-1.45e-4 0.124342,-0.03105 0.125,-0.03125 6.58e-4,-1.95e-4 0.155609,-0.06226 0.15625,-0.0625 6.41e-4,-2.43e-4 0.155629,-0.06221 0.15625,-0.0625 6.21e-4,-2.91e-4 0.124402,-0.06216 0.125,-0.0625 5.98e-4,-3.36e-4 0.124429,-0.09337 0.125,-0.09375 5.71e-4,-3.8e-4 0.124459,-0.09333 0.125,-0.09375 5.41e-4,-4.22e-4 0.124492,-0.09329 0.125,-0.09375 5.08e-4,-4.61e-4 0.09328,-0.09325 0.09375,-0.09375 4.72e-4,-4.97e-4 0.124566,-0.124469 0.125,-0.125 4.34e-4,-5.31e-4 0.09336,-0.124438 0.09375,-0.125 3.93e-4,-5.62e-4 0.06215,-0.12441 0.0625,-0.125 3.5e-4,-5.9e-4 0.09345,-0.124385 0.09375,-0.125 3.05e-4,-6.15e-4 0.06224,-0.155614 0.0625,-0.15625 2.58e-4,-6.36e-4 0.03104,-0.124347 0.03125,-0.125 2.1e-4,-6.53e-4 0.06234,-0.155583 0.0625,-0.15625 1.6e-4,-6.67e-4 0.03114,-0.155573 0.03125,-0.15625 1.1e-4,-6.77e-4 -5.9e-5,-0.155567 0,-0.15625 5.9e-5,-6.83e-4 -8e-6,-0.155564 0,-0.15625 l 0,-3.96875 19.9375,0 0,3.96875 c 8e-6,6.86e-4 -5.9e-5,0.155567 0,0.15625 5.9e-5,6.83e-4 -1.1e-4,0.155573 0,0.15625 1.1e-4,6.77e-4 0.03109,0.155583 0.03125,0.15625 1.6e-4,6.67e-4 0.06229,0.155597 0.0625,0.15625 2.1e-4,6.53e-4 0.03099,0.124364 0.03125,0.125 2.58e-4,6.36e-4 0.0622,0.155635 0.0625,0.15625 3.05e-4,6.15e-4 0.0934,0.12441 0.09375,0.125 3.5e-4,5.9e-4 0.06211,0.124438 0.0625,0.125 3.93e-4,5.62e-4 0.09332,0.124469 0.09375,0.125 4.34e-4,5.31e-4 0.124528,0.124503 0.125,0.125 4.72e-4,4.97e-4 0.09324,0.09329 0.09375,0.09375 5.08e-4,4.61e-4 0.124459,0.09333 0.125,0.09375 5.41e-4,4.22e-4 0.124429,0.09337 0.125,0.09375 5.71e-4,3.8e-4 0.124402,0.09341 0.125,0.09375 5.98e-4,3.36e-4 0.124379,0.06221 0.125,0.0625 6.21e-4,2.91e-4 0.155609,0.06226 0.15625,0.0625 6.41e-4,2.43e-4 0.155592,0.0623 0.15625,0.0625 6.58e-4,1.95e-4 0.12433,0.0311 0.125,0.03125 6.7e-4,1.45e-4 0.155571,0.03115 0.15625,0.03125 6.79e-4,9.5e-5 0.155565,-4.3e-5 0.15625,0 6.85e-4,4.3e-5 0.155564,8e-6 0.15625,0 6.86e-4,-8e-6 0.155567,5.9e-5 0.15625,0 6.83e-4,-5.9e-5 0.155573,1.1e-4 0.15625,0 C 60.344427,75.03114 60.499333,75.00016 60.5,75 c 6.67e-4,-1.6e-4 0.124347,-0.06229 0.125,-0.0625 6.53e-4,-2.1e-4 0.155614,-0.03099 0.15625,-0.03125 6.36e-4,-2.58e-4 0.155635,-0.0622 0.15625,-0.0625 6.15e-4,-3.05e-4 0.12441,-0.0934 0.125,-0.09375 5.9e-4,-3.5e-4 0.124438,-0.06211 0.125,-0.0625 5.62e-4,-3.93e-4 0.124468,-0.09332 0.125,-0.09375 5.32e-4,-4.34e-4 0.124502,-0.124528 0.125,-0.125 4.98e-4,-4.72e-4 0.09329,-0.09324 0.09375,-0.09375 l 8,-9 c 5.89e-4,-6.45e-4 0.124475,-0.155552 0.125,-0.15625 5.25e-4,-6.98e-4 0.09329,-0.155505 0.09375,-0.15625 4.57e-4,-7.45e-4 0.09337,-0.186715 0.09375,-0.1875 3.84e-4,-7.85e-4 0.09344,-0.155432 0.09375,-0.15625 3.07e-4,-8.18e-4 0.06227,-0.186657 0.0625,-0.1875 2.28e-4,-8.43e-4 0.0311,-0.186639 0.03125,-0.1875 1.47e-4,-8.61e-4 0.03119,-0.217879 0.03125,-0.21875 6.4e-5,-8.71e-4 1.9e-5,-0.186626 0,-0.1875 -1.9e-5,-8.74e-4 1.02e-4,-0.186632 0,-0.1875 -1.02e-4,-8.68e-4 -0.03107,-0.186646 -0.03125,-0.1875 -1.84e-4,-8.54e-4 -0.06224,-0.186667 -0.0625,-0.1875 -2.64e-4,-8.33e-4 -0.06216,-0.186696 -0.0625,-0.1875 -3.42e-4,-8.04e-4 -0.09333,-0.186732 -0.09375,-0.1875 -4.17e-4,-7.68e-4 -0.09326,-0.155526 -0.09375,-0.15625 -4.88e-4,-7.24e-4 -0.124445,-0.155575 -0.125,-0.15625 -5.55e-4,-6.75e-4 -0.124383,-0.155631 -0.125,-0.15625 l -8,-8 c -3.56e-4,-3.68e-4 -0.06212,-0.06215 -0.0625,-0.0625 -3.76e-4,-3.48e-4 -0.09336,-0.09342 -0.09375,-0.09375 -3.95e-4,-3.26e-4 -0.09334,-0.0622 -0.09375,-0.0625 -4.13e-4,-3.03e-4 -0.09332,-0.06222 -0.09375,-0.0625 -4.29e-4,-2.8e-4 -0.09331,-0.06224 -0.09375,-0.0625 -4.44e-4,-2.56e-4 -0.09329,-0.06227 -0.09375,-0.0625 -4.58e-4,-2.3e-4 -0.12453,-0.03105 -0.125,-0.03125 -4.7e-4,-2.04e-4 -0.09327,-0.03107 -0.09375,-0.03125 -4.8e-4,-1.78e-4 -0.12451,-0.06235 -0.125,-0.0625 -4.9e-4,-1.51e-4 -0.09325,-0.03113 -0.09375,-0.03125 -4.97e-4,-1.23e-4 -0.124497,9.5e-5 -0.125,0 -5.03e-4,-9.5e-5 -0.09324,-0.03118 -0.09375,-0.03125 -5.08e-4,-6.7e-5 -0.124489,3.9e-5 -0.125,0 -5.11e-4,-3.9e-5 -0.124488,-0.03124 -0.125,-0.03125 -5.12e-4,-1e-5 -0.09324,-1.9e-5 -0.09375,0 z" transform="translate(100,0)"/><path style="opacity:.15;fill:#000;fill-opacity:1;stroke:none" id="path3770" d="M 23.78125,23.96875 A 1.0413455,1.0413455 0 0 0 22.96875,25 l 0,6 A 1.0413455,1.0413455 0 0 0 24,32.03125 l 48,0 A 1.0413455,1.0413455 0 0 0 73.03125,31 l 0,-6 A 1.0413455,1.0413455 0 0 0 72,23.96875 l -48,0 a 1.0413455,1.0413455 0 0 0 -0.21875,0 z m 0,10 A 1.0413455,1.0413455 0 0 0 22.96875,35 l 0,6 A 1.0413455,1.0413455 0 0 0 24,42.03125 l 48,0 A 1.0413455,1.0413455 0 0 0 73.03125,41 l 0,-6 A 1.0413455,1.0413455 0 0 0 72,33.96875 l -48,0 a 1.0413455,1.0413455 0 0 0 -0.21875,0 z m 0,10 A 1.0413455,1.0413455 0 0 0 22.96875,45 l 0,6 A 1.0413455,1.0413455 0 0 0 24,52.03125 l 48,0 A 1.0413455,1.0413455 0 0 0 73.03125,51 l 0,-6 A 1.0413455,1.0413455 0 0 0 72,43.96875 l -48,0 a 1.0413455,1.0413455 0 0 0 -0.21875,0 z m 12.09375,11 A 1.0413455,1.0413455 0 0 0 35.25,55.25 l -8,8 a 1.0413455,1.0413455 0 0 0 -0.03125,1.4375 l 8,9 A 1.0413455,1.0413455 0 0 0 37.03125,73 l 0,-4.96875 21.9375,0 0,4.96875 a 1.0413455,1.0413455 0 0 0 1.8125,0.6875 l 8,-9 A 1.0413455,1.0413455 0 0 0 68.75,63.25 l -8,-8 A 1.0413455,1.0413455 0 0 0 58.96875,56 l 0,3.96875 -21.9375,0 0,-3.96875 A 1.0413455,1.0413455 0 0 0 35.875,54.96875 z" transform="translate(100,0)"/><path id="path3772" d="m 124,25 0,6 48,0 0,-6 -48,0 z m 0,10 0,6 48,0 0,-6 -48,0 z m 0,10 0,6 48,0 0,-6 -48,0 z m 12,11 -8,8 8,9 0,-6 24,0 0,6 8,-9 -8,-8 0,5 -24,0 0,-5 z" style="opacity:.3;fill:#000;fill-opacity:1;stroke:none"/><path style="fill:url(#linearGradient3746);fill-opacity:1;stroke:none" id="path3724" d="m 124,24 0,6 48,0 0,-6 -48,0 z m 0,10 0,6 48,0 0,-6 -48,0 z m 0,10 0,6 48,0 0,-6 -48,0 z m 12,11 -8,8 8,9 0,-6 24,0 0,6 8,-9 -8,-8 0,5 -24,0 0,-5 z"/><path style="opacity:.75;fill:#fff;fill-opacity:1;stroke:none" id="path3748" d="m 124,24 0,1 48,0 0,-1 -48,0 z m 0,10 0,1 48,0 0,-1 -48,0 z m 0,10 0,1 48,0 0,-1 -48,0 z m 12,11 -8,8 0.46875,0.53125 L 136,56 l 0,-1 z m 24,0 0,1 7.53125,7.53125 L 168,63 160,55 z m -24,5 0,1 24,0 0,-1 -24,0 z"/><path style="opacity:.15;fill:#000;fill-opacity:1;stroke:none" id="path3757" d="m 124,29 0,1 48,0 0,-1 -48,0 z m 0,10 0,1 48,0 0,-1 -48,0 z m 0,10 0,1 48,0 0,-1 -48,0 z M 128.46875,62.53125 128,63 l 8,9 0,-1 -7.53125,-8.46875 z m 39.0625,0 L 160,71 l 0,1 8,-9 -0.46875,-0.46875 z M 136,65 l 0,1 24,0 0,-1 -24,0 z"/><path style="opacity:1;color:#000;fill:url(#linearGradient3762);fill-opacity:1;fill-rule:nonzero;stroke:none;stroke-width:1;marker:none;visibility:visible;display:inline;overflow:visible;enable-background:accumulate" id="rect2957" d="M 30.59375 22 C 28.054583 22 26 24.084107 26 26.65625 L 26 69.34375 C 26 71.915893 28.054583 74 30.59375 74 L 65.40625 74 C 67.945417 74 70 71.915893 70 69.34375 L 70 26.65625 C 70 24.084107 67.945417 22 65.40625 22 L 30.59375 22 z M 34 28 L 35 28 L 61 28 L 62 28 C 63.108 28 64 28.892 64 30 L 64 31 L 64 65 L 64 66 C 64 67.108 63.108 68 62 68 L 61 68 L 35 68 L 34 68 C 32.892 68 32 67.108 32 66 L 32 65 L 32 31 L 32 30 C 32 28.892 32.892 28 34 28 z M 36 34 L 36 38 L 60 38 L 60 34 L 36 34 z M 36 42 L 36 46 L 60 46 L 60 42 L 36 42 z M 36 50 L 36 54 L 60 54 L 60 50 L 36 50 z M 50 56 L 50 58 L 52 58 L 52 62 L 50 62 L 50 64 L 56 64 L 56 62 L 54 62 L 54 58 L 56 58 L 56 56 L 50 56 z M 36 58 L 36 62 L 48 62 L 48 58 L 36 58 z"/><path style="opacity:.75;color:#000;fill:#fff;fill-opacity:1;fill-rule:nonzero;stroke:none;stroke-width:1;marker:none;visibility:visible;display:inline;overflow:visible;enable-background:accumulate" id="path3764" d="M 30.59375 22 C 28.054583 22 26 24.084107 26 26.65625 L 26 27.65625 C 26 25.084107 28.054583 23 30.59375 23 L 65.40625 23 C 67.945417 23 70 25.084107 70 27.65625 L 70 26.65625 C 70 24.084107 67.945417 22 65.40625 22 L 30.59375 22 z M 36 34 L 36 35 L 60 35 L 60 34 L 36 34 z M 36 42 L 36 43 L 60 43 L 60 42 L 36 42 z M 36 50 L 36 51 L 60 51 L 60 50 L 36 50 z M 50 56 L 50 57 L 56 57 L 56 56 L 50 56 z M 36 58 L 36 59 L 48 59 L 48 58 L 36 58 z M 50 62 L 50 63 L 52 63 L 52 62 L 50 62 z M 54 62 L 54 63 L 56 63 L 56 62 L 54 62 z M 32 66 L 32 67 C 32 68.108 32.892 69 34 69 L 35 69 L 61 69 L 62 69 C 63.108 69 64 68.108 64 67 L 64 66 C 64 67.108 63.108 68 62 68 L 61 68 L 35 68 L 34 68 C 32.892 68 32 67.108 32 66 z"/><path style="opacity:.15;color:#000;fill:#000;fill-opacity:1;fill-rule:nonzero;stroke:none;stroke-width:1;marker:none;visibility:visible;display:inline;overflow:visible;enable-background:accumulate" id="path3773" d="M 34 27 C 32.892 27 32 27.892 32 29 L 32 30 C 32 28.892 32.892 28 34 28 L 35 28 L 61 28 L 62 28 C 63.108 28 64 28.892 64 30 L 64 29 C 64 27.892 63.108 27 62 27 L 61 27 L 35 27 L 34 27 z M 36 37 L 36 38 L 60 38 L 60 37 L 36 37 z M 36 45 L 36 46 L 60 46 L 60 45 L 36 45 z M 36 53 L 36 54 L 60 54 L 60 53 L 36 53 z M 50 57 L 50 58 L 52 58 L 52 57 L 50 57 z M 54 57 L 54 58 L 56 58 L 56 57 L 54 57 z M 36 61 L 36 62 L 48 62 L 48 61 L 36 61 z M 50 63 L 50 64 L 56 64 L 56 63 L 50 63 z M 26 68.34375 L 26 69.34375 C 26 71.915893 28.054583 74 30.59375 74 L 65.40625 74 C 67.945417 74 70 71.915893 70 69.34375 L 70 68.34375 C 70 70.915893 67.945417 73 65.40625 73 L 30.59375 73 C 28.054583 73 26 70.915893 26 68.34375 z"/></g></svg>