<svg xmlns="http://www.w3.org/2000/svg" xmlns:svg="http://www.w3.org/2000/svg" xmlns:xlink="http://www.w3.org/1999/xlink" id="svg2" width="22" height="22" version="1.0"><defs id="defs4"><linearGradient id="StandardGradient" x1="8.74" x2="8.74" y1="4.536" y2="20.492" gradientTransform="scale(1.1338934,0.8819171)" gradientUnits="userSpaceOnUse"><stop style="stop-color:#000;stop-opacity:.86274511" id="stop3283" offset="0"/><stop style="stop-color:#000;stop-opacity:.47058824" id="stop3285" offset="1"/></linearGradient><linearGradient id="linearGradient3629" x1="8.74" x2="8.74" y1="4.536" y2="20.492" gradientTransform="matrix(1.1338934,0,0,0.8819171,-30,0)" gradientUnits="userSpaceOnUse" xlink:href="#StandardGradient"/><clipPath id="clipPath3636" clipPathUnits="userSpaceOnUse"><path style="fill:#f0f;fill-opacity:1;stroke:none;display:inline" id="path3638" d="m -30,0 0,22 22,0 0,-22 -22,0 z M -12.90625,4 -10,6.9375 -21.03125,18 -28,11 l 2.90625,-2.9375 4.0625,4.09375 L -12.90625,4 z"/></clipPath><filter id="filter3640"><feGaussianBlur id="feGaussianBlur3642" stdDeviation=".48"/></filter><linearGradient id="linearGradient4705" x1="8.74" x2="8.74" y1="4.536" y2="20.492" gradientTransform="scale(1.1338934,0.8819171)" gradientUnits="userSpaceOnUse" xlink:href="#StandardGradient"/><linearGradient id="linearGradient4709" x1="8.74" x2="8.74" y1="4.536" y2="20.492" gradientTransform="scale(1.1338934,0.8819171)" gradientUnits="userSpaceOnUse" xlink:href="#StandardGradient"/></defs><metadata id="metadata7"/><g id="layer3" style="display:inline"><path style="fill:#fff;fill-opacity:1;stroke:none;opacity:.15" id="path4707" d="M 16.90625 3.0625 A 0.94446608 0.94446608 0 0 0 16.4375 3.34375 L 8.96875 10.84375 L 5.5625 7.40625 A 0.94446608 0.94446608 0 0 0 4.25 7.40625 L 1.34375 10.34375 A 0.94446608 0.94446608 0 0 0 1.34375 11.65625 L 8.3125 18.65625 A 0.94446608 0.94446608 0 0 0 9.625 18.65625 L 20.65625 7.59375 A 0.94446608 0.94446608 0 0 0 20.65625 6.28125 L 17.75 3.34375 A 0.94446608 0.94446608 0 0 0 16.90625 3.0625 z M 17.09375 4 L 20 6.9375 L 8.96875 18 L 2 11 L 4.90625 8.0625 L 8.96875 12.15625 L 17.09375 4 z"/><path style="opacity:1;fill:url(#StandardGradient);fill-opacity:1;stroke:none;stroke-width:1.00000011999999994;stroke-linecap:round;stroke-linejoin:miter;stroke-miterlimit:4;stroke-dasharray:none;stroke-opacity:1" id="Symbol" d="M 17.087743,4 L 8.9726192,12.14463 L 4.9122593,8.0723227 L 2,10.997189 L 8.9670195,18 L 8.9726192,17.99438 L 8.9782204,18 L 20,6.9248642 L 17.087743,4 z"/><path style="opacity:.5;fill:#000;fill-opacity:1;stroke:none;stroke-width:1.00000011999999994;stroke-linecap:round;stroke-linejoin:miter;stroke-miterlimit:4;stroke-dasharray:none;stroke-opacity:1" id="BevelShadow" d="M 17.09375 4 L 8.96875 12.15625 L 4.90625 8.0625 L 2 11 L 2.5 11.5 L 4.90625 9.0625 L 8.96875 13.15625 L 17.09375 5 L 19.5 7.4375 L 20 6.9375 L 17.09375 4 z"/><path style="opacity:.3;fill:#fff;fill-opacity:1;stroke:none;stroke-width:1.00000011999999994;stroke-linecap:round;stroke-linejoin:miter;stroke-miterlimit:4;stroke-dasharray:none;stroke-opacity:1" id="BevelHighlight" d="M 20 6.9375 L 8.96875 18 L 2 11 L 2 12 L 8.96875 19 L 20 7.9375 L 20 6.9375 z"/></g></svg>