<svg xmlns="http://www.w3.org/2000/svg" xmlns:svg="http://www.w3.org/2000/svg" xmlns:xlink="http://www.w3.org/1999/xlink" id="svg2" width="22" height="22" version="1.0"><defs id="defs4"><linearGradient id="SpecificGradient" x1="10.762" x2="10.762" y1="4" y2="18.011" gradientUnits="userSpaceOnUse"><stop style="stop-color:#ad0707;stop-opacity:1" id="stop3292" offset="0"/><stop style="stop-color:#f75535;stop-opacity:1" id="stop3294" offset="1"/></linearGradient><linearGradient id="linearGradient3627" x1="10.762" x2="10.762" y1="4" y2="18.011" gradientTransform="translate(-30,0)" gradientUnits="userSpaceOnUse" xlink:href="#SpecificGradient"/><clipPath id="clipPath3634" clipPathUnits="userSpaceOnUse"><path style="fill:#f0f;fill-opacity:1;stroke:none;display:inline" id="path3636" d="m -30,0 0,22 22,0 0,-22 -22,0 z M -22.78125,4 -19,7.78125 -15.21875,4 -12,7.21875 -15.78125,11 -12,14.78125 -15.21875,18 -19,14.21875 -22.78125,18 -26,14.78125 -22.21875,11 -26,7.21875 -22.78125,4 z"/></clipPath><linearGradient id="linearGradient3782" x1="10.762" x2="10.762" y1="4" y2="18.011" gradientUnits="userSpaceOnUse" xlink:href="#SpecificGradient"/><linearGradient id="linearGradient3786" x1="10.762" x2="10.762" y1="4" y2="18.011" gradientUnits="userSpaceOnUse" xlink:href="#SpecificGradient"/></defs><metadata id="metadata7"/><g id="layer3" style="display:inline"><path style="fill:#fff;fill-opacity:1;stroke:none;opacity:.15" id="path3784" d="M 7.09375 2.96875 A 1.0371495 1.0371495 0 0 0 6.5 3.28125 L 3.28125 6.5 A 1.0371495 1.0371495 0 0 0 3.28125 7.9375 L 6.34375 11 L 3.28125 14.0625 A 1.0371495 1.0371495 0 0 0 3.28125 15.5 L 6.5 18.71875 A 1.0371495 1.0371495 0 0 0 7.9375 18.71875 L 11 15.65625 L 14.0625 18.71875 A 1.0371495 1.0371495 0 0 0 15.5 18.71875 L 18.71875 15.5 A 1.0371495 1.0371495 0 0 0 18.71875 14.0625 L 15.65625 11 L 18.71875 7.9375 A 1.0371495 1.0371495 0 0 0 18.71875 6.5 L 15.5 3.28125 A 1.0371495 1.0371495 0 0 0 14.0625 3.28125 L 11 6.34375 L 7.9375 3.28125 A 1.0371495 1.0371495 0 0 0 7.09375 2.96875 z M 7.21875 4 L 11 7.78125 L 14.78125 4 L 18 7.21875 L 14.21875 11 L 18 14.78125 L 14.78125 18 L 11 14.21875 L 7.21875 18 L 4 14.78125 L 7.78125 11 L 4 7.21875 L 7.21875 4 z"/><path style="fill:url(#SpecificGradient);fill-opacity:1;stroke:none;stroke-width:1;stroke-linecap:round;stroke-linejoin:miter;stroke-miterlimit:4;stroke-dasharray:none;stroke-opacity:1" id="Symbol" d="M 14.769231,3.9999998 L 11,7.7692305 L 7.2307694,3.9999998 L 4,7.230769 L 7.7692309,10.999999 L 4,14.76923 L 7.2307694,18 L 11,14.230768 L 14.769231,18 L 18,14.76923 L 14.230769,10.999999 L 18,7.230769 L 14.769231,3.9999998 z"/><path style="fill:#500000;fill-opacity:1;stroke:none;stroke-width:1;stroke-linecap:round;stroke-linejoin:miter;stroke-miterlimit:4;stroke-dasharray:none;stroke-opacity:1;opacity:.5" id="BevelShadow" d="M 7.21875 4 L 4 7.21875 L 4.5 7.71875 L 7.21875 5 L 11 8.78125 L 14.78125 5 L 17.5 7.71875 L 18 7.21875 L 14.78125 4 L 11 7.78125 L 7.21875 4 z M 7.78125 11 L 7.21875 11.5625 L 4 14.78125 L 4.5 15.28125 L 7.78125 12 L 7.78125 11 z M 14.21875 11 L 14.21875 12 L 17.5 15.28125 L 18 14.78125 L 14.8125 11.59375 L 14.71875 11.5 L 14.21875 11 z"/><path style="fill:#fff;fill-opacity:1;stroke:none;stroke-width:1;stroke-linecap:round;stroke-linejoin:miter;stroke-miterlimit:4;stroke-dasharray:none;stroke-opacity:1;opacity:.3" id="BevelHighlight" d="M 4 7.21875 L 4 8.21875 L 7.28125 11.5 L 7.78125 11 L 4 7.21875 z M 18 7.21875 L 14.21875 11 L 14.71875 11.5 L 18 8.21875 L 18 7.21875 z M 11 14.21875 L 7.21875 18 L 4 14.78125 L 4 15.78125 L 7.21875 19 L 11 15.21875 L 14.78125 19 L 18 15.78125 L 18 14.78125 L 14.78125 18 L 11 14.21875 z"/></g></svg>