<svg xmlns="http://www.w3.org/2000/svg" xmlns:svg="http://www.w3.org/2000/svg" xmlns:xlink="http://www.w3.org/1999/xlink" id="svg2" width="22" height="22" version="1.0"><defs id="defs4"><linearGradient id="StandardGradient" x1="10.744" x2="10.744" y1="16.767" y2="3.686" gradientTransform="matrix(0.930775,0,0,-1.0743735,0,22)" gradientUnits="userSpaceOnUse"><stop id="stop3337" offset="0" style="stop-color:#000;stop-opacity:.86274511"/><stop id="stop3339" offset="1" style="stop-color:#000;stop-opacity:.47058824"/></linearGradient><linearGradient id="linearGradient2853" x1="10.744" x2="10.744" y1="16.767" y2="3.686" gradientTransform="matrix(0.930775,0,0,-1.0743735,-30,22)" gradientUnits="userSpaceOnUse" xlink:href="#StandardGradient"/><clipPath id="clipPath2860" clipPathUnits="userSpaceOnUse"><path style="fill:#f0f;fill-opacity:1;stroke:none;display:inline" id="path2862" d="m -30,0 0,22 22,0 0,-22 -22,0 z m 8,4 6.03125,0 0,5.03125 3.03125,0 L -19,18 -25.0625,9.03125 -22,9.03125 -22,4 z"/></clipPath><filter id="filter3636"><feGaussianBlur id="feGaussianBlur3638" stdDeviation=".391"/></filter><linearGradient id="linearGradient5540" x1="10.744" x2="10.744" y1="16.767" y2="3.686" gradientTransform="matrix(0.930775,0,0,-1.0743735,0,22)" gradientUnits="userSpaceOnUse" xlink:href="#StandardGradient"/><linearGradient id="linearGradient5544" x1="10.744" x2="10.744" y1="16.767" y2="3.686" gradientTransform="matrix(0.930775,0,0,-1.0743735,0,22)" gradientUnits="userSpaceOnUse" xlink:href="#StandardGradient"/></defs><metadata id="metadata7"/><g id="layer1" style="display:inline"><path style="fill:#fff;fill-opacity:1;stroke:none;display:inline;opacity:.15" id="path5542" d="M 7.8125 3 A 0.99786275 0.99786275 0 0 0 7 4 L 7 8.03125 L 4.9375 8.03125 A 0.99786275 0.99786275 0 0 0 4.125 9.59375 L 10.1875 18.5625 A 0.99786275 0.99786275 0 0 0 11.8125 18.5625 L 17.875 9.59375 A 0.99786275 0.99786275 0 0 0 17.0625 8.03125 L 15.03125 8.03125 L 15.03125 4 A 0.99786275 0.99786275 0 0 0 14.03125 3 L 8 3 A 0.99786275 0.99786275 0 0 0 7.90625 3 A 0.99786275 0.99786275 0 0 0 7.8125 3 z M 8 4 L 14.03125 4 L 14.03125 9.03125 L 17.0625 9.03125 L 11 18 L 4.9375 9.03125 L 8 9.03125 L 8 4 z"/><path style="opacity:1;fill:url(#StandardGradient);fill-opacity:1;stroke:none;stroke-width:.99999970000000005;stroke-linecap:round;stroke-linejoin:miter;stroke-miterlimit:4;stroke-dasharray:none;stroke-opacity:1;display:inline" id="Symbol" d="M 4.947729,9.0268336 L 10.997604,17.986005 L 17.052271,9.0268336 L 14.026692,9.0268336 L 14.026692,4.0139946 L 7.989208,4.0139946 L 8,9.0268336 L 4.947729,9.0268336 z"/><path style="opacity:.5;fill:#1a1a1a;fill-opacity:1;stroke:none;stroke-width:.99999970000000005;stroke-linecap:round;stroke-linejoin:miter;stroke-miterlimit:4;stroke-dasharray:none;stroke-opacity:1;display:inline" id="BevelShadow" d="M 8 4 L 8 5.03125 L 14.03125 5.03125 L 14.03125 4 L 8 4 z M 4.9375 9.03125 L 5.625 10.03125 L 8 10.03125 L 8 9.03125 L 4.9375 9.03125 z M 14.03125 9.03125 L 14.03125 10.03125 L 16.375 10.03125 L 17.0625 9.03125 L 14.03125 9.03125 z"/><path style="opacity:.3;fill:#fff;fill-opacity:1;stroke:none;stroke-width:.99999970000000005;stroke-linecap:round;stroke-linejoin:miter;stroke-miterlimit:4;stroke-dasharray:none;stroke-opacity:1;display:inline" id="BevelHighlight" d="M 4.9375 9.03125 L 4.9375 10.03125 L 11 19 L 17.0625 10.03125 L 17.0625 9.03125 L 11 18 L 4.9375 9.03125 z"/></g></svg>