<svg xmlns="http://www.w3.org/2000/svg" xmlns:svg="http://www.w3.org/2000/svg" xmlns:xlink="http://www.w3.org/1999/xlink" id="svg2" width="22" height="22" version="1.0"><defs id="defs4"><linearGradient id="StandardGradient" x1="12.803" x2="12.803" y1="3.736" y2="16.759" gradientTransform="scale(0.930775,1.0743735)" gradientUnits="userSpaceOnUse"><stop id="stop3337" offset="0" style="stop-color:#000;stop-opacity:.86274511"/><stop id="stop3339" offset="1" style="stop-color:#000;stop-opacity:.47058824"/></linearGradient><linearGradient id="linearGradient3626" x1="12.803" x2="12.803" y1="3.736" y2="16.759" gradientTransform="matrix(0.930775,0,0,1.0743735,-30,0)" gradientUnits="userSpaceOnUse" xlink:href="#StandardGradient"/><clipPath id="clipPath3635" clipPathUnits="userSpaceOnUse"><path style="fill:#f0f;fill-opacity:1;stroke:none;display:inline" id="path3637" d="m -30,0 0,22 22,0 0,-22 -22,0 z m 11,4 6.0625,8.96875 -3.03125,0 0,5.03125 -6.03125,0 0,-5.03125 -3.0625,0 L -19,4 z"/></clipPath><linearGradient id="linearGradient2854" x1="12.803" x2="12.803" y1="3.736" y2="16.759" gradientTransform="scale(0.930775,1.0743735)" gradientUnits="userSpaceOnUse" xlink:href="#StandardGradient"/><linearGradient id="linearGradient2857" x1="12.803" x2="12.803" y1="1.861" y2="16.759" gradientTransform="matrix(0.930775,0,0,1.0743735,0,1)" gradientUnits="userSpaceOnUse" xlink:href="#StandardGradient"/><linearGradient id="linearGradient2861" x1="12.803" x2="12.803" y1="1.861" y2="16.759" gradientTransform="matrix(0.930775,0,0,1.0743735,-30,1)" gradientUnits="userSpaceOnUse" xlink:href="#StandardGradient"/><clipPath id="clipPath2868" clipPathUnits="userSpaceOnUse"><path style="fill:#f0f;fill-opacity:1;stroke:none;display:inline" id="path2870" d="m -30,0 0,22 22,0 0,-22 -22,0 z m 5,3 12,0 0,2 -6,0 6.0625,8.96875 -3.03125,0 0,5.03125 -6.03125,0 0,-5.03125 -3.0625,0 L -19,5 l -6,0 0,-2 z"/></clipPath><filter id="filter3644"><feGaussianBlur id="feGaussianBlur3646" stdDeviation=".422"/></filter><linearGradient id="linearGradient4993" x1="12.803" x2="12.803" y1="1.861" y2="16.759" gradientTransform="matrix(0.930775,0,0,1.0743735,0,1)" gradientUnits="userSpaceOnUse" xlink:href="#StandardGradient"/><linearGradient id="linearGradient4997" x1="12.803" x2="12.803" y1="1.861" y2="16.759" gradientTransform="matrix(0.930775,0,0,1.0743735,0,1)" gradientUnits="userSpaceOnUse" xlink:href="#StandardGradient"/></defs><metadata id="metadata7"/><g id="layer1" style="display:inline"><path style="fill:#fff;fill-opacity:1;stroke:none;display:inline;opacity:.15" id="path4995" d="M 4.8125 2.03125 A 0.95886466 0.95886466 0 0 0 4.03125 3 L 4.03125 5 A 0.95886466 0.95886466 0 0 0 5 5.96875 L 9.21875 5.96875 L 4.15625 13.4375 A 0.95886466 0.95886466 0 0 0 4.9375 14.9375 L 7.03125 14.9375 L 7.03125 19 A 0.95886466 0.95886466 0 0 0 8 19.96875 L 14.03125 19.96875 A 0.95886466 0.95886466 0 0 0 15 19 L 15 14.9375 L 17.0625 14.9375 A 0.95886466 0.95886466 0 0 0 17.84375 13.4375 L 12.78125 5.96875 L 17 5.96875 A 0.95886466 0.95886466 0 0 0 17.96875 5 L 17.96875 3 A 0.95886466 0.95886466 0 0 0 17 2.03125 L 5 2.03125 A 0.95886466 0.95886466 0 0 0 4.90625 2.03125 A 0.95886466 0.95886466 0 0 0 4.8125 2.03125 z M 5 3 L 17 3 L 17 5 L 11 5 L 17.0625 13.96875 L 14.03125 13.96875 L 14.03125 19 L 8 19 L 8 13.96875 L 4.9375 13.96875 L 11 5 L 5 5 L 5 3 z"/><path style="fill:url(#linearGradient2857);fill-opacity:1;stroke:none;display:inline" id="Symbol" d="m 5,3 0,2 6,0 6,0 0,-2 -12,0 z m 6,2 -6.0625,8.96875 3.0625,0 L 8,19 l 6.03125,0 0,-5.03125 3.03125,0 L 11,5 z"/><path style="opacity:.5;fill:#000;fill-opacity:1;stroke:none;display:inline" id="BevelShadow" d="M 5,3 5,4 17,4 17,3 5,3 z m 6,2 -6.0625,8.96875 0.6875,0 5.375,-7.9375 5.375,7.9375 0.6875,0 L 11,5 z"/><path style="opacity:.3;fill:#fff;fill-opacity:1;stroke:none;display:inline" id="BevelHighlight" d="M 5,5 5,6 10.3125,6 11,5 5,5 z M 11,5 11.6875,6 17,6 17,5 11,5 z M 4.9375,13.96875 4.9375,15 8,15 l 0,-1.03125 -3.0625,0 z m 9.09375,0 0,1.03125 3.03125,0 0,-1.03125 -3.03125,0 z M 8,19 l 0,1 6.03125,0 0,-1 L 8,19 z"/></g></svg>