<svg xmlns="http://www.w3.org/2000/svg" xmlns:svg="http://www.w3.org/2000/svg" xmlns:xlink="http://www.w3.org/1999/xlink" id="svg2" width="22" height="22" version="1.0"><defs id="defs4"><linearGradient id="StandardGradient" x1="12.803" x2="12.803" y1="3.736" y2="16.759" gradientTransform="scale(0.930775,1.0743735)" gradientUnits="userSpaceOnUse"><stop id="stop3337" offset="0" style="stop-color:#000;stop-opacity:.86274511"/><stop id="stop3339" offset="1" style="stop-color:#000;stop-opacity:.47058824"/></linearGradient><linearGradient id="linearGradient3626" x1="12.803" x2="12.803" y1="3.736" y2="16.759" gradientTransform="matrix(0.930775,0,0,1.0743735,-30,0)" gradientUnits="userSpaceOnUse" xlink:href="#StandardGradient"/><clipPath id="clipPath3635" clipPathUnits="userSpaceOnUse"><path style="fill:#f0f;fill-opacity:1;stroke:none;display:inline" id="path3637" d="m -30,0 0,22 22,0 0,-22 -22,0 z m 11,4 6.0625,8.96875 -3.03125,0 0,5.03125 -6.03125,0 0,-5.03125 -3.0625,0 L -19,4 z"/></clipPath><filter id="filter3639"><feGaussianBlur id="feGaussianBlur3641" stdDeviation=".391"/></filter><linearGradient id="linearGradient3966" x1="12.803" x2="12.803" y1="3.736" y2="16.759" gradientTransform="scale(0.930775,1.0743735)" gradientUnits="userSpaceOnUse" xlink:href="#StandardGradient"/><linearGradient id="linearGradient3970" x1="12.803" x2="12.803" y1="3.736" y2="16.759" gradientTransform="scale(0.930775,1.0743735)" gradientUnits="userSpaceOnUse" xlink:href="#StandardGradient"/></defs><metadata id="metadata7"/><g id="layer1" style="display:inline"><path style="fill:#fff;fill-opacity:1;stroke:none;display:inline;opacity:.15" id="path3968" d="M 10.875 3.03125 A 0.97203568 0.97203568 0 0 0 10.1875 3.46875 L 4.125 12.4375 A 0.97203568 0.97203568 0 0 0 4.9375 13.9375 L 7.03125 13.9375 L 7.03125 18 A 0.97203568 0.97203568 0 0 0 8 18.96875 L 14.03125 18.96875 A 0.97203568 0.97203568 0 0 0 15 18 L 15 13.9375 L 17.0625 13.9375 A 0.97203568 0.97203568 0 0 0 17.875 12.4375 L 11.8125 3.46875 A 0.97203568 0.97203568 0 0 0 10.875 3.03125 z M 11 4 L 17.0625 12.96875 L 14.03125 12.96875 L 14.03125 18 L 8 18 L 8 12.96875 L 4.9375 12.96875 L 11 4 z"/><path style="opacity:1;fill:url(#StandardGradient);fill-opacity:1;stroke:none;stroke-width:.99999970000000005;stroke-linecap:round;stroke-linejoin:miter;stroke-miterlimit:4;stroke-dasharray:none;stroke-opacity:1;display:inline" id="Symbol" d="M 4.947729,12.973166 L 10.997604,4.0139946 L 17.052271,12.973166 L 14.026692,12.973166 L 14.026692,17.986005 L 7.989208,17.986005 L 8,12.973166 L 4.947729,12.973166 z"/><path style="opacity:.5;fill:#000;fill-opacity:1;stroke:none;stroke-width:.99999970000000005;stroke-linecap:round;stroke-linejoin:miter;stroke-miterlimit:4;stroke-dasharray:none;stroke-opacity:1;display:inline" id="BevelShadow" d="M 11 4 L 4.9375 12.96875 L 5.625 12.96875 L 11 5.03125 L 16.375 12.96875 L 17.0625 12.96875 L 11 4 z"/><path style="opacity:.3;fill:#fff;fill-opacity:1;stroke:none;stroke-width:.99999970000000005;stroke-linecap:round;stroke-linejoin:miter;stroke-miterlimit:4;stroke-dasharray:none;stroke-opacity:1;display:inline" id="BevelHighlight" d="M 4.9375 12.96875 L 4.9375 14 L 8 14 L 8 12.96875 L 4.9375 12.96875 z M 14.03125 12.96875 L 14.03125 14 L 17.0625 14 L 17.0625 12.96875 L 14.03125 12.96875 z M 8 18 L 8 19 L 14.03125 19 L 14.03125 18 L 8 18 z"/></g></svg>