<svg xmlns="http://www.w3.org/2000/svg" xmlns:svg="http://www.w3.org/2000/svg" xmlns:xlink="http://www.w3.org/1999/xlink" id="svg2" width="22" height="22" version="1.0"><defs id="defs4"><linearGradient id="StandardGradient" x1="11.64" x2="11.64" y1="4.078" y2="17.924" gradientUnits="userSpaceOnUse"><stop style="stop-color:#000;stop-opacity:.86274511" id="stop3283" offset="0"/><stop style="stop-color:#000;stop-opacity:.47058824" id="stop3285" offset="1"/></linearGradient><linearGradient id="linearGradient3627" x1="11.64" x2="11.64" y1="4.078" y2="17.924" gradientTransform="translate(-30,0)" gradientUnits="userSpaceOnUse" xlink:href="#StandardGradient"/><clipPath id="clipPath3634" clipPathUnits="userSpaceOnUse"><path style="fill:#f0f;fill-opacity:1;stroke:none;display:inline" id="path3636" d="m -30,0 0,22 22,0 0,-22 -22,0 z m 8.96875,4.0625 4.03125,0 0,4.9375 4.9375,0 0,4.0625 -4.9375,0 0,4.875 -4.03125,0 0,-4.875 -4.90625,0 0,-4.0625 4.90625,0 0,-4.9375 z"/></clipPath><filter id="filter3638"><feGaussianBlur id="feGaussianBlur3640" stdDeviation=".415"/></filter><linearGradient id="linearGradient4584" x1="11.64" x2="11.64" y1="4.078" y2="17.924" gradientUnits="userSpaceOnUse" xlink:href="#StandardGradient"/><linearGradient id="linearGradient4588" x1="11.64" x2="11.64" y1="4.078" y2="17.924" gradientUnits="userSpaceOnUse" xlink:href="#StandardGradient"/></defs><metadata id="metadata7"/><g id="layer3" style="display:inline"><path style="fill:#fff;fill-opacity:1;stroke:none;display:inline;opacity:.15" id="path4586" d="M 8.75 2.96875 A 1.1082912 1.1082912 0 0 0 7.875 4.0625 L 7.875 7.90625 L 4.0625 7.90625 A 1.1082912 1.1082912 0 0 0 2.96875 9 L 2.96875 13.0625 A 1.1082912 1.1082912 0 0 0 4.0625 14.15625 L 7.875 14.15625 L 7.875 17.9375 A 1.1082912 1.1082912 0 0 0 8.96875 19.03125 L 13 19.03125 A 1.1082912 1.1082912 0 0 0 14.09375 17.9375 L 14.09375 14.15625 L 17.9375 14.15625 A 1.1082912 1.1082912 0 0 0 19.03125 13.0625 L 19.03125 9 A 1.1082912 1.1082912 0 0 0 17.9375 7.90625 L 14.09375 7.90625 L 14.09375 4.0625 A 1.1082912 1.1082912 0 0 0 13 2.96875 L 8.96875 2.96875 A 1.1082912 1.1082912 0 0 0 8.75 2.96875 z M 8.96875 4.0625 L 13 4.0625 L 13 9 L 17.9375 9 L 17.9375 13.0625 L 13 13.0625 L 13 17.9375 L 8.96875 17.9375 L 8.96875 13.0625 L 4.0625 13.0625 L 4.0625 9 L 8.96875 9 L 8.96875 4.0625 z"/><path style="opacity:1;fill:url(#StandardGradient);fill-opacity:1;stroke:none;stroke-width:1.0000002400000001;stroke-linecap:round;stroke-linejoin:miter;stroke-miterlimit:4;stroke-dasharray:none;stroke-opacity:1;display:inline" id="Symbol" d="M 8.9700858,4.0775535 L 8.9700858,9.0129095 L 4.0775538,9.0129095 L 4.0775538,13.060508 L 8.9700858,13.060508 L 8.9700858,17.922446 L 13,17.922446 L 13,13.060508 L 17.922446,13.060508 L 17.922446,9.0129095 L 13,9.0129095 L 13,4.0775535 L 8.9700858,4.0775535 z"/><path style="opacity:.5;fill:#000;fill-opacity:1;stroke:none;stroke-width:1.0000002400000001;stroke-linecap:round;stroke-linejoin:miter;stroke-miterlimit:4;stroke-dasharray:none;stroke-opacity:1;display:inline" id="BevelShadow" d="M 8.96875 4.0625 L 8.96875 5.15625 L 13 5.15625 L 13 4.0625 L 8.96875 4.0625 z M 4.0625 9 L 4.0625 10.09375 L 8.96875 10.09375 L 8.96875 9 L 4.0625 9 z M 13 9 L 13 10.09375 L 17.9375 10.09375 L 17.9375 9 L 13 9 z"/><path style="opacity:.3;fill:#fff;fill-opacity:1;stroke:none;stroke-width:1.0000002400000001;stroke-linecap:round;stroke-linejoin:miter;stroke-miterlimit:4;stroke-dasharray:none;stroke-opacity:1;display:inline" id="BevelHighlight" d="M 4.0625 13.0625 L 4.0625 14.125 L 8.96875 14.125 L 8.96875 13.0625 L 4.0625 13.0625 z M 13 13.0625 L 13 14.125 L 17.9375 14.125 L 17.9375 13.0625 L 13 13.0625 z M 8.96875 17.9375 L 8.96875 19 L 13 19 L 13 17.9375 L 8.96875 17.9375 z"/></g></svg>