<svg xmlns="http://www.w3.org/2000/svg" xmlns:svg="http://www.w3.org/2000/svg" xmlns:xlink="http://www.w3.org/1999/xlink" id="svg2" width="22" height="22" version="1.0"><defs id="defs4"><linearGradient id="StandardGradient" x1="9.236" x2="9.236" y1="7.448" y2="14.312" gradientTransform="scale(0.9306049,1.0745699)" gradientUnits="userSpaceOnUse"><stop style="stop-color:#000;stop-opacity:.86274511" id="stop3389" offset="0"/><stop style="stop-color:#000;stop-opacity:.47058824" id="stop3391" offset="1"/></linearGradient><linearGradient id="linearGradient3626" x1="9.236" x2="9.236" y1="7.448" y2="14.312" gradientTransform="scale(0.9306049,1.0745699)" gradientUnits="userSpaceOnUse" xlink:href="#StandardGradient"/><clipPath id="clipPath3633" clipPathUnits="userSpaceOnUse"><path style="fill:#f0f;fill-opacity:1;stroke:none;display:inline" id="path3635" d="m 2.7047777,5.7361189 0,12.4695601 12.7624023,0 0,-12.4695601 -12.7624023,0 z m 3.4806551,2.2671928 6.3812012,3.6841883 -6.3812012,3.684188 0,-7.3683763 z"/></clipPath><filter id="filter3637"><feGaussianBlur id="feGaussianBlur3639" stdDeviation=".206"/></filter><linearGradient id="linearGradient5009" x1="9.236" x2="9.236" y1="7.448" y2="14.312" gradientTransform="scale(0.9306049,1.0745699)" gradientUnits="userSpaceOnUse" xlink:href="#StandardGradient"/><linearGradient id="linearGradient5013" x1="9.236" x2="9.236" y1="7.448" y2="14.312" gradientTransform="matrix(1.6041892,0,0,1.8958598,-4.6625321,-10.120214)" gradientUnits="userSpaceOnUse" xlink:href="#StandardGradient"/></defs><metadata id="metadata7"/><g id="layer1"><path style="fill:#fff;fill-opacity:1;fill-rule:nonzero;stroke:none;opacity:.15" id="path5011" d="M 5.8125 2.875 A 1.0860966 1.1116032 0 0 0 5.78125 2.90625 A 1.0860966 1.1116032 0 0 0 4.9375 4 L 4.9375 17 A 1.0860966 1.1116032 0 0 0 6.53125 17.9375 L 17.53125 11.4375 A 1.0860966 1.1116032 0 0 0 17.53125 9.5625 L 6.53125 3.0625 A 1.0860966 1.1116032 0 0 0 5.8125 2.875 z M 6 4 L 17 10.5 L 6 17 L 6 4 z"/><path style="opacity:1;fill:url(#StandardGradient);fill-opacity:1;fill-rule:nonzero;stroke:none;stroke-width:1;stroke-linecap:square;stroke-linejoin:round;stroke-miterlimit:4;stroke-dasharray:none;stroke-dashoffset:0;stroke-opacity:1" id="Symbol" d="M 12.566634,11.6875 L 6.1854329,15.371688 L 6.1854329,8.0033117 L 12.566634,11.6875 z" transform="matrix(1.7238134,0,0,1.7642964,-4.6625321,-10.120214)"/><path style="opacity:.5;fill:#000;fill-opacity:1;fill-rule:nonzero;stroke:none;stroke-width:1;stroke-linecap:square;stroke-linejoin:round;stroke-miterlimit:4;stroke-dasharray:none;stroke-dashoffset:0;stroke-opacity:1" id="BevelShadow" d="M 6 4 L 6 5 L 16.15625 11 L 17 10.5 L 6 4 z"/><path style="opacity:.3;fill:#fff;fill-opacity:1;fill-rule:nonzero;stroke:none;stroke-width:1;stroke-linecap:square;stroke-linejoin:round;stroke-miterlimit:4;stroke-dasharray:none;stroke-dashoffset:0;stroke-opacity:1" id="BevelHighlight" d="M 17 10.5 L 6 17 L 6 18 L 17 11.5 L 17 10.5 z"/></g></svg>